<svg width="16" height="16" viewBox="0 0 16 16" fill="none" xmlns="http://www.w3.org/2000/svg">
<path d="M15.0414 5.2072C15.1415 5.47913 15.0571 5.78231 14.8414 5.97609L13.488 7.20757C13.5224 7.46699 13.5412 7.73267 13.5412 8.00147C13.5412 8.27026 13.5224 8.53594 13.488 8.79536L14.8414 10.0268C15.0571 10.2206 15.1415 10.5238 15.0414 10.7957C14.9039 11.1677 14.7383 11.524 14.5476 11.8678L14.4007 12.121C14.1944 12.4648 13.9631 12.7898 13.7099 13.0961C13.5255 13.3212 13.2192 13.3962 12.9442 13.3087L11.2032 12.7555C10.7844 13.0774 10.3218 13.3462 9.82798 13.5494L9.43728 15.3341C9.37477 15.6185 9.15598 15.8435 8.86843 15.8904C8.4371 15.9623 7.99327 15.9998 7.54006 15.9998C7.08685 15.9998 6.64302 15.9623 6.21169 15.8904C5.92414 15.8435 5.70535 15.6185 5.64284 15.3341L5.25214 13.5494C4.7583 13.3462 4.29572 13.0774 3.87689 12.7555L2.13907 13.3118C1.86402 13.3993 1.55772 13.3212 1.37331 13.0993C1.12013 12.793 0.888843 12.4679 0.682555 12.1241L0.535653 11.8709C0.344993 11.5271 0.179338 11.1708 0.0418126 10.7989C-0.0582058 10.5269 0.0261847 10.2237 0.241849 10.03L1.59522 8.79849C1.56084 8.53594 1.54209 8.27026 1.54209 8.00147C1.54209 7.73267 1.56084 7.46699 1.59522 7.20757L0.241849 5.97609C0.0261847 5.78231 -0.0582058 5.47913 0.0418126 5.2072C0.179338 4.83526 0.344993 4.47895 0.535653 4.13513L0.682555 3.88196C0.888843 3.53815 1.12013 3.21309 1.37331 2.90678C1.55772 2.68174 1.86402 2.60673 2.13907 2.69424L3.88002 3.24747C4.29884 2.92554 4.76143 2.65674 5.25527 2.45357L5.64596 0.668872C5.70848 0.384445 5.92727 0.159404 6.21482 0.112521C6.64615 0.0375069 7.08998 0 7.54319 0C7.99639 0 8.44023 0.0375069 8.87155 0.109395C9.15911 0.156279 9.3779 0.38132 9.44041 0.665747L9.8311 2.45045C10.3249 2.65361 10.7875 2.92241 11.2064 3.24434L12.9473 2.69112C13.2224 2.6036 13.5287 2.68174 13.7131 2.90366C13.9662 3.20996 14.1975 3.53502 14.4038 3.87884L14.5507 4.13201C14.7414 4.47582 14.907 4.83213 15.0446 5.20408L15.0414 5.2072ZM7.54319 10.5019C8.92323 10.5019 10.0436 9.38151 10.0436 8.00147C10.0436 6.62142 8.92323 5.50101 7.54319 5.50101C6.16315 5.50101 5.04273 6.62142 5.04273 8.00147C5.04273 9.38151 6.16315 10.5019 7.54319 10.5019Z" fill="#374151"/>
</svg>
