<svg width="7" height="7" viewBox="0 0 7 7" fill="none" xmlns="http://www.w3.org/2000/svg">
<path d="M3.00113 0C3.27769 0 3.50113 0.223437 3.50113 0.5V2.61719L5.24332 1.57187C5.48082 1.42969 5.78707 1.50625 5.92925 1.74375C6.07144 1.98125 5.99488 2.2875 5.75738 2.42969L3.973 3.5L5.75894 4.57188C5.99644 4.71406 6.073 5.02031 5.93082 5.25781C5.78863 5.49531 5.48238 5.57188 5.24488 5.42969L3.50113 4.38281V6.5C3.50113 6.77656 3.27769 7 3.00113 7C2.72457 7 2.50113 6.77656 2.50113 6.5V4.38281L0.758941 5.42812C0.521441 5.57031 0.215191 5.49375 0.0730036 5.25625C-0.0691839 5.01875 0.00737856 4.7125 0.244879 4.57031L2.02925 3.5L0.243316 2.42812C0.00581607 2.28594 -0.0707464 1.97969 0.0714411 1.74219C0.213629 1.50469 0.519879 1.42813 0.757379 1.57031L2.50113 2.61719V0.5C2.50113 0.223437 2.72457 0 3.00113 0Z" fill="#EF4444"/>
</svg>
