<svg width="30" height="24" viewBox="0 0 30 24" fill="none" xmlns="http://www.w3.org/2000/svg">
<path d="M10.5 12C13.8115 12 16.5 9.31149 16.5 6C16.5 2.68851 13.8115 0 10.5 0C7.18851 0 4.5 2.68851 4.5 6C4.5 9.31149 7.18851 12 10.5 12ZM8.35781 14.25C3.74063 14.25 0 17.9906 0 22.6078C0 23.3766 0.623437 24 1.39219 24H18.4031C18.15 23.5594 18 23.0484 18 22.5V16.5C18 16.4016 18.0047 16.3031 18.0141 16.2047C16.5609 14.9859 14.6859 14.25 12.6422 14.25H8.35781ZM24.75 11.25C25.5797 11.25 26.25 11.9203 26.25 12.75V15H23.25V12.75C23.25 11.9203 23.9203 11.25 24.75 11.25ZM21 12.75V15C20.1703 15 19.5 15.6703 19.5 16.5V22.5C19.5 23.3297 20.1703 24 21 24H28.5C29.3297 24 30 23.3297 30 22.5V16.5C30 15.6703 29.3297 15 28.5 15V12.75C28.5 10.6781 26.8219 9 24.75 9Cnan nan 21 10.6781 21 12.75Z" fill="#9CA3AF"/>
</svg>
