<svg width="16" height="13" viewBox="0 0 16 13" fill="none" xmlns="http://www.w3.org/2000/svg">
<path d="M7.99862 0C5.75437 0 3.9573 1.02214 2.64908 2.2387C1.34919 3.44415 0.47982 4.88847 0.0687441 5.88005C-0.0229147 6.09948 -0.0229147 6.3439 0.0687441 6.56333C0.47982 7.55491 1.34919 8.99923 2.64908 10.2047C3.9573 11.4212 5.75437 12.4434 7.99862 12.4434C10.2429 12.4434 12.0399 11.4212 13.3482 10.2047C14.6481 8.99646 15.5174 7.55491 15.9313 6.56333C16.0229 6.3439 16.0229 6.09948 15.9313 5.88005C15.5174 4.88847 14.6481 3.44415 13.3482 2.2387C12.0399 1.02214 10.2429 0 7.99862 0ZM3.99896 6.22169C3.99896 4.79275 4.7613 3.47236 5.99879 2.75789C7.23629 2.04342 8.76095 2.04342 9.99845 2.75789C11.236 3.47236 11.9983 4.79275 11.9983 6.22169C11.9983 8.42916 10.2061 10.2214 7.99862 10.2214C5.79115 10.2214 3.99896 8.42916 3.99896 6.22169ZM7.99862 4.44407C7.99862 5.42454 7.20147 6.22169 6.221 6.22169C6.02379 6.22169 5.83492 6.18836 5.65716 6.13003C5.50439 6.08004 5.32663 6.17447 5.33218 6.33557C5.34052 6.52722 5.36829 6.71887 5.42107 6.91052C5.80159 8.33262 7.26535 9.17699 8.68745 8.79647Cnan nan 10.9539 6.95218 10.5734 5.53008C10.2651 4.3774 9.24574 3.60247 8.1125 3.55525C7.95141 3.5497 7.85697 3.72468 7.90696 3.88022C7.96529 4.05799 7.99862 4.24686 7.99862 4.44407Z" fill="#374151"/>
</svg>
