<svg width="18" height="17" viewBox="0 0 18 17" fill="none" xmlns="http://www.w3.org/2000/svg">
<path d="M2.50938 1.37722C2.18125 2.18659 2 3.07097 2 4.00222C2 4.93347 2.18125 5.81784 2.50938 6.62722C2.71563 7.13972 2.46875 7.72097 1.95625 7.93034C1.44375 8.13972 0.8625 7.88972 0.653125 7.37722C0.23125 6.33347 0 5.19284 0 4.00222C0 2.81159 0.23125 1.67097 0.653125 0.627217C0.8625 0.114717 1.44375 -0.132158 1.95625 0.0740917C2.46875 0.280342 2.71563 0.864717 2.50938 1.37722ZM17.3469 0.627217C17.7687 1.67097 18 2.81159 18 4.00222C18 5.19284 17.7687 6.33347 17.3469 7.37722C17.1406 7.88972 16.5563 8.13659 16.0438 7.93034Cnan nan 15.2844 7.13972 15.4906 6.62722C15.8188 5.81784 16 4.93347 16 4.00222Cnan nan 15.8188 2.18659 15.4906 1.37722C15.2844 0.864717 15.5313 0.283467 16.0438 0.0740917C16.5563 -0.135283 17.1375 0.114717 17.3469 0.627217ZM11 4.00222C11 4.74284 10.5969 5.38972 10 5.73347V15.0022C10 15.5553 9.55313 16.0022 9 16.0022Cnan nan 8 15.5553 8 15.0022V5.73347C7.40312 5.38659 7 4.74284 7 4.00222C7 2.89909 7.89687 2.00222 9 2.00222Cnan nan 11 2.89909 11 4.00222ZM5.33125 2.40222C5.11875 2.88972 5 3.43034 5 4.00222C5 4.57409 5.11875 5.11472 5.33125 5.60222C5.55313 6.10847 5.32188 6.69909 4.81563 6.91784Cnan nan 3.71875 6.90847 3.5 6.40222C3.17812 5.66472 3 4.85222 3 4.00222Cnan nan 3.17812 2.33972 3.5 1.60222C3.72187 1.09597 4.30938 0.864717 4.81563 1.08659Cnan nan 5.55313 1.89597 5.33125 2.40222ZM14.5 1.60222C14.8219 2.33972 15 3.15222 15 4.00222Cnan nan 14.8219 5.66472 14.5 6.40222C14.2781 6.90847 13.6906 7.13972 13.1844 6.91784Cnan nan 12.4469 6.10847 12.6687 5.60222C12.8812 5.11472 13 4.57409 13 4.00222Cnan nan 12.8812 2.88972 12.6687 2.40222C12.4469 1.89597 12.6781 1.30534 13.1844 1.08659Cnan nan 14.2812 1.09597 14.5 1.60222Z" fill="#374151"/>
</svg>
