<svg width="14" height="14" viewBox="0 0 14 14" fill="none" xmlns="http://www.w3.org/2000/svg">
<path d="M10.0406 11.2793C9.18476 11.8918 8.13477 12.25 7 12.25C5.86523 12.25 4.81523 11.8918 3.95937 11.2793L5.54531 9.69336C5.97734 9.92852 6.475 10.0625 7.00273 10.0625C7.53047 10.0625 8.02539 9.92852 8.46016 9.69336L10.0461 11.2793H10.0406ZM12.5207 11.3012C13.4449 10.1145 13.9973 8.62148 13.9973 7Cnan nan 13.4449 3.88555 12.5207 2.69883C12.7668 2.35703 12.7367 1.87578 12.4277 1.56953Cnan nan 11.643 1.23047 11.3012 1.47656C10.1145 0.552344 8.62148 0 7 0C5.37852 0 3.88555 0.552344 2.69883 1.47656C2.35703 1.23047 1.87578 1.26055 1.56953 1.56953Cnan nan 1.23047 2.35703 1.47656 2.69883C0.552344 3.88555 0 5.37852 0 7C0 8.62148 0.552344 10.1145 1.47656 11.3012C1.23047 11.643 1.26055 12.1242 1.56953 12.4305Cnan nan 2.35703 12.7695 2.69883 12.5234C3.88555 13.4477 5.37852 14 7 14Cnan nan 10.1145 13.4477 11.3012 12.5234C11.643 12.7695 12.1242 12.7395 12.4305 12.4305Cnan nan 12.7695 11.643 12.5234 11.3012H12.5207ZM11.2766 10.0406L9.69063 8.45469C9.92578 8.02266 10.0598 7.525 10.0598 6.99727Cnan nan 9.92578 5.97461 9.69063 5.53984L11.2766 3.95391C11.8918 4.81523 12.25 5.86523 12.25 7C12.25 8.13477 11.8918 9.18476 11.2793 10.0406H11.2766ZM10.0406 2.7207L8.45469 4.30664C8.02266 4.07148 7.525 3.9375 6.99727 3.9375Cnan nan 5.97461 4.07148 5.53984 4.30664L3.95391 2.7207C4.81523 2.1082 5.86523 1.75 7 1.75C8.13477 1.75 9.18476 2.1082 10.0406 2.7207ZM4.30664 8.45742L2.7207 10.0434C2.1082 9.18477 1.75 8.13477 1.75 7C1.75 5.86523 2.1082 4.81523 2.7207 3.95937L4.30664 5.54531C4.07148 5.97734 3.9375 6.475 3.9375 7.00273Cnan nan 4.07148 8.02539 4.30664 8.46016V8.45742ZM5.6875 7C5.6875 6.27561 6.27561 5.6875 7 5.6875C7.72439 5.6875 8.3125 6.27561 8.3125 7C8.3125 7.72439 7.72439 8.3125 7 8.3125C6.27561 8.3125 5.6875 7.72439 5.6875 7Z" fill="#374151"/>
</svg>
