<svg width="12" height="10" viewBox="0 0 12 10" fill="none" xmlns="http://www.w3.org/2000/svg">
<path d="M0.576923 0C0.257212 0 0 0.257212 0 0.576923V1.73077C0 2.05048 0.257212 2.30769 0.576923 2.30769H1.73077C2.05048 2.30769 2.30769 2.05048 2.30769 1.73077V0.576923C2.30769 0.257212 2.05048 0 1.73077 0H0.576923ZM4.23077 0.384615C3.80529 0.384615 3.46154 0.728365 3.46154 1.15385Cnan nan 3.80529 1.92308 4.23077 1.92308H11.1538C11.5793 1.92308 11.9231 1.57933 11.9231 1.15385Cnan nan 11.5793 0.384615 11.1538 0.384615H4.23077ZM4.23077 4.23077C3.80529 4.23077 3.46154 4.57452 3.46154 5Cnan nan 3.80529 5.76923 4.23077 5.76923H11.1538C11.5793 5.76923 11.9231 5.42548 11.9231 5Cnan nan 11.5793 4.23077 11.1538 4.23077H4.23077ZM4.23077 8.07692C3.80529 8.07692 3.46154 8.42067 3.46154 8.84615Cnan nan 3.80529 9.61538 4.23077 9.61538H11.1538C11.5793 9.61538 11.9231 9.27163 11.9231 8.84615Cnan nan 11.5793 8.07692 11.1538 8.07692H4.23077ZM0 4.42308V5.57692C0 5.89663 0.257212 6.15385 0.576923 6.15385H1.73077C2.05048 6.15385 2.30769 5.89663 2.30769 5.57692V4.42308C2.30769 4.10337 2.05048 3.84615 1.73077 3.84615H0.576923C0.257212 3.84615 0 4.10337 0 4.42308ZM0.576923 7.69231C0.257212 7.69231 0 7.94952 0 8.26923V9.42308C0 9.74279 0.257212 10 0.576923 10H1.73077C2.05048 10 2.30769 9.74279 2.30769 9.42308V8.26923C2.30769 7.94952 2.05048 7.69231 1.73077 7.69231H0.576923Z" fill="#3B82F6"/>
</svg>
