<svg width="18" height="18" viewBox="0 0 18 18" fill="none" xmlns="http://www.w3.org/2000/svg">
<path d="M2.571 3.8565V2.571H7.71299V7.71299H7.07024C6.3592 7.71299 5.78475 8.28745 5.78475 8.99849C5.78475 9.70954 6.3592 10.284 7.07024 10.284H10.9267C11.6378 10.284 12.2122 9.70954 12.2122 8.99849C12.2122 8.28745 11.6378 7.71299 10.9267 7.71299H10.284V2.571H15.426V3.8565C15.426 4.56754 16.0004 5.142 16.7115 5.142C17.4225 5.142 17.997 4.56754 17.997 3.8565V1.92825C17.997 0.863695 17.1333 0 16.0687 0H8.99849H1.92825C0.863695 0 0 0.863695 0 1.92825V3.8565C0 4.56754 0.574457 5.142 1.2855 5.142C1.99654 5.142 2.571 4.56754 2.571 3.8565ZM0.377615 13.2326C-0.124533 13.7348 -0.124533 14.5502 0.377615 15.0524L2.94861 17.6234C3.31819 17.993 3.86855 18.1014 4.35061 17.9006Cnan nan 5.14601 17.2337 5.14601 16.7115V15.426H12.855V16.7115C12.855 17.2297 13.1683 17.6997 13.6504 17.9006Cnan nan 14.6828 17.989 15.0524 17.6234L17.6234 15.0524C18.1255 14.5502 18.1255 13.7348 17.6234 13.2326L15.0524 10.6616C14.6828 10.292 14.1325 10.1836 13.6504 10.3844Cnan nan 12.855 11.0513 12.855 11.5735V12.859H5.142V11.5695C5.142 11.0513 4.82866 10.5813 4.34659 10.3804Cnan nan 3.31418 10.292 2.9446 10.6576L0.373598 13.2286L0.377615 13.2326Z" fill="#3B82F6"/>
</svg>
