<svg width="18" height="18" viewBox="0 0 18 18" fill="none" xmlns="http://www.w3.org/2000/svg">
<path d="M2.57143 0C1.15312 0 0 1.15312 0 2.57143V15.4286C0 16.8469 1.15312 18 2.57143 18H15.4286C16.8469 18 18 16.8469 18 15.4286V2.57143C18 1.15312 16.8469 0 15.4286 0H2.57143ZM13.5402 7.11161L8.39732 12.2545C8.01964 12.6321 7.40893 12.6321 7.03527 12.2545L4.46384 9.68304C4.08616 9.30536 4.08616 8.69464 4.46384 8.32098Cnan nan 5.45223 7.9433 5.82589 8.32098L7.71429 10.2094L12.1741 5.74554C12.5518 5.36786 13.1625 5.36786 13.5362 5.74554Cnan nan 13.9138 6.73393 13.5362 7.10759L13.5402 7.11161Z" fill="#3B82F6"/>
</svg>
