<svg width="12" height="12" viewBox="0 0 12 12" fill="none" xmlns="http://www.w3.org/2000/svg">
<path d="M5.65585 0C5.76425 0 5.87266 0.023566 5.97163 0.0683414L10.4091 1.95126C10.9276 2.17043 11.314 2.68181 11.3117 3.29924C11.2999 5.63699 10.3384 9.91421 6.27799 11.8584C5.88444 12.0469 5.42726 12.0469 5.03371 11.8584C0.973286 9.91421 0.0117937 5.63699 1.0719e-05 3.29924C-0.00234588 2.68181 0.384136 2.17043 0.902588 1.95126L5.34242 0.0683414C5.43904 0.023566 5.54745 0 5.65585 0ZM5.65585 1.57421V10.4822C8.90796 8.90795 9.78225 5.42254 9.80346 3.33223L5.65585 1.57421Z" fill="#3B82F6"/>
</svg>
