<svg width="15" height="18" viewBox="0 0 15 18" fill="none" xmlns="http://www.w3.org/2000/svg">
<path d="M12.5412 9.43278C12.5332 7.97024 13.1947 6.86637 14.5337 6.0534C13.7845 4.9814 12.6528 4.3916 11.1583 4.27604C9.74362 4.16445 8.1974 5.10096 7.63151 5.10096C7.03374 5.10096 5.66286 4.31589 4.58688 4.31589C2.36318 4.35175 0 6.08927 0 9.62407C0 10.6682 0.191286 11.7468 0.573858 12.86C1.08395 14.3225 2.92508 17.9091 4.84591 17.8494C5.85016 17.8255 6.55951 17.136 7.86663 17.136C9.1339 17.136 9.79145 17.8494 10.9113 17.8494C12.848 17.8215 14.5138 14.5616 15 13.0951C12.4017 11.8717 12.5412 9.5085 12.5412 9.43278ZM10.2856 2.88921C11.3735 1.59803 11.2739 0.422423 11.242 0C10.2816 0.0557917 9.16977 0.65356 8.53613 1.39081C7.83874 2.17986 7.42827 3.15622 7.51594 4.25611C8.55606 4.33581 9.50452 3.80181 10.2856 2.88921Z" fill="#111827"/>
</svg>
