<svg width="27" height="21" viewBox="0 0 27 21" fill="none" xmlns="http://www.w3.org/2000/svg">
<path d="M0 3C0 1.34531 1.34531 0 3 0H24C25.6547 0 27 1.34531 27 3V18C27 19.6547 25.6547 21 24 21H3C1.34531 21 0 19.6547 0 18V3ZM6 12C6.82787 12 7.5 11.3279 7.5 10.5C7.5 9.67213 6.82787 9 6 9C5.17213 9 4.5 9.67213 4.5 10.5C4.5 11.3279 5.17213 12 6 12ZM7.5 6C7.5 5.17213 6.82787 4.5 6 4.5C5.17213 4.5 4.5 5.17213 4.5 6C4.5 6.82787 5.17213 7.5 6 7.5C6.82787 7.5 7.5 6.82787 7.5 6ZM6 16.5C6.82787 16.5 7.5 15.8279 7.5 15C7.5 14.1721 6.82787 13.5 6 13.5C5.17213 13.5 4.5 14.1721 4.5 15C4.5 15.8279 5.17213 16.5 6 16.5ZM10.5 4.875C9.87656 4.875 9.375 5.37656 9.375 6Cnan nan 9.87656 7.125 10.5 7.125H21C21.6234 7.125 22.125 6.62344 22.125 6Cnan nan 21.6234 4.875 21 4.875H10.5ZM10.5 9.375C9.87656 9.375 9.375 9.87656 9.375 10.5Cnan nan 9.87656 11.625 10.5 11.625H21C21.6234 11.625 22.125 11.1234 22.125 10.5Cnan nan 21.6234 9.375 21 9.375H10.5ZM10.5 13.875C9.87656 13.875 9.375 14.3766 9.375 15Cnan nan 9.87656 16.125 10.5 16.125H21C21.6234 16.125 22.125 15.6234 22.125 15Cnan nan 21.6234 13.875 21 13.875H10.5Z" fill="#3B82F6"/>
</svg>
