<svg width="20" height="17" viewBox="0 0 20 17" fill="none" xmlns="http://www.w3.org/2000/svg">
<path d="M0.967742 0C0.431452 0 0 0.431452 0 0.967742V2.90323C0 3.43952 0.431452 3.87097 0.967742 3.87097H2.90323C3.43952 3.87097 3.87097 3.43952 3.87097 2.90323V0.967742C3.87097 0.431452 3.43952 0 2.90323 0H0.967742ZM7.09677 0.645161C6.38306 0.645161 5.80645 1.22177 5.80645 1.93548Cnan nan 6.38306 3.22581 7.09677 3.22581H18.7097C19.4234 3.22581 20 2.64919 20 1.93548Cnan nan 19.4234 0.645161 18.7097 0.645161H7.09677ZM7.09677 7.09677C6.38306 7.09677 5.80645 7.67339 5.80645 8.3871Cnan nan 6.38306 9.67742 7.09677 9.67742H18.7097C19.4234 9.67742 20 9.10081 20 8.3871Cnan nan 19.4234 7.09677 18.7097 7.09677H7.09677ZM7.09677 13.5484C6.38306 13.5484 5.80645 14.125 5.80645 14.8387Cnan nan 6.38306 16.129 7.09677 16.129H18.7097C19.4234 16.129 20 15.5524 20 14.8387Cnan nan 19.4234 13.5484 18.7097 13.5484H7.09677ZM0 7.41935V9.35484C0 9.89113 0.431452 10.3226 0.967742 10.3226H2.90323C3.43952 10.3226 3.87097 9.89113 3.87097 9.35484V7.41935C3.87097 6.88306 3.43952 6.45161 2.90323 6.45161H0.967742C0.431452 6.45161 0 6.88306 0 7.41935ZM0.967742 12.9032C0.431452 12.9032 0 13.3347 0 13.871V15.8065C0 16.3427 0.431452 16.7742 0.967742 16.7742H2.90323C3.43952 16.7742 3.87097 16.3427 3.87097 15.8065V13.871C3.87097 13.3347 3.43952 12.9032 2.90323 12.9032H0.967742Z" fill="#3B82F6"/>
</svg>
