<svg width="30" height="24" viewBox="0 0 30 24" fill="none" xmlns="http://www.w3.org/2000/svg">
<path d="M4.5 6C4.5 2.68851 7.18851 0 10.5 0C13.8115 0 16.5 2.68851 16.5 6C16.5 9.31149 13.8115 12 10.5 12C7.18851 12 4.5 9.31149 4.5 6ZM0 22.6078C0 17.9906 3.74063 14.25 8.35781 14.25H12.6422C17.2594 14.25 21 17.9906 21 22.6078C21 23.3766 20.3766 24 19.6078 24H1.39219C0.623437 24 0 23.3766 0 22.6078ZM29.2969 8.29688L23.2969 14.2969C22.8563 14.7375 22.1438 14.7375 21.7078 14.2969L18.7078 11.2969C18.2672 10.8562 18.2672 10.1438 18.7078 9.70781Cnan nan 19.8609 9.26719 20.2969 9.70781L22.5 11.9109L27.7031 6.70312C28.1437 6.2625 28.8562 6.2625 29.2922 6.70312Cnan nan 29.7328 7.85625 29.2922 8.29219L29.2969 8.29688Z" fill="#3B82F6"/>
</svg>
