<svg width="18" height="18" viewBox="0 0 18 18" fill="none" xmlns="http://www.w3.org/2000/svg">
<path d="M11.5714 1.28571C11.5714 1.99687 10.9969 2.57143 10.2857 2.57143H1.28571C0.574554 2.57143 0 1.99687 0 1.28571C0 0.574554 0.574554 0 1.28571 0H10.2857C10.9969 0 11.5714 0.574554 11.5714 1.28571ZM11.5714 11.5714C11.5714 12.2826 10.9969 12.8571 10.2857 12.8571H1.28571C0.574554 12.8571 0 12.2826 0 11.5714Cnan nan 0.574554 10.2857 1.28571 10.2857H10.2857C10.9969 10.2857 11.5714 10.8603 11.5714 11.5714ZM0 6.42857C0 5.71741 0.574554 5.14286 1.28571 5.14286H16.7143C17.4254 5.14286 18 5.71741 18 6.42857Cnan nan 17.4254 7.71429 16.7143 7.71429H1.28571C0.574554 7.71429 0 7.13973 0 6.42857ZM18 16.7143C18 17.4254 17.4254 18 16.7143 18H1.28571C0.574554 18 0 17.4254 0 16.7143Cnan nan 0.574554 15.4286 1.28571 15.4286H16.7143C17.4254 15.4286 18 16.0031 18 16.7143Z" fill="#3B82F6"/>
</svg>
