<svg width="14" height="14" viewBox="0 0 14 14" fill="none" xmlns="http://www.w3.org/2000/svg">
<path d="M9.92708 0.513196L8.60235 1.83793L12.1605 5.39609L13.4852 4.07136C14.1695 3.3871 14.1695 2.27859 13.4852 1.59433L12.4068 0.513196C11.7226 -0.171065 10.6141 -0.171065 9.92982 0.513196H9.92708ZM7.98378 2.4565L1.60372 8.8393C1.31907 9.12395 1.11105 9.47703 0.996096 9.86295L0.0271808 13.1556C-0.0412454 13.3883 0.0217067 13.6373 0.191404 13.807C0.361101 13.9767 0.610172 14.0397 0.840084 13.974L4.13275 13.0051C4.51868 12.8901 4.87176 12.6821 5.15641 12.3975L11.5419 6.01466L7.98378 2.4565Z" fill="white"/>
</svg>
