<svg width="14" height="16" viewBox="0 0 14 16" fill="none" xmlns="http://www.w3.org/2000/svg">
<path d="M6.99934 0C6.44622 0 5.99935 0.446871 5.99935 0.999991V1.59999C3.71812 2.06248 1.99938 4.08121 1.99938 6.49994V7.08744C1.99938 8.55618 1.45876 9.97491 0.483773 11.0749L0.252525 11.3343C-0.00997308 11.628 -0.0724726 12.0499 0.0869011 12.4093C0.246275 12.7686 0.605647 12.9999 0.999393 12.9999H12.9993C13.393 12.9999 13.7493 12.7686 13.9118 12.4093C14.0743 12.0499 14.0087 11.628 13.7462 11.3343L13.5149 11.0749C12.5399 9.97491 11.9993 8.5593 11.9993 7.08744V6.49994C11.9993 4.08121 10.2806 2.06248 7.99933 1.59999V0.999991C7.99933 0.446871 7.55246 0 6.99934 0ZM8.41495 15.4155C8.78995 15.0405 8.99932 14.5311 8.99932 13.9999H6.99934H4.99936C4.99936 14.5311 5.20873 15.0405 5.58373 15.4155Cnan nan 6.4681 15.9999 6.99934 15.9999Cnan nan 8.03996 15.7905 8.41495 15.4155Z" fill="#374151"/>
</svg>
