<svg width="25" height="20" viewBox="0 0 25 20" fill="none" xmlns="http://www.w3.org/2000/svg">
<path d="M3.75 5C3.75 2.24042 5.99043 0 8.75 0C11.5096 0 13.75 2.24042 13.75 5C13.75 7.75957 11.5096 10 8.75 10C5.99043 10 3.75 7.75957 3.75 5ZM0 18.8398C0 14.9922 3.11719 11.875 6.96484 11.875H10.5352C14.3828 11.875 17.5 14.9922 17.5 18.8398C17.5 19.4805 16.9805 20 16.3398 20H1.16016C0.519531 20 0 19.4805 0 18.8398ZM19.6875 12.1875V9.6875H17.1875C16.668 9.6875 16.25 9.26953 16.25 8.75Cnan nan 16.668 7.8125 17.1875 7.8125H19.6875V5.3125C19.6875 4.79297 20.1055 4.375 20.625 4.375Cnan nan 21.5625 4.79297 21.5625 5.3125V7.8125H24.0625C24.582 7.8125 25 8.23047 25 8.75Cnan nan 24.582 9.6875 24.0625 9.6875H21.5625V12.1875C21.5625 12.707 21.1445 13.125 20.625 13.125Cnan nan 19.6875 12.707 19.6875 12.1875Z" fill="#3B82F6"/>
</svg>
