<svg width="14" height="13" viewBox="0 0 14 13" fill="none" xmlns="http://www.w3.org/2000/svg">
<path d="M6.99948 0C7.38779 0 7.74602 0.205092 7.9429 0.541444L13.8496 10.6046C14.0492 10.9437 14.0492 11.3621 13.855 11.7012C13.6609 12.0403 13.2972 12.2509 12.9061 12.2509H1.09282C0.701774 12.2509 0.338077 12.0403 0.143923 11.7012C-0.0502315 11.3621 -0.0474969 10.941 0.149392 10.6046L6.05605 0.541444C6.25294 0.205092 6.61117 0 6.99948 0ZM6.99948 3.50024C6.63578 3.50024 6.34318 3.79284 6.34318 4.15654V7.21925C6.34318 7.58295 6.63578 7.87555 6.99948 7.87555Cnan nan 7.65577 7.58295 7.65577 7.21925V4.15654C7.65577 3.79284 7.36318 3.50024 6.99948 3.50024ZM7.87454 9.62567C7.87454 9.14271 7.48244 8.75061 6.99948 8.75061C6.51652 8.75061 6.12442 9.14271 6.12442 9.62567C6.12442 10.1086 6.51652 10.5007 6.99948 10.5007C7.48244 10.5007 7.87454 10.1086 7.87454 9.62567Z" fill="#F59E0B"/>
</svg>
