<svg width="14" height="14" viewBox="0 0 14 14" fill="none" xmlns="http://www.w3.org/2000/svg">
<path d="M13.1614 4.55634C13.2489 4.79428 13.175 5.05956 12.9863 5.22913L11.8021 6.30668C11.8322 6.53367 11.8486 6.76614 11.8486 7.00134C11.8486 7.23654 11.8322 7.46901 11.8021 7.69601L12.9863 8.77356C13.175 8.94312 13.2489 9.20841 13.1614 9.44634C13.041 9.7718 12.8961 10.0836 12.7293 10.3844L12.6007 10.6059C12.4202 10.9068 12.2178 11.1912 11.9963 11.4592C11.8349 11.6561 11.5669 11.7218 11.3263 11.6452L9.80291 11.1611C9.43644 11.4428 9.03167 11.678 8.59956 11.8558L8.25769 13.4174C8.203 13.6663 8.01155 13.8632 7.75994 13.9042C7.38253 13.9671 6.99417 14 6.59761 14C6.20105 14 5.81269 13.9671 5.43528 13.9042C5.18367 13.8632 4.99222 13.6663 4.93753 13.4174L4.59566 11.8558C4.16355 11.678 3.75878 11.4428 3.39231 11.1611L1.8717 11.6479C1.63103 11.7245 1.36301 11.6561 1.20165 11.462C0.980127 11.1939 0.777744 10.9095 0.597241 10.6087L0.4687 10.3871C0.301872 10.0863 0.156922 9.77453 0.0365863 9.44908C-0.0509305 9.21114 0.0229118 8.94586 0.21162 8.77629L1.39583 7.69874C1.36575 7.46901 1.34934 7.23654 1.34934 7.00134C1.34934 6.76614 1.36575 6.53367 1.39583 6.30668L0.21162 5.22913C0.0229118 5.05956 -0.0509305 4.79428 0.0365863 4.55634C0.156922 4.23089 0.301872 3.91911 0.4687 3.61827L0.597241 3.39675C0.777744 3.09591 0.980127 2.81148 1.20165 2.54346C1.36301 2.34654 1.63103 2.28091 1.8717 2.35748L3.39504 2.84156C3.76152 2.55987 4.16629 2.32466 4.5984 2.1469L4.94026 0.585269C4.99496 0.336393 5.1864 0.13948 5.43801 0.0984564C5.81543 0.0328188 6.20378 0 6.60035 0C6.99691 0 7.38526 0.0328188 7.76268 0.0957215C8.01429 0.136745 8.20573 0.333658 8.26043 0.582534L8.60229 2.14416C9.03441 2.32193 9.43917 2.55713 9.80565 2.83883L11.329 2.35475C11.5697 2.27817 11.8377 2.34654 11.999 2.54072C12.2206 2.80874 12.4229 3.09317 12.6034 3.39401L12.732 3.61554C12.8988 3.91638 13.0438 4.22815 13.1641 4.55361L13.1614 4.55634ZM6.60035 9.18926C7.80789 9.18926 8.78826 8.20889 8.78826 7.00134C8.78826 5.7938 7.80789 4.81342 6.60035 4.81342C5.3928 4.81342 4.41243 5.7938 4.41243 7.00134C4.41243 8.20889 5.3928 9.18926 6.60035 9.18926Z" fill="#374151"/>
</svg>
