<svg width="20" height="20" viewBox="0 0 20 20" fill="none" xmlns="http://www.w3.org/2000/svg">
<path d="M0 10C0 4.48085 4.48085 0 10 0C15.5191 0 20 4.48085 20 10C20 15.5191 15.5191 20 10 20C4.48085 20 0 15.5191 0 10ZM11.25 3.75C11.25 3.06011 10.6899 2.5 10 2.5C9.31011 2.5 8.75 3.06011 8.75 3.75C8.75 4.43989 9.31011 5 10 5C10.6899 5 11.25 4.43989 11.25 3.75ZM10 16.25C11.3789 16.25 12.5 15.1289 12.5 13.75C12.5 13.0703 12.2305 12.457 11.793 12.0078L14.2969 6.31641C14.5039 5.84375 14.2891 5.28906 13.8164 5.08203Cnan nan 12.7891 5.08984 12.582 5.5625L10.0742 11.25C10.0508 11.25 10.0234 11.25 10 11.25C8.62109 11.25 7.5 12.3711 7.5 13.75Cnan nan 8.62109 16.25 10 16.25ZM6.875 5.625C6.875 4.93511 6.31489 4.375 5.625 4.375C4.93511 4.375 4.375 4.93511 4.375 5.625C4.375 6.31489 4.93511 6.875 5.625 6.875C6.31489 6.875 6.875 6.31489 6.875 5.625ZM3.75 11.25C4.43989 11.25 5 10.6899 5 10C5 9.31011 4.43989 8.75 3.75 8.75C3.06011 8.75 2.5 9.31011 2.5 10C2.5 10.6899 3.06011 11.25 3.75 11.25ZM17.5 10C17.5 9.31011 16.9399 8.75 16.25 8.75C15.5601 8.75 15 9.31011 15 10C15 10.6899 15.5601 11.25 16.25 11.25C16.9399 11.25 17.5 10.6899 17.5 10Z" fill="#F59E0B"/>
</svg>
