<svg width="218" height="32" viewBox="0 0 218 32" fill="none" xmlns="http://www.w3.org/2000/svg">
<path d="M20 3H218V32H20V3Z" fill="white"/>
<mask id="mask0_17_12769" style="mask-type:luminance" maskUnits="userSpaceOnUse" x="20" y="3" width="198" height="29">
<path d="M20 3H218V32H20V3Z" fill="white"/>
</mask>
<g mask="url(#mask0_17_12769)">
<path d="M64.6406 14.8521C63.7266 14.8521 63.0156 15.146 62.5078 15.7339C62 16.3218 61.7461 17.1274 61.7461 18.1509C61.7461 19.1626 62.0107 19.9761 62.54 20.5913C63.0693 21.2065 63.7852 21.5142 64.6875 21.5142C65.8438 21.5142 66.7129 20.9419 67.2949 19.7974L68.209 20.2544C67.8691 20.9653 67.3916 21.5063 66.7764 21.8774C66.1611 22.2485 65.4473 22.4341 64.6348 22.4341C63.8027 22.4341 63.083 22.2612 62.4756 21.9155C61.8682 21.5698 61.4053 21.0757 61.0869 20.4331C60.7686 19.7905 60.6094 19.0298 60.6094 18.1509C60.6094 16.8345 60.9648 15.8032 61.6758 15.0571C62.3867 14.311 63.3711 13.938 64.6289 13.938C65.5078 13.938 66.2422 14.1099 66.832 14.4536C67.4219 14.7974 67.8555 15.3071 68.1328 15.9829L67.0723 16.3345C66.8809 15.854 66.5732 15.4868 66.1494 15.2329C65.7256 14.979 65.2227 14.8521 64.6406 14.8521ZM71.0918 22.4341C70.4551 22.4341 69.9766 22.2661 69.6562 21.9302C69.3359 21.5942 69.1758 21.1333 69.1758 20.5474C69.1758 19.8911 69.3916 19.3872 69.8232 19.0356C70.2549 18.6841 70.9512 18.4966 71.9121 18.4731L73.3359 18.4497V18.104C73.3359 17.5884 73.2266 17.2192 73.0078 16.9966C72.7891 16.7739 72.4453 16.6626 71.9766 16.6626C71.5039 16.6626 71.1602 16.7427 70.9453 16.9028C70.7305 17.063 70.6016 17.3188 70.5586 17.6704L69.457 17.5708C69.6367 16.4302 70.4844 15.8599 72 15.8599C72.7969 15.8599 73.3965 16.0425 73.7988 16.4077C74.2012 16.7729 74.4023 17.3013 74.4023 17.9927V20.7231C74.4023 21.0356 74.4434 21.271 74.5254 21.4292C74.6074 21.5874 74.7637 21.6665 74.9941 21.6665C75.0957 21.6665 75.2109 21.6528 75.3398 21.6255V22.2817C75.0742 22.3442 74.8027 22.3755 74.5254 22.3755C74.1348 22.3755 73.8506 22.2729 73.6729 22.0679C73.4951 21.8628 73.3945 21.5415 73.3711 21.104H73.3359C73.0664 21.5884 72.7529 21.9312 72.3955 22.1323C72.0381 22.3335 71.6035 22.4341 71.0918 22.4341ZM71.332 21.6431C71.7188 21.6431 72.0625 21.5552 72.3633 21.3794C72.6641 21.2036 72.9014 20.9624 73.0752 20.6558C73.249 20.3491 73.3359 20.0337 73.3359 19.7095V19.188L72.1816 19.2114C71.6855 19.2192 71.3096 19.27 71.0537 19.3638C70.7979 19.4575 70.6016 19.6021 70.4648 19.7974C70.3281 19.9927 70.2598 20.2485 70.2598 20.5649C70.2598 20.9087 70.3525 21.1743 70.5381 21.3618C70.7236 21.5493 70.9883 21.6431 71.332 21.6431ZM81.5098 19.1177C81.5098 21.3286 80.7324 22.4341 79.1777 22.4341C78.2012 22.4341 77.5449 22.0669 77.209 21.3325H77.1797C77.1953 21.3638 77.2031 21.6958 77.2031 22.3286V24.8071H76.1484V17.272C76.1484 16.6196 76.1367 16.188 76.1133 15.9771H77.1328C77.1367 15.9927 77.1426 16.0483 77.1504 16.144C77.1582 16.2397 77.167 16.3872 77.1768 16.5864C77.1865 16.7856 77.1914 16.9224 77.1914 16.9966H77.2148C77.4023 16.606 77.6504 16.3198 77.959 16.1382C78.2676 15.9565 78.6738 15.8657 79.1777 15.8657C79.959 15.8657 80.543 16.1274 80.9297 16.6509C81.3164 17.1743 81.5098 17.9966 81.5098 19.1177ZM80.4023 19.1411C80.4023 18.2583 80.2832 17.6274 80.0449 17.2485C79.8066 16.8696 79.4277 16.6802 78.9082 16.6802C78.4902 16.6802 78.1631 16.7681 77.9268 16.9438C77.6904 17.1196 77.5107 17.394 77.3877 17.7671C77.2646 18.1401 77.2031 18.6255 77.2031 19.2231C77.2031 20.0552 77.3359 20.6685 77.6016 21.063C77.8672 21.4575 78.2988 21.6548 78.8965 21.6548C79.4199 21.6548 79.8018 21.4624 80.042 21.0776C80.2822 20.6929 80.4023 20.0474 80.4023 19.1411ZM84.4395 22.4341C83.8027 22.4341 83.3242 22.2661 83.0039 21.9302C82.6836 21.5942 82.5234 21.1333 82.5234 20.5474C82.5234 19.8911 82.7393 19.3872 83.1709 19.0356C83.6025 18.6841 84.2988 18.4966 85.2598 18.4731L86.6836 18.4497V18.104C86.6836 17.5884 86.5742 17.2192 86.3555 16.9966C86.1367 16.7739 85.793 16.6626 85.3242 16.6626C84.8516 16.6626 84.5078 16.7427 84.293 16.9028C84.0781 17.063 83.9492 17.3188 83.9062 17.6704L82.8047 17.5708C82.9844 16.4302 83.832 15.8599 85.3477 15.8599C86.1445 15.8599 86.7441 16.0425 87.1465 16.4077C87.5488 16.7729 87.75 17.3013 87.75 17.9927V20.7231C87.75 21.0356 87.791 21.271 87.873 21.4292C87.9551 21.5874 88.1113 21.6665 88.3418 21.6665C88.4434 21.6665 88.5586 21.6528 88.6875 21.6255V22.2817C88.4219 22.3442 88.1504 22.3755 87.873 22.3755C87.4824 22.3755 87.1982 22.2729 87.0205 22.0679C86.8428 21.8628 86.7422 21.5415 86.7188 21.104H86.6836C86.4141 21.5884 86.1006 21.9312 85.7432 22.1323C85.3857 22.3335 84.9512 22.4341 84.4395 22.4341ZM84.6797 21.6431C85.0664 21.6431 85.4102 21.5552 85.7109 21.3794C86.0117 21.2036 86.249 20.9624 86.4229 20.6558C86.5967 20.3491 86.6836 20.0337 86.6836 19.7095V19.188L85.5293 19.2114C85.0332 19.2192 84.6572 19.27 84.4014 19.3638C84.1455 19.4575 83.9492 19.6021 83.8125 19.7974C83.6758 19.9927 83.6074 20.2485 83.6074 20.5649C83.6074 20.9087 83.7002 21.1743 83.8857 21.3618C84.0713 21.5493 84.3359 21.6431 84.6797 21.6431ZM90.2988 19.1177C90.2988 19.9614 90.4316 20.5864 90.6973 20.9927C90.9629 21.3989 91.3633 21.6021 91.8984 21.6021C92.2734 21.6021 92.5869 21.5005 92.8389 21.2974C93.0908 21.0942 93.2461 20.7817 93.3047 20.3599L94.3711 20.4302C94.2891 21.0396 94.0293 21.5259 93.5918 21.8892C93.1543 22.2524 92.5996 22.4341 91.9277 22.4341C91.041 22.4341 90.3643 22.1538 89.8975 21.5933C89.4307 21.0327 89.1973 20.2153 89.1973 19.1411C89.1973 18.0747 89.4316 17.2612 89.9004 16.7007C90.3691 16.1401 91.041 15.8599 91.916 15.8599C92.5645 15.8599 93.1025 16.0278 93.5303 16.3638C93.958 16.6997 94.2266 17.1626 94.3359 17.7524L93.252 17.8345C93.1973 17.4829 93.0586 17.2036 92.8359 16.9966C92.6133 16.7896 92.2969 16.686 91.8867 16.686C91.3281 16.686 90.9238 16.8716 90.6738 17.2427C90.4238 17.6138 90.2988 18.2388 90.2988 19.1177ZM95.4902 14.6294V13.6216H96.5449V14.6294H95.4902ZM95.4902 22.3169V15.9771H96.5449V22.3169H95.4902ZM100.6 22.27C100.252 22.3638 99.8965 22.4106 99.5332 22.4106C98.6895 22.4106 98.2676 21.9321 98.2676 20.9751V16.7446H97.5352V15.9771H98.3086L98.6191 14.5591H99.3223V15.9771H100.494V16.7446H99.3223V20.7466C99.3223 21.0513 99.3721 21.2651 99.4717 21.3882C99.5713 21.5112 99.7441 21.5728 99.9902 21.5728C100.131 21.5728 100.334 21.5454 100.6 21.4907V22.27ZM101.807 24.8071C101.518 24.8071 101.275 24.7856 101.08 24.7427V23.9517C101.229 23.9751 101.393 23.9868 101.572 23.9868C102.229 23.9868 102.748 23.5044 103.131 22.5396L103.23 22.2876L100.717 15.9771H101.842L103.178 19.481C103.197 19.5356 103.221 19.6011 103.248 19.6772C103.275 19.7534 103.363 20.0083 103.512 20.4419C103.66 20.8755 103.74 21.1177 103.752 21.1685L104.162 20.0142L105.551 15.9771H106.664L104.227 22.3169C103.965 22.9927 103.721 23.4956 103.494 23.8257C103.268 24.1558 103.017 24.4019 102.741 24.564C102.466 24.7261 102.154 24.8071 101.807 24.8071Z" fill="#444444"/>
<path d="M46 23.5H34V11.5H46V23.5Z" fill="#E2E8F0"/>
<path d="M158.525 22.3169L157.582 19.9028H153.82L152.871 22.3169H151.711L155.08 14.061H156.352L159.668 22.3169H158.525ZM155.701 14.9048L155.648 15.0688C155.551 15.3931 155.406 15.8091 155.215 16.3169L154.16 19.0298H157.248L156.188 16.3052C156.078 16.0356 155.969 15.731 155.859 15.3911L155.701 14.9048ZM162.938 22.27C162.59 22.3638 162.234 22.4106 161.871 22.4106C161.027 22.4106 160.605 21.9321 160.605 20.9751V16.7446H159.873V15.9771H160.646L160.957 14.5591H161.66V15.9771H162.832V16.7446H161.66V20.7466C161.66 21.0513 161.71 21.2651 161.81 21.3882C161.909 21.5112 162.082 21.5728 162.328 21.5728C162.469 21.5728 162.672 21.5454 162.938 21.4907V22.27ZM166.271 22.27C165.924 22.3638 165.568 22.4106 165.205 22.4106C164.361 22.4106 163.939 21.9321 163.939 20.9751V16.7446H163.207V15.9771H163.98L164.291 14.5591H164.994V15.9771H166.166V16.7446H164.994V20.7466C164.994 21.0513 165.044 21.2651 165.144 21.3882C165.243 21.5112 165.416 21.5728 165.662 21.5728C165.803 21.5728 166.006 21.5454 166.271 21.4907V22.27ZM167.977 19.3696C167.977 20.0962 168.127 20.6567 168.428 21.0513C168.729 21.4458 169.168 21.6431 169.746 21.6431C170.203 21.6431 170.569 21.5513 170.845 21.3677C171.12 21.1841 171.307 20.9517 171.404 20.6704L172.33 20.9341C171.951 21.9341 171.09 22.4341 169.746 22.4341C168.809 22.4341 168.095 22.1548 167.604 21.5962C167.114 21.0376 166.869 20.2075 166.869 19.106C166.869 18.0591 167.114 17.2563 167.604 16.6978C168.095 16.1392 168.795 15.8599 169.705 15.8599C171.568 15.8599 172.5 16.9829 172.5 19.229V19.3696H167.977ZM171.41 18.561C171.352 17.8931 171.182 17.4058 170.9 17.0991C170.619 16.7925 170.215 16.6392 169.688 16.6392C169.176 16.6392 168.771 16.8101 168.472 17.1519C168.173 17.4937 168.012 17.9634 167.988 18.561H171.41ZM177.867 22.3169V18.2974C177.867 17.8794 177.826 17.5552 177.744 17.3247C177.662 17.0942 177.531 16.9282 177.352 16.8267C177.172 16.7251 176.908 16.6743 176.561 16.6743C176.053 16.6743 175.652 16.8481 175.359 17.1958C175.066 17.5435 174.92 18.0259 174.92 18.6431V22.3169H173.865V17.3306C173.865 16.5923 173.854 16.1411 173.83 15.9771H174.826C174.83 15.9966 174.834 16.0493 174.838 16.1353C174.842 16.2212 174.847 16.3198 174.853 16.4312C174.858 16.5425 174.865 16.7524 174.873 17.061H174.891C175.133 16.6235 175.413 16.314 175.731 16.1323C176.05 15.9507 176.445 15.8599 176.918 15.8599C177.613 15.8599 178.122 16.0327 178.444 16.3784C178.767 16.7241 178.928 17.2954 178.928 18.0923V22.3169H177.867ZM184.518 21.2974C184.322 21.7036 184.063 21.9946 183.741 22.1704C183.419 22.3462 183.02 22.4341 182.543 22.4341C181.742 22.4341 181.153 22.1646 180.776 21.6255C180.399 21.0864 180.211 20.27 180.211 19.1763C180.211 16.9653 180.988 15.8599 182.543 15.8599C183.023 15.8599 183.424 15.9478 183.744 16.1235C184.064 16.2993 184.322 16.5786 184.518 16.9614H184.529L184.518 16.2524V13.6216H185.572V21.0103C185.572 21.6704 185.584 22.106 185.607 22.3169H184.6C184.588 22.2544 184.575 22.1099 184.562 21.8833C184.548 21.6567 184.541 21.4614 184.541 21.2974H184.518ZM181.318 19.1411C181.318 20.0278 181.436 20.6626 181.67 21.0454C181.904 21.4282 182.285 21.6196 182.812 21.6196C183.41 21.6196 183.844 21.4126 184.113 20.9985C184.383 20.5845 184.518 19.9419 184.518 19.0708C184.518 18.231 184.383 17.6157 184.113 17.2251C183.844 16.8345 183.414 16.6392 182.824 16.6392C182.293 16.6392 181.909 16.8354 181.673 17.228C181.437 17.6206 181.318 18.2583 181.318 19.1411ZM188.807 22.4341C188.17 22.4341 187.691 22.2661 187.371 21.9302C187.051 21.5942 186.891 21.1333 186.891 20.5474C186.891 19.8911 187.106 19.3872 187.538 19.0356C187.97 18.6841 188.666 18.4966 189.627 18.4731L191.051 18.4497V18.104C191.051 17.5884 190.941 17.2192 190.723 16.9966C190.504 16.7739 190.16 16.6626 189.691 16.6626C189.219 16.6626 188.875 16.7427 188.66 16.9028C188.445 17.063 188.316 17.3188 188.273 17.6704L187.172 17.5708C187.352 16.4302 188.199 15.8599 189.715 15.8599C190.512 15.8599 191.111 16.0425 191.514 16.4077C191.916 16.7729 192.117 17.3013 192.117 17.9927V20.7231C192.117 21.0356 192.158 21.271 192.24 21.4292C192.322 21.5874 192.479 21.6665 192.709 21.6665C192.811 21.6665 192.926 21.6528 193.055 21.6255V22.2817C192.789 22.3442 192.518 22.3755 192.24 22.3755C191.85 22.3755 191.565 22.2729 191.388 22.0679C191.21 21.8628 191.109 21.5415 191.086 21.104H191.051C190.781 21.5884 190.468 21.9312 190.11 22.1323C189.753 22.3335 189.318 22.4341 188.807 22.4341ZM189.047 21.6431C189.434 21.6431 189.777 21.5552 190.078 21.3794C190.379 21.2036 190.616 20.9624 190.79 20.6558C190.964 20.3491 191.051 20.0337 191.051 19.7095V19.188L189.896 19.2114C189.4 19.2192 189.024 19.27 188.769 19.3638C188.513 19.4575 188.316 19.6021 188.18 19.7974C188.043 19.9927 187.975 20.2485 187.975 20.5649C187.975 20.9087 188.067 21.1743 188.253 21.3618C188.438 21.5493 188.703 21.6431 189.047 21.6431ZM197.889 22.3169V18.2974C197.889 17.8794 197.848 17.5552 197.766 17.3247C197.684 17.0942 197.553 16.9282 197.373 16.8267C197.193 16.7251 196.93 16.6743 196.582 16.6743C196.074 16.6743 195.674 16.8481 195.381 17.1958C195.088 17.5435 194.941 18.0259 194.941 18.6431V22.3169H193.887V17.3306C193.887 16.5923 193.875 16.1411 193.852 15.9771H194.848C194.852 15.9966 194.855 16.0493 194.859 16.1353C194.863 16.2212 194.868 16.3198 194.874 16.4312C194.88 16.5425 194.887 16.7524 194.895 17.061H194.912C195.154 16.6235 195.435 16.314 195.753 16.1323C196.071 15.9507 196.467 15.8599 196.939 15.8599C197.635 15.8599 198.144 16.0327 198.466 16.3784C198.788 16.7241 198.949 17.2954 198.949 18.0923V22.3169H197.889ZM201.34 19.1177C201.34 19.9614 201.473 20.5864 201.738 20.9927C202.004 21.3989 202.404 21.6021 202.939 21.6021C203.314 21.6021 203.628 21.5005 203.88 21.2974C204.132 21.0942 204.287 20.7817 204.346 20.3599L205.412 20.4302C205.33 21.0396 205.07 21.5259 204.633 21.8892C204.195 22.2524 203.641 22.4341 202.969 22.4341C202.082 22.4341 201.405 22.1538 200.938 21.5933C200.472 21.0327 200.238 20.2153 200.238 19.1411C200.238 18.0747 200.473 17.2612 200.941 16.7007C201.41 16.1401 202.082 15.8599 202.957 15.8599C203.605 15.8599 204.144 16.0278 204.571 16.3638C204.999 16.6997 205.268 17.1626 205.377 17.7524L204.293 17.8345C204.238 17.4829 204.1 17.2036 203.877 16.9966C203.654 16.7896 203.338 16.686 202.928 16.686C202.369 16.686 201.965 16.8716 201.715 17.2427C201.465 17.6138 201.34 18.2388 201.34 19.1177ZM207.346 19.3696C207.346 20.0962 207.496 20.6567 207.797 21.0513C208.098 21.4458 208.537 21.6431 209.115 21.6431C209.572 21.6431 209.938 21.5513 210.214 21.3677C210.489 21.1841 210.676 20.9517 210.773 20.6704L211.699 20.9341C211.32 21.9341 210.459 22.4341 209.115 22.4341C208.178 22.4341 207.464 22.1548 206.974 21.5962C206.483 21.0376 206.238 20.2075 206.238 19.106C206.238 18.0591 206.483 17.2563 206.974 16.6978C207.464 16.1392 208.164 15.8599 209.074 15.8599C210.938 15.8599 211.869 16.9829 211.869 19.229V19.3696H207.346ZM210.779 18.561C210.721 17.8931 210.551 17.4058 210.27 17.0991C209.988 16.7925 209.584 16.6392 209.057 16.6392C208.545 16.6392 208.14 16.8101 207.841 17.1519C207.542 17.4937 207.381 17.9634 207.357 18.561H210.779Z" fill="#444444"/>
<path d="M137.688 23.5H125.688V11.5H137.688V23.5Z" fill="#3B82F6"/>
</g>
<path d="M40 3H0C11.0383 3 20 4.34425 20 6V0C20 1.65575 11.0383 3 0 3H40C28.9617 3 20 1.65575 20 0V6C20 4.34425 28.9617 3 40 3Z" fill="#808BA4"/>
</svg>
