<svg width="4" height="14" viewBox="0 0 4 14" fill="none" xmlns="http://www.w3.org/2000/svg">
<path d="M1.81481 10.3704C0.813191 10.3704 0 11.1836 0 12.1852C0 13.1868 0.813191 14 1.81481 14C2.81644 14 3.62963 13.1868 3.62963 12.1852C3.62963 11.1836 2.81644 10.3704 1.81481 10.3704ZM1.81481 5.18519C0.813191 5.18519 0 5.99838 0 7C0 8.00162 0.813191 8.81481 1.81481 8.81481C2.81644 8.81481 3.62963 8.00162 3.62963 7C3.62963 5.99838 2.81644 5.18519 1.81481 5.18519ZM3.62963 1.81481C3.62963 0.813191 2.81644 0 1.81481 0C0.813191 0 0 0.813191 0 1.81481C0 2.81644 0.813191 3.62963 1.81481 3.62963C2.81644 3.62963 3.62963 2.81644 3.62963 1.81481Z" fill="#3B82F6"/>
</svg>
