<svg width="425" height="32" viewBox="0 0 425 32" fill="none" xmlns="http://www.w3.org/2000/svg">
<path d="M20 3H425V32H20V3Z" fill="white"/>
<mask id="mask0_17_12686" style="mask-type:luminance" maskUnits="userSpaceOnUse" x="20" y="3" width="405" height="29">
<path d="M20 3H425V32H20V3Z" fill="white"/>
</mask>
<g mask="url(#mask0_17_12686)">
<path d="M67.4531 20.0376C67.4531 20.7993 67.1553 21.3892 66.5596 21.8071C65.9639 22.2251 65.125 22.4341 64.043 22.4341C62.0312 22.4341 60.8652 21.7349 60.5449 20.3364L61.6289 20.1196C61.7539 20.6157 62.0195 20.98 62.4258 21.2124C62.832 21.4448 63.3848 21.561 64.084 21.561C64.8066 21.561 65.3643 21.437 65.7568 21.189C66.1494 20.9409 66.3457 20.5767 66.3457 20.0962C66.3457 19.8267 66.2842 19.6079 66.1611 19.4399C66.0381 19.272 65.8652 19.1333 65.6426 19.0239C65.4199 18.9146 65.1543 18.8228 64.8457 18.7485C64.5371 18.6743 64.1953 18.5942 63.8203 18.5083C63.168 18.3638 62.6729 18.2192 62.335 18.0747C61.9971 17.9302 61.7305 17.769 61.5352 17.5913C61.3398 17.4136 61.1904 17.2056 61.0869 16.9673C60.9834 16.729 60.9316 16.4556 60.9316 16.147C60.9316 15.4399 61.2021 14.895 61.7432 14.5122C62.2842 14.1294 63.0586 13.938 64.0664 13.938C65.0039 13.938 65.7207 14.0815 66.2168 14.3687C66.7129 14.6558 67.0605 15.145 67.2598 15.8364L66.1582 16.0298C66.0371 15.5923 65.8066 15.2749 65.4668 15.0776C65.127 14.8804 64.6562 14.7817 64.0547 14.7817C63.3945 14.7817 62.8906 14.8911 62.543 15.1099C62.1953 15.3286 62.0215 15.6548 62.0215 16.0884C62.0215 16.3423 62.0889 16.5522 62.2236 16.7183C62.3584 16.8843 62.5527 17.0249 62.8066 17.1401C63.0605 17.2554 63.5664 17.397 64.3242 17.5649C64.5781 17.6235 64.8311 17.6831 65.083 17.7437C65.335 17.8042 65.5762 17.8765 65.8066 17.9604C66.0371 18.0444 66.2529 18.1431 66.4541 18.2563C66.6553 18.3696 66.8301 18.5083 66.9785 18.6724C67.127 18.8364 67.2432 19.0298 67.3271 19.2524C67.4111 19.4751 67.4531 19.7368 67.4531 20.0376ZM71.25 22.27C70.9023 22.3638 70.5469 22.4106 70.1836 22.4106C69.3398 22.4106 68.918 21.9321 68.918 20.9751V16.7446H68.1855V15.9771H68.959L69.2695 14.5591H69.9727V15.9771H71.1445V16.7446H69.9727V20.7466C69.9727 21.0513 70.0225 21.2651 70.1221 21.3882C70.2217 21.5112 70.3945 21.5728 70.6406 21.5728C70.7812 21.5728 70.9844 21.5454 71.25 21.4907V22.27ZM73.7637 22.4341C73.127 22.4341 72.6484 22.2661 72.3281 21.9302C72.0078 21.5942 71.8477 21.1333 71.8477 20.5474C71.8477 19.8911 72.0635 19.3872 72.4951 19.0356C72.9268 18.6841 73.623 18.4966 74.584 18.4731L76.0078 18.4497V18.104C76.0078 17.5884 75.8984 17.2192 75.6797 16.9966C75.4609 16.7739 75.1172 16.6626 74.6484 16.6626C74.1758 16.6626 73.832 16.7427 73.6172 16.9028C73.4023 17.063 73.2734 17.3188 73.2305 17.6704L72.1289 17.5708C72.3086 16.4302 73.1562 15.8599 74.6719 15.8599C75.4688 15.8599 76.0684 16.0425 76.4707 16.4077C76.873 16.7729 77.0742 17.3013 77.0742 17.9927V20.7231C77.0742 21.0356 77.1152 21.271 77.1973 21.4292C77.2793 21.5874 77.4355 21.6665 77.666 21.6665C77.7676 21.6665 77.8828 21.6528 78.0117 21.6255V22.2817C77.7461 22.3442 77.4746 22.3755 77.1973 22.3755C76.8066 22.3755 76.5225 22.2729 76.3447 22.0679C76.167 21.8628 76.0664 21.5415 76.043 21.104H76.0078C75.7383 21.5884 75.4248 21.9312 75.0674 22.1323C74.71 22.3335 74.2754 22.4341 73.7637 22.4341ZM74.0039 21.6431C74.3906 21.6431 74.7344 21.5552 75.0352 21.3794C75.3359 21.2036 75.5732 20.9624 75.7471 20.6558C75.9209 20.3491 76.0078 20.0337 76.0078 19.7095V19.188L74.8535 19.2114C74.3574 19.2192 73.9814 19.27 73.7256 19.3638C73.4697 19.4575 73.2734 19.6021 73.1367 19.7974C73 19.9927 72.9316 20.2485 72.9316 20.5649C72.9316 20.9087 73.0244 21.1743 73.21 21.3618C73.3955 21.5493 73.6602 21.6431 74.0039 21.6431ZM82.8457 22.3169V18.2974C82.8457 17.8794 82.8047 17.5552 82.7227 17.3247C82.6406 17.0942 82.5098 16.9282 82.3301 16.8267C82.1504 16.7251 81.8867 16.6743 81.5391 16.6743C81.0312 16.6743 80.6309 16.8481 80.3379 17.1958C80.0449 17.5435 79.8984 18.0259 79.8984 18.6431V22.3169H78.8438V17.3306C78.8438 16.5923 78.832 16.1411 78.8086 15.9771H79.8047C79.8086 15.9966 79.8125 16.0493 79.8164 16.1353C79.8203 16.2212 79.8252 16.3198 79.8311 16.4312C79.8369 16.5425 79.8438 16.7524 79.8516 17.061H79.8691C80.1113 16.6235 80.3916 16.314 80.71 16.1323C81.0283 15.9507 81.4238 15.8599 81.8965 15.8599C82.5918 15.8599 83.1006 16.0327 83.4229 16.3784C83.7451 16.7241 83.9062 17.2954 83.9062 18.0923V22.3169H82.8457ZM89.4961 21.2974C89.3008 21.7036 89.042 21.9946 88.7197 22.1704C88.3975 22.3462 87.998 22.4341 87.5215 22.4341C86.7207 22.4341 86.1318 22.1646 85.7549 21.6255C85.3779 21.0864 85.1895 20.27 85.1895 19.1763C85.1895 16.9653 85.9668 15.8599 87.5215 15.8599C88.002 15.8599 88.4023 15.9478 88.7227 16.1235C89.043 16.2993 89.3008 16.5786 89.4961 16.9614H89.5078L89.4961 16.2524V13.6216H90.5508V21.0103C90.5508 21.6704 90.5625 22.106 90.5859 22.3169H89.5781C89.5664 22.2544 89.5537 22.1099 89.54 21.8833C89.5264 21.6567 89.5195 21.4614 89.5195 21.2974H89.4961ZM86.2969 19.1411C86.2969 20.0278 86.4141 20.6626 86.6484 21.0454C86.8828 21.4282 87.2637 21.6196 87.791 21.6196C88.3887 21.6196 88.8223 21.4126 89.0918 20.9985C89.3613 20.5845 89.4961 19.9419 89.4961 19.0708C89.4961 18.231 89.3613 17.6157 89.0918 17.2251C88.8223 16.8345 88.3926 16.6392 87.8027 16.6392C87.2715 16.6392 86.8877 16.8354 86.6514 17.228C86.415 17.6206 86.2969 18.2583 86.2969 19.1411ZM93.7852 22.4341C93.1484 22.4341 92.6699 22.2661 92.3496 21.9302C92.0293 21.5942 91.8691 21.1333 91.8691 20.5474C91.8691 19.8911 92.085 19.3872 92.5166 19.0356C92.9482 18.6841 93.6445 18.4966 94.6055 18.4731L96.0293 18.4497V18.104C96.0293 17.5884 95.9199 17.2192 95.7012 16.9966C95.4824 16.7739 95.1387 16.6626 94.6699 16.6626C94.1973 16.6626 93.8535 16.7427 93.6387 16.9028C93.4238 17.063 93.2949 17.3188 93.252 17.6704L92.1504 17.5708C92.3301 16.4302 93.1777 15.8599 94.6934 15.8599C95.4902 15.8599 96.0898 16.0425 96.4922 16.4077C96.8945 16.7729 97.0957 17.3013 97.0957 17.9927V20.7231C97.0957 21.0356 97.1367 21.271 97.2188 21.4292C97.3008 21.5874 97.457 21.6665 97.6875 21.6665C97.7891 21.6665 97.9043 21.6528 98.0332 21.6255V22.2817C97.7676 22.3442 97.4961 22.3755 97.2188 22.3755C96.8281 22.3755 96.5439 22.2729 96.3662 22.0679C96.1885 21.8628 96.0879 21.5415 96.0645 21.104H96.0293C95.7598 21.5884 95.4463 21.9312 95.0889 22.1323C94.7314 22.3335 94.2969 22.4341 93.7852 22.4341ZM94.0254 21.6431C94.4121 21.6431 94.7559 21.5552 95.0566 21.3794C95.3574 21.2036 95.5947 20.9624 95.7686 20.6558C95.9424 20.3491 96.0293 20.0337 96.0293 19.7095V19.188L94.875 19.2114C94.3789 19.2192 94.0029 19.27 93.7471 19.3638C93.4912 19.4575 93.2949 19.6021 93.1582 19.7974C93.0215 19.9927 92.9531 20.2485 92.9531 20.5649C92.9531 20.9087 93.0459 21.1743 93.2314 21.3618C93.417 21.5493 93.6816 21.6431 94.0254 21.6431ZM98.8652 22.3169V17.4536C98.8652 17.0083 98.8535 16.5161 98.8301 15.9771H99.8262C99.8574 16.6958 99.873 17.1274 99.873 17.272H99.8965C100.064 16.729 100.258 16.3579 100.477 16.1587C100.695 15.9595 101.004 15.8599 101.402 15.8599C101.543 15.8599 101.686 15.8794 101.83 15.9185V16.8853C101.689 16.8462 101.502 16.8267 101.268 16.8267C100.83 16.8267 100.496 17.0151 100.266 17.3921C100.035 17.769 99.9199 18.3091 99.9199 19.0122V22.3169H98.8652ZM106.84 21.2974C106.645 21.7036 106.386 21.9946 106.063 22.1704C105.741 22.3462 105.342 22.4341 104.865 22.4341C104.064 22.4341 103.476 22.1646 103.099 21.6255C102.722 21.0864 102.533 20.27 102.533 19.1763C102.533 16.9653 103.311 15.8599 104.865 15.8599C105.346 15.8599 105.746 15.9478 106.066 16.1235C106.387 16.2993 106.645 16.5786 106.84 16.9614H106.852L106.84 16.2524V13.6216H107.895V21.0103C107.895 21.6704 107.906 22.106 107.93 22.3169H106.922C106.91 22.2544 106.897 22.1099 106.884 21.8833C106.87 21.6567 106.863 21.4614 106.863 21.2974H106.84ZM103.641 19.1411C103.641 20.0278 103.758 20.6626 103.992 21.0454C104.227 21.4282 104.607 21.6196 105.135 21.6196C105.732 21.6196 106.166 21.4126 106.436 20.9985C106.705 20.5845 106.84 19.9419 106.84 19.0708C106.84 18.231 106.705 17.6157 106.436 17.2251C106.166 16.8345 105.736 16.6392 105.146 16.6392C104.615 16.6392 104.231 16.8354 103.995 17.228C103.759 17.6206 103.641 18.2583 103.641 19.1411Z" fill="#444444"/>
<path d="M46 23.5H34V11.5H46V23.5Z" fill="#3B82F6"/>
<path d="M161.156 20.0376C161.156 20.7993 160.858 21.3892 160.263 21.8071C159.667 22.2251 158.828 22.4341 157.746 22.4341C155.734 22.4341 154.568 21.7349 154.248 20.3364L155.332 20.1196C155.457 20.6157 155.723 20.98 156.129 21.2124C156.535 21.4448 157.088 21.561 157.787 21.561C158.51 21.561 159.067 21.437 159.46 21.189C159.853 20.9409 160.049 20.5767 160.049 20.0962C160.049 19.8267 159.987 19.6079 159.864 19.4399C159.741 19.272 159.568 19.1333 159.346 19.0239C159.123 18.9146 158.857 18.8228 158.549 18.7485C158.24 18.6743 157.898 18.5942 157.523 18.5083C156.871 18.3638 156.376 18.2192 156.038 18.0747C155.7 17.9302 155.434 17.769 155.238 17.5913C155.043 17.4136 154.894 17.2056 154.79 16.9673C154.687 16.729 154.635 16.4556 154.635 16.147C154.635 15.4399 154.905 14.895 155.446 14.5122C155.987 14.1294 156.762 13.938 157.77 13.938C158.707 13.938 159.424 14.0815 159.92 14.3687C160.416 14.6558 160.764 15.145 160.963 15.8364L159.861 16.0298C159.74 15.5923 159.51 15.2749 159.17 15.0776C158.83 14.8804 158.359 14.7817 157.758 14.7817C157.098 14.7817 156.594 14.8911 156.246 15.1099C155.898 15.3286 155.725 15.6548 155.725 16.0884C155.725 16.3423 155.792 16.5522 155.927 16.7183C156.062 16.8843 156.256 17.0249 156.51 17.1401C156.764 17.2554 157.27 17.397 158.027 17.5649C158.281 17.6235 158.534 17.6831 158.786 17.7437C159.038 17.8042 159.279 17.8765 159.51 17.9604C159.74 18.0444 159.956 18.1431 160.157 18.2563C160.358 18.3696 160.533 18.5083 160.682 18.6724C160.83 18.8364 160.946 19.0298 161.03 19.2524C161.114 19.4751 161.156 19.7368 161.156 20.0376ZM164.953 22.27C164.605 22.3638 164.25 22.4106 163.887 22.4106C163.043 22.4106 162.621 21.9321 162.621 20.9751V16.7446H161.889V15.9771H162.662L162.973 14.5591H163.676V15.9771H164.848V16.7446H163.676V20.7466C163.676 21.0513 163.726 21.2651 163.825 21.3882C163.925 21.5112 164.098 21.5728 164.344 21.5728C164.484 21.5728 164.688 21.5454 164.953 21.4907V22.27ZM166.881 15.9771V19.9966C166.881 20.4146 166.922 20.7388 167.004 20.9692C167.086 21.1997 167.217 21.3657 167.396 21.4673C167.576 21.5688 167.84 21.6196 168.188 21.6196C168.695 21.6196 169.096 21.4458 169.389 21.0981C169.682 20.7505 169.828 20.2681 169.828 19.6509V15.9771H170.883V20.9634C170.883 21.7017 170.895 22.1528 170.918 22.3169H169.922C169.918 22.2974 169.914 22.2446 169.91 22.1587C169.906 22.0728 169.901 21.9741 169.896 21.8628C169.89 21.7515 169.883 21.5415 169.875 21.2329H169.857C169.615 21.6704 169.335 21.98 169.017 22.1616C168.698 22.3433 168.303 22.4341 167.83 22.4341C167.135 22.4341 166.626 22.2612 166.304 21.9155C165.981 21.5698 165.82 20.9985 165.82 20.2017V15.9771H166.881ZM176.525 21.2974C176.33 21.7036 176.071 21.9946 175.749 22.1704C175.427 22.3462 175.027 22.4341 174.551 22.4341C173.75 22.4341 173.161 22.1646 172.784 21.6255C172.407 21.0864 172.219 20.27 172.219 19.1763C172.219 16.9653 172.996 15.8599 174.551 15.8599C175.031 15.8599 175.432 15.9478 175.752 16.1235C176.072 16.2993 176.33 16.5786 176.525 16.9614H176.537L176.525 16.2524V13.6216H177.58V21.0103C177.58 21.6704 177.592 22.106 177.615 22.3169H176.607C176.596 22.2544 176.583 22.1099 176.569 21.8833C176.556 21.6567 176.549 21.4614 176.549 21.2974H176.525ZM173.326 19.1411C173.326 20.0278 173.443 20.6626 173.678 21.0454C173.912 21.4282 174.293 21.6196 174.82 21.6196C175.418 21.6196 175.852 21.4126 176.121 20.9985C176.391 20.5845 176.525 19.9419 176.525 19.0708C176.525 18.231 176.391 17.6157 176.121 17.2251C175.852 16.8345 175.422 16.6392 174.832 16.6392C174.301 16.6392 173.917 16.8354 173.681 17.228C173.444 17.6206 173.326 18.2583 173.326 19.1411ZM180.006 19.3696C180.006 20.0962 180.156 20.6567 180.457 21.0513C180.758 21.4458 181.197 21.6431 181.775 21.6431C182.232 21.6431 182.599 21.5513 182.874 21.3677C183.149 21.1841 183.336 20.9517 183.434 20.6704L184.359 20.9341C183.98 21.9341 183.119 22.4341 181.775 22.4341C180.838 22.4341 180.124 22.1548 179.634 21.5962C179.144 21.0376 178.898 20.2075 178.898 19.106C178.898 18.0591 179.144 17.2563 179.634 16.6978C180.124 16.1392 180.824 15.8599 181.734 15.8599C183.598 15.8599 184.529 16.9829 184.529 19.229V19.3696H180.006ZM183.439 18.561C183.381 17.8931 183.211 17.4058 182.93 17.0991C182.648 16.7925 182.244 16.6392 181.717 16.6392C181.205 16.6392 180.8 16.8101 180.501 17.1519C180.202 17.4937 180.041 17.9634 180.018 18.561H183.439ZM189.896 22.3169V18.2974C189.896 17.8794 189.855 17.5552 189.773 17.3247C189.691 17.0942 189.561 16.9282 189.381 16.8267C189.201 16.7251 188.938 16.6743 188.59 16.6743C188.082 16.6743 187.682 16.8481 187.389 17.1958C187.096 17.5435 186.949 18.0259 186.949 18.6431V22.3169H185.895V17.3306C185.895 16.5923 185.883 16.1411 185.859 15.9771H186.855C186.859 15.9966 186.863 16.0493 186.867 16.1353C186.871 16.2212 186.876 16.3198 186.882 16.4312C186.888 16.5425 186.895 16.7524 186.902 17.061H186.92C187.162 16.6235 187.442 16.314 187.761 16.1323C188.079 15.9507 188.475 15.8599 188.947 15.8599C189.643 15.8599 190.151 16.0327 190.474 16.3784C190.796 16.7241 190.957 17.2954 190.957 18.0923V22.3169H189.896ZM194.982 22.27C194.635 22.3638 194.279 22.4106 193.916 22.4106C193.072 22.4106 192.65 21.9321 192.65 20.9751V16.7446H191.918V15.9771H192.691L193.002 14.5591H193.705V15.9771H194.877V16.7446H193.705V20.7466C193.705 21.0513 193.755 21.2651 193.854 21.3882C193.954 21.5112 194.127 21.5728 194.373 21.5728C194.514 21.5728 194.717 21.5454 194.982 21.4907V22.27Z" fill="#444444"/>
<path d="M139.703 23.5H127.703V11.5H139.703V23.5Z" fill="#10B981"/>
<path d="M248.189 20.0376C248.189 20.7993 247.891 21.3892 247.296 21.8071C246.7 22.2251 245.861 22.4341 244.779 22.4341C242.767 22.4341 241.601 21.7349 241.281 20.3364L242.365 20.1196C242.49 20.6157 242.756 20.98 243.162 21.2124C243.568 21.4448 244.121 21.561 244.82 21.561C245.543 21.561 246.1 21.437 246.493 21.189C246.885 20.9409 247.082 20.5767 247.082 20.0962C247.082 19.8267 247.02 19.6079 246.897 19.4399C246.774 19.272 246.601 19.1333 246.379 19.0239C246.156 18.9146 245.89 18.8228 245.582 18.7485C245.273 18.6743 244.931 18.5942 244.556 18.5083C243.904 18.3638 243.409 18.2192 243.071 18.0747C242.733 17.9302 242.467 17.769 242.271 17.5913C242.076 17.4136 241.927 17.2056 241.823 16.9673C241.719 16.729 241.668 16.4556 241.668 16.147C241.668 15.4399 241.938 14.895 242.479 14.5122C243.02 14.1294 243.795 13.938 244.802 13.938C245.74 13.938 246.457 14.0815 246.953 14.3687C247.449 14.6558 247.797 15.145 247.996 15.8364L246.894 16.0298C246.773 15.5923 246.543 15.2749 246.203 15.0776C245.863 14.8804 245.392 14.7817 244.791 14.7817C244.131 14.7817 243.627 14.8911 243.279 15.1099C242.931 15.3286 242.758 15.6548 242.758 16.0884C242.758 16.3423 242.825 16.5522 242.96 16.7183C243.094 16.8843 243.289 17.0249 243.543 17.1401C243.797 17.2554 244.302 17.397 245.06 17.5649C245.314 17.6235 245.567 17.6831 245.819 17.7437C246.071 17.8042 246.312 17.8765 246.543 17.9604C246.773 18.0444 246.989 18.1431 247.19 18.2563C247.391 18.3696 247.566 18.5083 247.715 18.6724C247.863 18.8364 247.979 19.0298 248.063 19.2524C248.147 19.4751 248.189 19.7368 248.189 20.0376ZM251.986 22.27C251.638 22.3638 251.283 22.4106 250.92 22.4106C250.076 22.4106 249.654 21.9321 249.654 20.9751V16.7446H248.922V15.9771H249.695L250.006 14.5591H250.709V15.9771H251.881V16.7446H250.709V20.7466C250.709 21.0513 250.759 21.2651 250.858 21.3882C250.958 21.5112 251.131 21.5728 251.377 21.5728C251.517 21.5728 251.72 21.5454 251.986 21.4907V22.27ZM254.5 22.4341C253.863 22.4341 253.385 22.2661 253.064 21.9302C252.744 21.5942 252.584 21.1333 252.584 20.5474C252.584 19.8911 252.8 19.3872 253.231 19.0356C253.663 18.6841 254.359 18.4966 255.32 18.4731L256.744 18.4497V18.104C256.744 17.5884 256.635 17.2192 256.416 16.9966C256.197 16.7739 255.853 16.6626 255.385 16.6626C254.912 16.6626 254.568 16.7427 254.353 16.9028C254.138 17.063 254.01 17.3188 253.967 17.6704L252.865 17.5708C253.045 16.4302 253.892 15.8599 255.408 15.8599C256.205 15.8599 256.804 16.0425 257.207 16.4077C257.609 16.7729 257.81 17.3013 257.81 17.9927V20.7231C257.81 21.0356 257.851 21.271 257.933 21.4292C258.015 21.5874 258.172 21.6665 258.402 21.6665C258.504 21.6665 258.619 21.6528 258.748 21.6255V22.2817C258.482 22.3442 258.211 22.3755 257.933 22.3755C257.543 22.3755 257.259 22.2729 257.081 22.0679C256.903 21.8628 256.802 21.5415 256.779 21.104H256.744C256.474 21.5884 256.161 21.9312 255.803 22.1323C255.446 22.3335 255.011 22.4341 254.5 22.4341ZM254.74 21.6431C255.127 21.6431 255.47 21.5552 255.771 21.3794C256.072 21.2036 256.309 20.9624 256.483 20.6558C256.657 20.3491 256.744 20.0337 256.744 19.7095V19.188L255.59 19.2114C255.094 19.2192 254.718 19.27 254.462 19.3638C254.206 19.4575 254.01 19.6021 253.873 19.7974C253.736 19.9927 253.668 20.2485 253.668 20.5649C253.668 20.9087 253.76 21.1743 253.946 21.3618C254.132 21.5493 254.396 21.6431 254.74 21.6431ZM260.863 16.7446V22.3169H259.808V16.7446H258.918V15.9771H259.808V15.2622C259.808 14.6841 259.935 14.2681 260.189 14.0142C260.443 13.7603 260.832 13.6333 261.355 13.6333C261.648 13.6333 261.896 13.6567 262.099 13.7036V14.5063C261.924 14.4751 261.767 14.4595 261.631 14.4595C261.361 14.4595 261.166 14.5278 261.045 14.6646C260.924 14.8013 260.863 15.0493 260.863 15.4087V15.9771H262.099V16.7446H260.863ZM263.98 16.7446V22.3169H262.926V16.7446H262.035V15.9771H262.926V15.2622C262.926 14.6841 263.052 14.2681 263.306 14.0142C263.56 13.7603 263.949 13.6333 264.472 13.6333C264.765 13.6333 265.013 13.6567 265.217 13.7036V14.5063C265.041 14.4751 264.885 14.4595 264.748 14.4595C264.478 14.4595 264.283 14.5278 264.162 14.6646C264.041 14.8013 263.98 15.0493 263.98 15.4087V15.9771H265.217V16.7446H263.98Z" fill="#444444"/>
<path d="M226.736 23.5H214.736V11.5H226.736V23.5Z" fill="#EF4444"/>
<path d="M315.447 22.3169H314.287L310.918 14.061H312.095L314.381 19.8735L314.873 21.3325L315.365 19.8735L317.638 14.061H318.816L315.447 22.3169ZM319.976 22.3169V14.061H321.095V22.3169H319.976ZM329.574 16.5454C329.574 17.3267 329.319 17.9478 328.809 18.4087C328.3 18.8696 327.607 19.1001 326.732 19.1001H324.306V22.3169H323.187V14.061H326.662C327.588 14.061 328.304 14.2778 328.812 14.7114C329.32 15.145 329.574 15.7563 329.574 16.5454ZM328.449 16.5571C328.449 15.4907 327.808 14.9575 326.527 14.9575H324.306V18.2153H326.574C327.824 18.2153 328.449 17.6626 328.449 16.5571Z" fill="#444444"/>
<path d="M296.865 23.5H284.865V11.5H296.865V23.5Z" fill="#A855F7"/>
<path d="M382.662 20.0376C382.662 20.7993 382.364 21.3892 381.769 21.8071C381.173 22.2251 380.334 22.4341 379.252 22.4341C377.24 22.4341 376.074 21.7349 375.754 20.3364L376.838 20.1196C376.963 20.6157 377.229 20.98 377.635 21.2124C378.041 21.4448 378.594 21.561 379.293 21.561C380.016 21.561 380.573 21.437 380.966 21.189C381.358 20.9409 381.555 20.5767 381.555 20.0962C381.555 19.8267 381.493 19.6079 381.37 19.4399C381.247 19.272 381.074 19.1333 380.852 19.0239C380.629 18.9146 380.363 18.8228 380.055 18.7485C379.746 18.6743 379.404 18.5942 379.029 18.5083C378.377 18.3638 377.882 18.2192 377.544 18.0747C377.206 17.9302 376.939 17.769 376.744 17.5913C376.549 17.4136 376.399 17.2056 376.296 16.9673C376.192 16.729 376.141 16.4556 376.141 16.147C376.141 15.4399 376.411 14.895 376.952 14.5122C377.493 14.1294 378.268 13.938 379.275 13.938C380.213 13.938 380.93 14.0815 381.426 14.3687C381.922 14.6558 382.27 15.145 382.469 15.8364L381.367 16.0298C381.246 15.5923 381.016 15.2749 380.676 15.0776C380.336 14.8804 379.865 14.7817 379.264 14.7817C378.604 14.7817 378.1 14.8911 377.752 15.1099C377.404 15.3286 377.23 15.6548 377.23 16.0884C377.23 16.3423 377.298 16.5522 377.433 16.7183C377.567 16.8843 377.762 17.0249 378.016 17.1401C378.27 17.2554 378.775 17.397 379.533 17.5649C379.787 17.6235 380.04 17.6831 380.292 17.7437C380.544 17.8042 380.785 17.8765 381.016 17.9604C381.246 18.0444 381.462 18.1431 381.663 18.2563C381.864 18.3696 382.039 18.5083 382.188 18.6724C382.336 18.8364 382.452 19.0298 382.536 19.2524C382.62 19.4751 382.662 19.7368 382.662 20.0376ZM389.383 19.1177C389.383 21.3286 388.605 22.4341 387.051 22.4341C386.074 22.4341 385.418 22.0669 385.082 21.3325H385.053C385.068 21.3638 385.076 21.6958 385.076 22.3286V24.8071H384.021V17.272C384.021 16.6196 384.01 16.188 383.986 15.9771H385.006C385.01 15.9927 385.016 16.0483 385.023 16.144C385.031 16.2397 385.04 16.3872 385.05 16.5864C385.06 16.7856 385.064 16.9224 385.064 16.9966H385.088C385.275 16.606 385.523 16.3198 385.832 16.1382C386.141 15.9565 386.547 15.8657 387.051 15.8657C387.832 15.8657 388.416 16.1274 388.803 16.6509C389.189 17.1743 389.383 17.9966 389.383 19.1177ZM388.275 19.1411C388.275 18.2583 388.156 17.6274 387.918 17.2485C387.68 16.8696 387.301 16.6802 386.781 16.6802C386.363 16.6802 386.036 16.7681 385.8 16.9438C385.563 17.1196 385.384 17.394 385.261 17.7671C385.138 18.1401 385.076 18.6255 385.076 19.2231C385.076 20.0552 385.209 20.6685 385.475 21.063C385.74 21.4575 386.172 21.6548 386.77 21.6548C387.293 21.6548 387.675 21.4624 387.915 21.0776C388.155 20.6929 388.275 20.0474 388.275 19.1411ZM391.504 19.3696C391.504 20.0962 391.654 20.6567 391.955 21.0513C392.256 21.4458 392.695 21.6431 393.273 21.6431C393.73 21.6431 394.097 21.5513 394.372 21.3677C394.647 21.1841 394.834 20.9517 394.932 20.6704L395.857 20.9341C395.479 21.9341 394.617 22.4341 393.273 22.4341C392.336 22.4341 391.622 22.1548 391.132 21.5962C390.642 21.0376 390.396 20.2075 390.396 19.106C390.396 18.0591 390.642 17.2563 391.132 16.6978C391.622 16.1392 392.322 15.8599 393.232 15.8599C395.096 15.8599 396.027 16.9829 396.027 19.229V19.3696H391.504ZM394.938 18.561C394.879 17.8931 394.709 17.4058 394.428 17.0991C394.146 16.7925 393.742 16.6392 393.215 16.6392C392.703 16.6392 392.298 16.8101 391.999 17.1519C391.7 17.4937 391.539 17.9634 391.516 18.561H394.938ZM398.986 22.4341C398.35 22.4341 397.871 22.2661 397.551 21.9302C397.23 21.5942 397.07 21.1333 397.07 20.5474C397.07 19.8911 397.286 19.3872 397.718 19.0356C398.149 18.6841 398.846 18.4966 399.807 18.4731L401.23 18.4497V18.104C401.23 17.5884 401.121 17.2192 400.902 16.9966C400.684 16.7739 400.34 16.6626 399.871 16.6626C399.398 16.6626 399.055 16.7427 398.84 16.9028C398.625 17.063 398.496 17.3188 398.453 17.6704L397.352 17.5708C397.531 16.4302 398.379 15.8599 399.895 15.8599C400.691 15.8599 401.291 16.0425 401.693 16.4077C402.096 16.7729 402.297 17.3013 402.297 17.9927V20.7231C402.297 21.0356 402.338 21.271 402.42 21.4292C402.502 21.5874 402.658 21.6665 402.889 21.6665C402.99 21.6665 403.105 21.6528 403.234 21.6255V22.2817C402.969 22.3442 402.697 22.3755 402.42 22.3755C402.029 22.3755 401.745 22.2729 401.567 22.0679C401.39 21.8628 401.289 21.5415 401.266 21.104H401.23C400.961 21.5884 400.647 21.9312 400.29 22.1323C399.933 22.3335 399.498 22.4341 398.986 22.4341ZM399.227 21.6431C399.613 21.6431 399.957 21.5552 400.258 21.3794C400.559 21.2036 400.796 20.9624 400.97 20.6558C401.144 20.3491 401.23 20.0337 401.23 19.7095V19.188L400.076 19.2114C399.58 19.2192 399.204 19.27 398.948 19.3638C398.692 19.4575 398.496 19.6021 398.359 19.7974C398.223 19.9927 398.154 20.2485 398.154 20.5649C398.154 20.9087 398.247 21.1743 398.433 21.3618C398.618 21.5493 398.883 21.6431 399.227 21.6431ZM408.016 22.3169L405.871 19.4224L405.098 20.061V22.3169H404.043V13.6216H405.098V19.0532L407.881 15.9771H409.117L406.545 18.7017L409.252 22.3169H408.016ZM410.852 19.3696C410.852 20.0962 411.002 20.6567 411.303 21.0513C411.604 21.4458 412.043 21.6431 412.621 21.6431C413.078 21.6431 413.444 21.5513 413.72 21.3677C413.995 21.1841 414.182 20.9517 414.279 20.6704L415.205 20.9341C414.826 21.9341 413.965 22.4341 412.621 22.4341C411.684 22.4341 410.97 22.1548 410.479 21.5962C409.989 21.0376 409.744 20.2075 409.744 19.106C409.744 18.0591 409.989 17.2563 410.479 16.6978C410.97 16.1392 411.67 15.8599 412.58 15.8599C414.443 15.8599 415.375 16.9829 415.375 19.229V19.3696H410.852ZM414.285 18.561C414.227 17.8931 414.057 17.4058 413.775 17.0991C413.494 16.7925 413.09 16.6392 412.562 16.6392C412.051 16.6392 411.646 16.8101 411.347 17.1519C411.048 17.4937 410.887 17.9634 410.863 18.561H414.285ZM416.74 22.3169V17.4536C416.74 17.0083 416.729 16.5161 416.705 15.9771H417.701C417.732 16.6958 417.748 17.1274 417.748 17.272H417.771C417.939 16.729 418.133 16.3579 418.352 16.1587C418.57 15.9595 418.879 15.8599 419.277 15.8599C419.418 15.8599 419.561 15.8794 419.705 15.9185V16.8853C419.564 16.8462 419.377 16.8267 419.143 16.8267C418.705 16.8267 418.371 17.0151 418.141 17.3921C417.91 17.769 417.795 18.3091 417.795 19.0122V22.3169H416.74Z" fill="#444444"/>
<path d="M361.209 23.5H349.209V11.5H361.209V23.5Z" fill="#F59E0B"/>
</g>
<path d="M40 3H0C11.0383 3 20 4.34425 20 6V0C20 1.65575 11.0383 3 0 3H40C28.9617 3 20 1.65575 20 0V6C20 4.34425 28.9617 3 40 3Z" fill="#808BA4"/>
</svg>
