<svg width="12" height="11" viewBox="0 0 12 11" fill="none" xmlns="http://www.w3.org/2000/svg">
<path d="M5.99962 0C6.33246 0 6.63952 0.175796 6.80828 0.4641L11.8712 9.0898C12.0423 9.38045 12.0423 9.73907 11.8759 10.0297C11.7095 10.3204 11.3977 10.5009 11.0625 10.5009H0.936711C0.601528 10.5009 0.289784 10.3204 0.123364 10.0297C-0.0430561 9.73907 -0.0407121 9.37811 0.128052 9.0898L5.19096 0.4641C5.35973 0.175796 5.66678 0 5.99962 0ZM5.99962 3.00024C5.68788 3.00024 5.43708 3.25105 5.43708 3.56279V6.188C5.43708 6.49975 5.68788 6.75055 5.99962 6.75055Cnan nan 6.56217 6.49975 6.56217 6.188V3.56279C6.56217 3.25105 6.31137 3.00024 5.99962 3.00024ZM6.74968 8.25067C6.74968 7.8367 6.41359 7.50061 5.99962 7.50061C5.58565 7.50061 5.24956 7.8367 5.24956 8.25067C5.24956 8.66464 5.58565 9.00073 5.99962 9.00073C6.41359 9.00073 6.74968 8.66464 6.74968 8.25067Z" fill="#F59E0B"/>
</svg>
