<svg width="13" height="14" viewBox="0 0 13 14" fill="none" xmlns="http://www.w3.org/2000/svg">
<path d="M2.625 0.875V1.75H1.3125C0.587891 1.75 0 2.33789 0 3.0625V4.375H12.25V3.0625C12.25 2.33789 11.6621 1.75 10.9375 1.75H9.625V0.875C9.625 0.391016 9.23398 0 8.75 0C8.26602 0 7.875 0.391016 7.875 0.875V1.75H4.375V0.875C4.375 0.391016 3.98398 0 3.5 0C3.01602 0 2.625 0.391016 2.625 0.875ZM12.25 5.25H0V12.6875C0 13.4121 0.587891 14 1.3125 14H10.9375C11.6621 14 12.25 13.4121 12.25 12.6875V5.25ZM6.125 6.78125C6.48867 6.78125 6.78125 7.07383 6.78125 7.4375V8.96875H8.3125C8.67617 8.96875 8.96875 9.26133 8.96875 9.625Cnan nan 8.67617 10.2812 8.3125 10.2812H6.78125V11.8125C6.78125 12.1762 6.48867 12.4688 6.125 12.4688Cnan nan 5.46875 12.1762 5.46875 11.8125V10.2812H3.9375C3.57383 10.2812 3.28125 9.98867 3.28125 9.625Cnan nan 3.57383 8.96875 3.9375 8.96875H5.46875V7.4375C5.46875 7.07383 5.76133 6.78125 6.125 6.78125Z" fill="#374151"/>
</svg>
