<svg width="14" height="14" viewBox="0 0 14 14" fill="none" xmlns="http://www.w3.org/2000/svg">
<path d="M0 7C0 3.13659 3.13659 0 7 0C10.8634 0 14 3.13659 14 7C14 10.8634 10.8634 14 7 14C3.13659 14 0 10.8634 0 7ZM7.875 2.625C7.875 2.14207 7.48293 1.75 7 1.75C6.51707 1.75 6.125 2.14207 6.125 2.625C6.125 3.10793 6.51707 3.5 7 3.5C7.48293 3.5 7.875 3.10793 7.875 2.625ZM7 11.375C7.96523 11.375 8.75 10.5902 8.75 9.625C8.75 9.14922 8.56133 8.71992 8.25508 8.40547L10.0078 4.42148C10.1527 4.09063 10.0023 3.70234 9.67148 3.55742Cnan nan 8.95234 3.56289 8.80742 3.89375L7.05195 7.875C7.03555 7.875 7.01641 7.875 7 7.875C6.03477 7.875 5.25 8.65977 5.25 9.625Cnan nan 6.03477 11.375 7 11.375ZM4.8125 3.9375C4.8125 3.45457 4.42043 3.0625 3.9375 3.0625C3.45457 3.0625 3.0625 3.45457 3.0625 3.9375C3.0625 4.42043 3.45457 4.8125 3.9375 4.8125C4.42043 4.8125 4.8125 4.42043 4.8125 3.9375ZM2.625 7.875C3.10793 7.875 3.5 7.48293 3.5 7C3.5 6.51707 3.10793 6.125 2.625 6.125C2.14207 6.125 1.75 6.51707 1.75 7C1.75 7.48293 2.14207 7.875 2.625 7.875ZM12.25 7C12.25 6.51707 11.8579 6.125 11.375 6.125C10.8921 6.125 10.5 6.51707 10.5 7C10.5 7.48293 10.8921 7.875 11.375 7.875C11.8579 7.875 12.25 7.48293 12.25 7Z" fill="white"/>
</svg>
