<svg width="16" height="15" viewBox="0 0 16 15" fill="none" xmlns="http://www.w3.org/2000/svg">
<path d="M2.23056 1.22419C1.93889 1.94364 1.77778 2.72975 1.77778 3.55753C1.77778 4.3853 1.93889 5.17141 2.23056 5.89086C2.41389 6.34642 2.19444 6.86308 1.73889 7.04919C1.28333 7.2353 0.766667 7.01308 0.580556 6.55753C0.205556 5.62975 0 4.61586 0 3.55753C0 2.49919 0.205556 1.4853 0.580556 0.557526C0.766667 0.10197 1.28333 -0.117474 1.73889 0.0658593C2.19444 0.249193 2.41389 0.768637 2.23056 1.22419ZM15.4194 0.557526C15.7944 1.4853 16 2.49919 16 3.55753C16 4.61586 15.7944 5.62975 15.4194 6.55753C15.2361 7.01308 14.7167 7.23253 14.2611 7.04919Cnan nan 13.5861 6.34642 13.7694 5.89086C14.0611 5.17141 14.2222 4.3853 14.2222 3.55753Cnan nan 14.0611 1.94364 13.7694 1.22419C13.5861 0.768637 13.8056 0.25197 14.2611 0.0658593C14.7167 -0.120252 15.2333 0.10197 15.4194 0.557526ZM9.77778 3.55753C9.77778 4.21586 9.41944 4.79086 8.88889 5.09641V13.3353C8.88889 13.827 8.49167 14.2242 8 14.2242Cnan nan 7.11111 13.827 7.11111 13.3353V5.09641C6.58056 4.78808 6.22222 4.21586 6.22222 3.55753C6.22222 2.57697 7.01944 1.77975 8 1.77975Cnan nan 9.77778 2.57697 9.77778 3.55753ZM4.73889 2.1353C4.55 2.56864 4.44444 3.04919 4.44444 3.55753C4.44444 4.06586 4.55 4.54641 4.73889 4.97975C4.93611 5.42975 4.73056 5.95475 4.28056 6.14919Cnan nan 3.30556 6.14086 3.11111 5.69086C2.825 5.0353 2.66667 4.31308 2.66667 3.55753Cnan nan 2.825 2.07975 3.11111 1.42419C3.30833 0.974193 3.83056 0.768637 4.28056 0.965859Cnan nan 4.93611 1.6853 4.73889 2.1353ZM12.8889 1.42419C13.175 2.07975 13.3333 2.80197 13.3333 3.55753Cnan nan 13.175 5.0353 12.8889 5.69086C12.6917 6.14086 12.1694 6.34641 11.7194 6.14919Cnan nan 11.0639 5.42975 11.2611 4.97975C11.45 4.54641 11.5556 4.06586 11.5556 3.55753Cnan nan 11.45 2.56864 11.2611 2.1353C11.0639 1.6853 11.2694 1.1603 11.7194 0.965859Cnan nan 12.6944 0.974193 12.8889 1.42419Z" fill="#374151"/>
</svg>
