<svg width="18" height="18" viewBox="0 0 18 18" fill="none" xmlns="http://www.w3.org/2000/svg">
<path d="M9 18C13.9672 18 18 13.9672 18 9C18 4.03276 13.9672 0 9 0C4.03276 0 0 4.03276 0 9C0 13.9672 4.03276 18 9 18ZM9 4.5C9.46758 4.5 9.84375 4.87617 9.84375 5.34375V9.28125C9.84375 9.74883 9.46758 10.125 9 10.125Cnan nan 8.15625 9.74883 8.15625 9.28125V5.34375C8.15625 4.87617 8.53242 4.5 9 4.5ZM7.875 12.375C7.875 11.7541 8.3791 11.25 9 11.25C9.6209 11.25 10.125 11.7541 10.125 12.375C10.125 12.9959 9.6209 13.5 9 13.5C8.3791 13.5 7.875 12.9959 7.875 12.375Z" fill="#F59E0B"/>
</svg>
