<svg width="12" height="12" viewBox="0 0 12 12" fill="none" xmlns="http://www.w3.org/2000/svg">
<path d="M4.3125 0C5.03672 0 5.625 0.588281 5.625 1.3125V10.6875C5.625 11.4117 5.03672 12 4.3125 12C3.63516 12 3.07734 11.4867 3.00703 10.8258C2.88516 10.8586 2.75625 10.875 2.625 10.875C1.79766 10.875 1.125 10.2023 1.125 9.375C1.125 9.20156 1.15547 9.03281 1.20938 8.87813C0.501563 8.61094 0 7.92656 0 7.125C0 6.37734 0.438281 5.73047 1.07344 5.43047C0.869531 5.175 0.75 4.85156 0.75 4.5C0.75 3.78047 1.25625 3.18047 1.93125 3.03281C1.89375 2.90391 1.875 2.76562 1.875 2.625C1.875 1.92422 2.35781 1.33359 3.00703 1.16953C3.07734 0.513281 3.63516 0 4.3125 0ZM7.6875 0C8.36484 0 8.92031 0.513281 8.99297 1.16953C9.64453 1.33359 10.125 1.92188 10.125 2.625C10.125 2.76562 10.1063 2.90391 10.0688 3.03281C10.7438 3.17813 11.25 3.78047 11.25 4.5C11.25 4.85156 11.1305 5.175 10.9266 5.43047C11.5617 5.73047 12 6.37734 12 7.125C12 7.92656 11.4984 8.61094 10.7906 8.87813C10.8445 9.03281 10.875 9.20156 10.875 9.375C10.875 10.2023 10.2023 10.875 9.375 10.875C9.24375 10.875 9.11484 10.8586 8.99297 10.8258C8.92266 11.4867 8.36484 12 7.6875 12C6.96328 12 6.375 11.4117 6.375 10.6875V1.3125C6.375 0.588281 6.96328 0 7.6875 0Z" fill="#7E22CE"/>
</svg>
