<svg width="534" height="199" viewBox="0 0 534 199" fill="none" xmlns="http://www.w3.org/2000/svg">
<path d="M0.500001 0V199V0Z" fill="black"/>
<path d="M0.500001 0V199V0" stroke="#E2E8F0" stroke-width="0.999999"/>
<path d="M38.5701 0V199V0Z" fill="black"/>
<path d="M38.5701 0V199V0" stroke="#E2E8F0" stroke-width="0.999999"/>
<path d="M76.63 0V199V0Z" fill="black"/>
<path d="M76.63 0V199V0" stroke="#E2E8F0" stroke-width="0.999999"/>
<path d="M114.69 0V199V0Z" fill="black"/>
<path d="M114.69 0V199V0" stroke="#E2E8F0" stroke-width="0.999999"/>
<path d="M152.75 0V199V0Z" fill="black"/>
<path d="M152.75 0V199V0" stroke="#E2E8F0" stroke-width="0.999999"/>
<path d="M190.82 0V199V0Z" fill="black"/>
<path d="M190.82 0V199V0" stroke="#E2E8F0" stroke-width="0.999999"/>
<path d="M228.88 0V199V0Z" fill="black"/>
<path d="M228.88 0V199V0" stroke="#E2E8F0" stroke-width="0.999999"/>
<path d="M266.94 0V199V0Z" fill="black"/>
<path d="M266.94 0V199V0" stroke="#E2E8F0" stroke-width="0.999999"/>
<path d="M305 0V199V0Z" fill="black"/>
<path d="M305 0V199V0" stroke="#E2E8F0" stroke-width="0.999999"/>
<path d="M343.07 0V199V0Z" fill="black"/>
<path d="M343.07 0V199V0" stroke="#E2E8F0" stroke-width="0.999999"/>
<path d="M381.13 0V199V0Z" fill="black"/>
<path d="M381.13 0V199V0" stroke="#E2E8F0" stroke-width="0.999999"/>
<path d="M419.19 0V199V0Z" fill="black"/>
<path d="M419.19 0V199V0" stroke="#E2E8F0" stroke-width="0.999999"/>
<path d="M457.25 0V199V0Z" fill="black"/>
<path d="M457.25 0V199V0" stroke="#E2E8F0" stroke-width="0.999999"/>
<path d="M495.32 0V199V0Z" fill="black"/>
<path d="M495.32 0V199V0" stroke="#E2E8F0" stroke-width="0.999999"/>
<path d="M533.38 0V199V0Z" fill="black"/>
<path d="M533.38 0V199V0" stroke="#E2E8F0" stroke-width="0.999999"/>
</svg>
