<svg width="11" height="14" viewBox="0 0 11 14" fill="none" xmlns="http://www.w3.org/2000/svg">
<path d="M2.625 0C2.14102 0 1.75 0.391016 1.75 0.875V3.5H3.5V0.875C3.5 0.391016 3.10898 0 2.625 0ZM7.875 0C7.39102 0 7 0.391016 7 0.875V3.5H8.75V0.875C8.75 0.391016 8.35898 0 7.875 0ZM0.875 4.375C0.391016 4.375 0 4.76602 0 5.25Cnan nan 0.391016 6.125 0.875 6.125V7C0.875 9.11641 2.37891 10.8828 4.375 11.2875V13.125C4.375 13.609 4.76602 14 5.25 14Cnan nan 6.125 13.609 6.125 13.125V11.2875C8.12109 10.8828 9.625 9.11641 9.625 7V6.125C10.109 6.125 10.5 5.73398 10.5 5.25Cnan nan 10.109 4.375 9.625 4.375H0.875Z" fill="#374151"/>
</svg>
