<svg width="18" height="18" viewBox="0 0 18 18" fill="none" xmlns="http://www.w3.org/2000/svg">
<path d="M0 1.92857C0 0.863839 0.863839 0 1.92857 0H5.78571C6.85045 0 7.71429 0.863839 7.71429 1.92857V5.78571C7.71429 6.85045 6.85045 7.71429 5.78571 7.71429H1.92857C0.863839 7.71429 0 6.85045 0 5.78571V1.92857ZM2.57143 2.57143V5.14286H5.14286V2.57143H2.57143ZM0 12.2143C0 11.1496 0.863839 10.2857 1.92857 10.2857H5.78571C6.85045 10.2857 7.71429 11.1496 7.71429 12.2143V16.0714C7.71429 17.1362 6.85045 18 5.78571 18H1.92857C0.863839 18 0 17.1362 0 16.0714V12.2143ZM2.57143 12.8571V15.4286H5.14286V12.8571H2.57143ZM12.2143 0H16.0714C17.1362 0 18 0.863839 18 1.92857V5.78571C18 6.85045 17.1362 7.71429 16.0714 7.71429H12.2143C11.1496 7.71429 10.2857 6.85045 10.2857 5.78571V1.92857C10.2857 0.863839 11.1496 0 12.2143 0ZM15.4286 2.57143H12.8571V5.14286H15.4286V2.57143ZM10.2857 10.9286C10.2857 10.575 10.575 10.2857 10.9286 10.2857H13.5C13.8536 10.2857 14.1429 10.575 14.1429 10.9286Cnan nan 14.4321 11.5714 14.7857 11.5714H16.0714C16.425 11.5714 16.7143 11.2821 16.7143 10.9286Cnan nan 17.0036 10.2857 17.3571 10.2857Cnan nan 18 10.575 18 10.9286V14.7857C18 15.1393 17.7107 15.4286 17.3571 15.4286H14.7857C14.4321 15.4286 14.1429 15.1393 14.1429 14.7857Cnan nan 13.8536 14.1429 13.5 14.1429Cnan nan 12.8571 14.4321 12.8571 14.7857V17.3571C12.8571 17.7107 12.5679 18 12.2143 18H10.9286C10.575 18 10.2857 17.7107 10.2857 17.3571V10.9286ZM14.7857 18C14.4309 18 14.1429 17.7119 14.1429 17.3571C14.1429 17.0023 14.4309 16.7143 14.7857 16.7143C15.1405 16.7143 15.4286 17.0023 15.4286 17.3571C15.4286 17.7119 15.1405 18 14.7857 18ZM17.3571 18C17.0023 18 16.7143 17.7119 16.7143 17.3571C16.7143 17.0023 17.0023 16.7143 17.3571 16.7143C17.7119 16.7143 18 17.0023 18 17.3571C18 17.7119 17.7119 18 17.3571 18Z" fill="white"/>
</svg>
