<svg width="13" height="13" viewBox="0 0 13 13" fill="none" xmlns="http://www.w3.org/2000/svg">
<path d="M0 1.39286C0 0.623884 0.623884 0 1.39286 0H4.17857C4.94754 0 5.57143 0.623884 5.57143 1.39286V4.17857C5.57143 4.94754 4.94754 5.57143 4.17857 5.57143H1.39286C0.623884 5.57143 0 4.94754 0 4.17857V1.39286ZM1.85714 1.85714V3.71429H3.71429V1.85714H1.85714ZM0 8.82143C0 8.05246 0.623884 7.42857 1.39286 7.42857H4.17857C4.94754 7.42857 5.57143 8.05246 5.57143 8.82143V11.6071C5.57143 12.3761 4.94754 13 4.17857 13H1.39286C0.623884 13 0 12.3761 0 11.6071V8.82143ZM1.85714 9.28571V11.1429H3.71429V9.28571H1.85714ZM8.82143 0H11.6071C12.3761 0 13 0.623884 13 1.39286V4.17857C13 4.94754 12.3761 5.57143 11.6071 5.57143H8.82143C8.05246 5.57143 7.42857 4.94754 7.42857 4.17857V1.39286C7.42857 0.623884 8.05246 0 8.82143 0ZM11.1429 1.85714H9.28571V3.71429H11.1429V1.85714ZM7.42857 7.89286C7.42857 7.6375 7.6375 7.42857 7.89286 7.42857H9.75C10.0054 7.42857 10.2143 7.6375 10.2143 7.89286Cnan nan 10.4232 8.35714 10.6786 8.35714H11.6071C11.8625 8.35714 12.0714 8.14821 12.0714 7.89286Cnan nan 12.2804 7.42857 12.5357 7.42857Cnan nan 13 7.6375 13 7.89286V10.6786C13 10.9339 12.7911 11.1429 12.5357 11.1429H10.6786C10.4232 11.1429 10.2143 10.9339 10.2143 10.6786Cnan nan 10.0054 10.2143 9.75 10.2143Cnan nan 9.28571 10.4232 9.28571 10.6786V12.5357C9.28571 12.7911 9.07679 13 8.82143 13H7.89286C7.6375 13 7.42857 12.7911 7.42857 12.5357V7.89286ZM10.6786 13C10.4223 13 10.2143 12.792 10.2143 12.5357C10.2143 12.2795 10.4223 12.0714 10.6786 12.0714C10.9348 12.0714 11.1429 12.2795 11.1429 12.5357C11.1429 12.792 10.9348 13 10.6786 13ZM12.5357 13C12.2795 13 12.0714 12.792 12.0714 12.5357C12.0714 12.2795 12.2795 12.0714 12.5357 12.0714C12.792 12.0714 13 12.2795 13 12.5357C13 12.792 12.792 13 12.5357 13Z" fill="#374151"/>
</svg>
