<svg width="191" height="32" viewBox="0 0 191 32" fill="none" xmlns="http://www.w3.org/2000/svg">
<path d="M20 3H191V32H20V3Z" fill="white"/>
<mask id="mask0_17_12272" style="mask-type:luminance" maskUnits="userSpaceOnUse" x="20" y="3" width="171" height="29">
<path d="M20 3H191V32H20V3Z" fill="white"/>
</mask>
<g mask="url(#mask0_17_12272)">
<path d="M66.8379 22.3164L65.8945 19.9023H62.1328L61.1836 22.3164H60.0234L63.3926 14.0606H64.6641L67.9805 22.3164H66.8379ZM64.0137 14.9043L63.9609 15.0684C63.8633 15.3926 63.7187 15.8086 63.5273 16.3164L62.4727 19.0293H65.5605L64.5 16.3047C64.3906 16.0352 64.2812 15.7305 64.1719 15.3906L64.0137 14.9043ZM69.6152 19.1172C69.6152 19.9609 69.748 20.5859 70.0137 20.9922C70.2793 21.3984 70.6797 21.6016 71.2148 21.6016C71.5898 21.6016 71.9033 21.5 72.1553 21.2969C72.4072 21.0938 72.5625 20.7813 72.6211 20.3594L73.6875 20.4297C73.6054 21.0391 73.3457 21.5254 72.9082 21.8887C72.4707 22.252 71.916 22.4336 71.2441 22.4336C70.3574 22.4336 69.6807 22.1533 69.2139 21.5928C68.7471 21.0322 68.5137 20.2148 68.5137 19.1406C68.5137 18.0742 68.748 17.2607 69.2168 16.7002C69.6855 16.1397 70.3574 15.8594 71.2324 15.8594C71.8808 15.8594 72.4189 16.0274 72.8467 16.3633C73.2744 16.6992 73.5429 17.1621 73.6523 17.752L72.5683 17.834C72.5137 17.4824 72.375 17.2031 72.1523 16.9961C71.9297 16.7891 71.6133 16.6856 71.2031 16.6856C70.6445 16.6856 70.2402 16.8711 69.9902 17.2422C69.7402 17.6133 69.6152 18.2383 69.6152 19.1172ZM77.25 22.2695C76.9023 22.3633 76.5469 22.4102 76.1836 22.4102C75.3398 22.4102 74.9179 21.9316 74.9179 20.9746V16.7441H74.1855V15.9766H74.959L75.2695 14.5586H75.9726V15.9766H77.1445V16.7441H75.9726V20.7461C75.9726 21.0508 76.0224 21.2646 76.122 21.3877C76.2217 21.5107 76.3945 21.5723 76.6406 21.5723C76.7812 21.5723 76.9844 21.5449 77.25 21.4902V22.2695ZM79.1777 15.9766V19.9961C79.1777 20.4141 79.2187 20.7383 79.3008 20.9688C79.3828 21.1992 79.5136 21.3652 79.6933 21.4668C79.873 21.5684 80.1367 21.6191 80.4843 21.6191C80.9922 21.6191 81.3925 21.4453 81.6855 21.0977C81.9785 20.75 82.125 20.2676 82.125 19.6504V15.9766H83.1797V20.9629C83.1797 21.7012 83.1914 22.1523 83.2148 22.3164H82.2187C82.2148 22.2969 82.2109 22.2441 82.207 22.1582C82.2031 22.0723 82.1982 21.9736 82.1924 21.8623C82.1865 21.751 82.1797 21.541 82.1718 21.2324H82.1543C81.9121 21.6699 81.6318 21.9795 81.3134 22.1611C80.9951 22.3428 80.5996 22.4336 80.1269 22.4336C79.4316 22.4336 78.9228 22.2607 78.6006 21.915C78.2783 21.5693 78.1172 20.998 78.1172 20.2012V15.9766H79.1777ZM86.4375 22.4336C85.8007 22.4336 85.3222 22.2656 85.0019 21.9297C84.6816 21.5938 84.5214 21.1328 84.5214 20.5469C84.5214 19.8906 84.7373 19.3867 85.1689 19.0352C85.6005 18.6836 86.2968 18.4961 87.2578 18.4727L88.6816 18.4492V18.1035C88.6816 17.5879 88.5722 17.2188 88.3535 16.9961C88.1347 16.7734 87.791 16.6621 87.3222 16.6621C86.8496 16.6621 86.5058 16.7422 86.291 16.9024C86.0761 17.0625 85.9472 17.3184 85.9043 17.6699L84.8027 17.5703C84.9824 16.4297 85.83 15.8594 87.3457 15.8594C88.1425 15.8594 88.7421 16.042 89.1445 16.4072C89.5468 16.7725 89.748 17.3008 89.748 17.9922V20.7227C89.748 21.0352 89.789 21.2705 89.8711 21.4287C89.9531 21.5869 90.1093 21.666 90.3398 21.666C90.4414 21.666 90.5566 21.6523 90.6855 21.625V22.2813C90.4199 22.3437 90.1484 22.375 89.8711 22.375C89.4804 22.375 89.1962 22.2725 89.0185 22.0674C88.8408 21.8623 88.7402 21.541 88.7168 21.1035H88.6816C88.4121 21.5879 88.0986 21.9307 87.7412 22.1318C87.3837 22.333 86.9492 22.4336 86.4375 22.4336ZM86.6777 21.6426C87.0644 21.6426 87.4082 21.5547 87.7089 21.3789C88.0097 21.2031 88.247 20.9619 88.4209 20.6553C88.5947 20.3486 88.6816 20.0332 88.6816 19.709V19.1875L87.5273 19.2109C87.0312 19.2188 86.6552 19.2695 86.3994 19.3633C86.1435 19.457 85.9472 19.6016 85.8105 19.7969C85.6738 19.9922 85.6054 20.248 85.6054 20.5645C85.6054 20.9082 85.6982 21.1738 85.8838 21.3613C86.0693 21.5488 86.3339 21.6426 86.6777 21.6426ZM91.4941 22.3164V13.6211H92.5488V22.3164H91.4941Z" fill="#444444"/>
<path d="M25 17.5H55" stroke="#3B82F6" stroke-width="3"/>
<path d="M140.463 14.9746V18.0449H145.068V18.9707H140.463V22.3164H139.344V14.0606H145.209V14.9746H140.463ZM151.859 19.1406C151.859 20.25 151.615 21.0762 151.127 21.6191C150.639 22.1621 149.93 22.4336 149 22.4336C148.074 22.4336 147.375 22.1514 146.902 21.5869C146.43 21.0225 146.193 20.207 146.193 19.1406C146.193 16.9531 147.141 15.8594 149.035 15.8594C150.004 15.8594 150.717 16.126 151.174 16.6592C151.631 17.1924 151.859 18.0195 151.859 19.1406ZM150.752 19.1406C150.752 18.2656 150.622 17.6299 150.362 17.2334C150.103 16.8369 149.666 16.6387 149.053 16.6387C148.436 16.6387 147.989 16.8408 147.714 17.2451C147.438 17.6494 147.301 18.2813 147.301 19.1406C147.301 19.9766 147.437 20.6045 147.708 21.0244C147.979 21.4443 148.406 21.6543 148.988 21.6543C149.621 21.6543 150.073 21.4512 150.345 21.0449C150.616 20.6387 150.752 20.0039 150.752 19.1406ZM153.195 22.3164V17.4531C153.195 17.0078 153.184 16.5156 153.16 15.9766H154.156C154.187 16.6953 154.203 17.127 154.203 17.2715H154.227C154.395 16.7285 154.588 16.3574 154.807 16.1582C155.025 15.959 155.334 15.8594 155.732 15.8594C155.873 15.8594 156.016 15.8789 156.16 15.918V16.8848C156.02 16.8457 155.832 16.8262 155.598 16.8262C155.16 16.8262 154.826 17.0147 154.596 17.3916C154.365 17.7686 154.25 18.3086 154.25 19.0117V22.3164H153.195ZM157.977 19.3691C157.977 20.0957 158.127 20.6563 158.428 21.0508C158.728 21.4453 159.168 21.6426 159.746 21.6426C160.203 21.6426 160.569 21.5508 160.845 21.3672C161.12 21.1836 161.307 20.9512 161.404 20.6699L162.33 20.9336C161.951 21.9336 161.09 22.4336 159.746 22.4336C158.809 22.4336 158.095 22.1543 157.604 21.5957C157.114 21.0371 156.869 20.207 156.869 19.1055C156.869 18.0586 157.114 17.2559 157.604 16.6973C158.095 16.1387 158.795 15.8594 159.705 15.8594C161.568 15.8594 162.5 16.9824 162.5 19.2285V19.3691H157.977ZM161.41 18.5606C161.352 17.8926 161.182 17.4053 160.9 17.0986C160.619 16.792 160.215 16.6387 159.687 16.6387C159.176 16.6387 158.77 16.8096 158.472 17.1514C158.173 17.4932 158.012 17.9629 157.988 18.5606H161.41ZM164.644 19.1172C164.644 19.9609 164.777 20.5859 165.043 20.9922C165.309 21.3984 165.709 21.6016 166.244 21.6016C166.619 21.6016 166.933 21.5 167.185 21.2969C167.436 21.0938 167.592 20.7813 167.65 20.3594L168.717 20.4297C168.635 21.0391 168.375 21.5254 167.937 21.8887C167.5 22.252 166.945 22.4336 166.273 22.4336C165.387 22.4336 164.71 22.1533 164.243 21.5928C163.776 21.0322 163.543 20.2148 163.543 19.1406C163.543 18.0742 163.777 17.2607 164.246 16.7002C164.715 16.1397 165.387 15.8594 166.262 15.8594C166.91 15.8594 167.448 16.0274 167.876 16.3633C168.304 16.6992 168.572 17.1621 168.682 17.752L167.598 17.834C167.543 17.4824 167.404 17.2031 167.182 16.9961C166.959 16.7891 166.643 16.6856 166.232 16.6856C165.674 16.6856 165.269 16.8711 165.019 17.2422C164.769 17.6133 164.644 18.2383 164.644 19.1172ZM171.459 22.4336C170.822 22.4336 170.344 22.2656 170.023 21.9297C169.703 21.5938 169.543 21.1328 169.543 20.5469C169.543 19.8906 169.759 19.3867 170.19 19.0352C170.622 18.6836 171.318 18.4961 172.279 18.4727L173.703 18.4492V18.1035C173.703 17.5879 173.594 17.2188 173.375 16.9961C173.156 16.7734 172.812 16.6621 172.344 16.6621C171.871 16.6621 171.527 16.7422 171.312 16.9024C171.098 17.0625 170.969 17.3184 170.926 17.6699L169.824 17.5703C170.004 16.4297 170.852 15.8594 172.367 15.8594C173.164 15.8594 173.764 16.042 174.166 16.4072C174.568 16.7725 174.769 17.3008 174.769 17.9922V20.7227C174.769 21.0352 174.81 21.2705 174.893 21.4287C174.975 21.5869 175.131 21.666 175.361 21.666C175.463 21.666 175.578 21.6523 175.707 21.625V22.2813C175.441 22.3437 175.17 22.375 174.893 22.375C174.502 22.375 174.218 22.2725 174.04 22.0674C173.862 21.8623 173.762 21.541 173.738 21.1035H173.703C173.434 21.5879 173.12 21.9307 172.763 22.1318C172.405 22.333 171.971 22.4336 171.459 22.4336ZM171.699 21.6426C172.086 21.6426 172.43 21.5547 172.73 21.3789C173.031 21.2031 173.269 20.9619 173.442 20.6553C173.616 20.3486 173.703 20.0332 173.703 19.709V19.1875L172.549 19.2109C172.053 19.2188 171.677 19.2695 171.421 19.3633C171.165 19.457 170.969 19.6016 170.832 19.7969C170.695 19.9922 170.627 20.248 170.627 20.5645C170.627 20.9082 170.72 21.1738 170.905 21.3613C171.091 21.5488 171.355 21.6426 171.699 21.6426ZM181.273 20.5645C181.273 21.1621 181.048 21.623 180.597 21.9473C180.145 22.2715 179.514 22.4336 178.701 22.4336C177.912 22.4336 177.304 22.3037 176.876 22.0439C176.448 21.7842 176.17 21.3789 176.041 20.8281L176.973 20.6465C177.062 20.9863 177.248 21.2354 177.529 21.3936C177.81 21.5518 178.201 21.6309 178.701 21.6309C179.236 21.6309 179.628 21.5488 179.876 21.3848C180.124 21.2207 180.248 20.9746 180.248 20.6465C180.248 20.3965 180.162 20.1934 179.99 20.0371C179.818 19.8809 179.541 19.752 179.158 19.6504L178.402 19.4512C177.797 19.2949 177.366 19.1416 177.11 18.9912C176.854 18.8408 176.654 18.6582 176.51 18.4434C176.365 18.2285 176.293 17.9648 176.293 17.6524C176.293 17.0742 176.499 16.6338 176.911 16.3311C177.323 16.0283 177.924 15.877 178.713 15.877C179.412 15.877 179.968 16 180.38 16.2461C180.792 16.4922 181.053 16.8867 181.162 17.4297L180.213 17.5469C180.154 17.2656 179.997 17.0498 179.741 16.8994C179.485 16.749 179.143 16.6738 178.713 16.6738C178.236 16.6738 177.885 16.7461 177.658 16.8906C177.432 17.0352 177.318 17.2539 177.318 17.5469C177.318 17.7266 177.365 17.875 177.459 17.9922C177.553 18.1094 177.691 18.209 177.875 18.291C178.059 18.3731 178.445 18.4863 179.035 18.6309C179.594 18.7715 179.996 18.9014 180.242 19.0205C180.488 19.1397 180.683 19.2715 180.825 19.416C180.968 19.5606 181.078 19.7275 181.156 19.917C181.234 20.1064 181.273 20.3223 181.273 20.5645ZM184.953 22.2695C184.605 22.3633 184.25 22.4102 183.887 22.4102C183.043 22.4102 182.621 21.9316 182.621 20.9746V16.7441H181.889V15.9766H182.662L182.973 14.5586H183.676V15.9766H184.848V16.7441H183.676V20.7461C183.676 21.0508 183.726 21.2646 183.825 21.3877C183.925 21.5107 184.098 21.5723 184.344 21.5723C184.484 21.5723 184.687 21.5449 184.953 21.4902V22.2695Z" fill="#444444"/>
<path d="M103.359 17.5H133.359" stroke="#A855F7" stroke-width="3" stroke-dasharray="9 9"/>
</g>
<path d="M39.9999 3H0C11.0383 3 20 4.34425 20 5.99999V0C20 1.65574 11.0383 3 0 3H39.9999C28.9617 3 20 1.65574 20 0V5.99999C20 4.34425 28.9617 3 39.9999 3Z" fill="#808BA4"/>
</svg>
