<svg width="18" height="14" viewBox="0 0 18 14" fill="none" xmlns="http://www.w3.org/2000/svg">
<path d="M3.9375 4.375C5.14481 4.375 6.125 3.39481 6.125 2.1875C6.125 0.980186 5.14481 0 3.9375 0C2.73019 0 1.75 0.980186 1.75 2.1875C1.75 3.39481 2.73019 4.375 3.9375 4.375ZM14 4.375C15.2073 4.375 16.1875 3.39481 16.1875 2.1875C16.1875 0.980186 15.2073 0 14 0C12.7927 0 11.8125 0.980186 11.8125 2.1875C11.8125 3.39481 12.7927 4.375 14 4.375ZM0 8.16758C0 8.4875 0.2625 8.75 0.582422 8.75H6.41758C6.42305 8.75 6.42852 8.75 6.43672 8.75C5.70938 8.10742 5.25273 7.16953 5.25273 6.125C5.25273 5.91719 5.27187 5.71484 5.30469 5.51523C4.93281 5.34297 4.51992 5.25 4.08516 5.25H2.91758C1.30703 5.25 0 6.55703 0 8.16758ZM8.75 8.75C9.40625 8.75 10.0051 8.50937 10.4645 8.11289C10.5328 8.01172 10.6066 7.91328 10.6832 7.82031C10.757 7.73008 10.8391 7.65352 10.9293 7.59336C11.2109 7.17227 11.375 6.66914 11.375 6.125C11.375 4.67578 10.1992 3.5 8.75 3.5Cnan nan 6.125 4.67578 6.125 6.125Cnan nan 7.30078 8.75 8.75 8.75ZM10.5383 10.3961C10.2566 10.2348 10.0434 9.95312 9.96953 9.625H7.14492C5.13242 9.625 3.5 11.2574 3.5 13.2699C3.5 13.6719 3.82539 14 4.23008 14H12.4469C12.3895 13.8578 12.3594 13.702 12.3594 13.5516V13.4695C12.3238 13.4504 12.2855 13.4285 12.25 13.4066L12.1789 13.4477C11.7195 13.7129 11.0715 13.6664 10.6832 13.1824C10.5602 13.0293 10.448 12.868 10.3441 12.7012L10.3414 12.6957L10.3387 12.6902L10.273 12.5781L10.2703 12.5727L10.2676 12.5672C10.1746 12.3977 10.0926 12.2227 10.0215 12.0395C9.79727 11.4598 10.0816 10.8746 10.541 10.6094L10.6148 10.5684C10.6148 10.5465 10.6148 10.5273 10.6148 10.5055Cnan nan 10.6148 10.4645 10.6148 10.4426L10.541 10.4016L10.5383 10.3961ZM14.5824 5.25H13.4176C12.9828 5.25 12.5699 5.3457 12.198 5.51523C12.2336 5.71211 12.25 5.91719 12.25 6.125C12.25 6.60078 12.1543 7.05195 11.9848 7.46484C12.0531 7.48945 12.1188 7.51953 12.1789 7.55508L12.25 7.59609C12.2855 7.57422 12.3211 7.55234 12.3594 7.5332V7.45117C12.3594 6.9207 12.723 6.38203 13.3383 6.28633C13.5543 6.25352 13.7758 6.23438 14 6.23438Cnan nan 14.4457 6.25078 14.6617 6.28633C15.277 6.38203 15.6406 6.9207 15.6406 7.45117V7.5332C15.6762 7.55234 15.7145 7.57422 15.75 7.59609L15.8211 7.55508C16.2805 7.28984 16.9285 7.33633 17.3168 7.82031C17.3797 7.89687 17.4398 7.97891 17.4973 8.0582C17.4398 6.49687 16.1574 5.25 14.5824 5.25ZM17.0789 9.73164C17.2512 9.6332 17.3387 9.42813 17.2648 9.23945C17.2074 9.08906 17.1391 8.94414 17.0625 8.80469L16.9996 8.69531C16.9148 8.55586 16.8219 8.42461 16.7207 8.29883C16.5949 8.14297 16.3734 8.11563 16.2012 8.2168L15.7063 8.50391C15.4629 8.29609 15.184 8.13203 14.875 8.02266V7.44844C14.875 7.24883 14.741 7.07109 14.5441 7.04102C14.3664 7.01367 14.1859 7 14 7Cnan nan 13.6336 7.01367 13.4559 7.04102C13.259 7.07109 13.125 7.24883 13.125 7.44844V8.02266C12.8188 8.13203 12.5371 8.29609 12.2937 8.50391L11.7961 8.2168C11.6238 8.11836 11.4023 8.1457 11.2766 8.29883C11.1754 8.42461 11.0824 8.55859 10.9977 8.69805L10.9348 8.80469C10.8582 8.94414 10.7898 9.08906 10.7324 9.23945C10.6613 9.42539 10.7461 9.63047 10.9184 9.72891L11.416 10.016C11.3887 10.1719 11.3723 10.3332 11.3723 10.4973Cnan nan 11.3887 10.8227 11.416 10.9758L10.9184 11.2629C10.7461 11.3613 10.6586 11.5664 10.7324 11.7523C10.7898 11.9027 10.8582 12.0449 10.9348 12.1844L11.0004 12.2965C11.0824 12.4359 11.1754 12.5672 11.2766 12.693C11.4023 12.8488 11.6238 12.8762 11.7961 12.775L12.2937 12.4961C12.5371 12.7039 12.8188 12.868 13.125 12.9773V13.5516C13.125 13.7512 13.259 13.9289 13.4559 13.959C13.6336 13.9863 13.8141 14 14 14Cnan nan 14.3664 13.9863 14.5441 13.959C14.741 13.9289 14.875 13.7512 14.875 13.5516V12.9773C15.1812 12.868 15.4629 12.7039 15.7063 12.4961L16.2039 12.7832C16.3762 12.8816 16.5977 12.8543 16.7234 12.7012C16.8246 12.5754 16.9176 12.4441 16.9996 12.3047L17.0652 12.1898C17.1418 12.0504 17.2102 11.9082 17.2676 11.7578C17.3387 11.5719 17.2539 11.3668 17.0816 11.2684L16.584 10.9812C16.6113 10.8254 16.6277 10.6641 16.6277 10.5027Cnan nan 16.6113 10.1773 16.584 10.0215L17.0816 9.73438L17.0789 9.73164ZM12.9062 10.5C12.9062 9.89634 13.3963 9.40625 14 9.40625C14.6037 9.40625 15.0938 9.89634 15.0938 10.5C15.0938 11.1037 14.6037 11.5938 14 11.5938C13.3963 11.5938 12.9062 11.1037 12.9062 10.5Z" fill="#374151"/>
</svg>
