<svg width="17" height="18" viewBox="0 0 17 18" fill="none" xmlns="http://www.w3.org/2000/svg">
<path d="M16.9217 5.85814C17.0342 6.16406 16.9393 6.50514 16.6967 6.72315L15.1741 8.10857C15.2128 8.40042 15.2339 8.69931 15.2339 9.00171C15.2339 9.30411 15.2128 9.603 15.1741 9.89485L16.6967 11.2803C16.9393 11.4983 17.0342 11.8394 16.9217 12.1453C16.767 12.5637 16.5806 12.9646 16.3662 13.3514L16.2009 13.6362C15.9688 14.023 15.7086 14.3887 15.4238 14.7333C15.2163 14.9864 14.8717 15.0708 14.5623 14.9724L12.6037 14.35C12.1325 14.7122 11.6121 15.0146 11.0566 15.2431L10.617 17.2509C10.5467 17.5709 10.3005 17.8241 9.97705 17.8768C9.4918 17.9577 8.99249 17.9999 8.48263 17.9999C7.97276 17.9999 7.47345 17.9577 6.9882 17.8768C6.6647 17.8241 6.41856 17.5709 6.34824 17.2509L5.9087 15.2431C5.35313 15.0146 4.83271 14.7122 4.36153 14.35L2.40647 14.9759C2.09704 15.0743 1.75244 14.9864 1.54498 14.7368C1.26016 14.3922 0.999955 14.0265 0.767879 13.6397L0.602614 13.3549C0.38812 12.9681 0.201756 12.5672 0.0470395 12.1488C-0.0654819 11.8429 0.029458 11.5018 0.272082 11.2838L1.79464 9.89836C1.75596 9.60299 1.73486 9.30411 1.73486 9.00171C1.73486 8.69931 1.75596 8.40042 1.79464 8.10857L0.272082 6.72315C0.029458 6.50514 -0.0654819 6.16406 0.0470395 5.85814C0.201756 5.4397 0.38812 5.03885 0.602614 4.65206L0.767879 4.36724C0.999955 3.98044 1.26016 3.61475 1.54498 3.27015C1.75244 3.01698 2.09704 2.93259 2.40647 3.03104L4.36505 3.65343C4.83623 3.29125 5.35664 2.98885 5.91222 2.76029L6.35175 0.752487C6.42208 0.432504 6.66822 0.179331 6.99172 0.126587C7.47697 0.0421955 7.97628 0 8.48614 0C8.996 0 9.49532 0.0421955 9.98057 0.12307C10.3041 0.175815 10.5502 0.428988 10.6205 0.74897L11.0601 2.75677C11.6156 2.98533 12.1361 3.28773 12.6072 3.64991L14.5658 3.02753C14.8752 2.92907 15.2198 3.01698 15.4273 3.26664C15.7121 3.61123 15.9723 3.97693 16.2044 4.36372L16.3697 4.64854C16.5842 5.03533 16.7705 5.43619 16.9252 5.85463L16.9217 5.85814ZM8.48614 11.8147C10.0387 11.8147 11.2992 10.5543 11.2992 9.00171C11.2992 7.44915 10.0387 6.18868 8.48614 6.18868C6.93359 6.18868 5.67311 7.44915 5.67311 9.00171C5.67311 10.5543 6.93359 11.8147 8.48614 11.8147Z" fill="#374151"/>
</svg>
