<svg width="48" height="48" viewBox="0 0 48 48" fill="none" xmlns="http://www.w3.org/2000/svg">
<rect width="48" height="48" rx="8" fill="#F3E8FF"/>
<path d="M16.7344 18.7828L14.7047 19.2141L14.6953 25.8891C14.6953 27.1219 15.6234 27.9187 16.8563 27.9187C17.5406 27.9187 18.0422 27.7922 18.3188 27.6422V26.0578C18.0516 26.1656 16.7391 26.55 16.7391 25.3219V22.3594H18.3188V20.5875H16.7391L16.7344 18.7828ZM20.9109 21.2016L20.7844 20.5875H18.9844V27.7688H21.0609V22.9359C21.5531 22.2891 22.3828 22.4156 22.65 22.5V20.5875C22.3688 20.4891 21.3984 20.3062 20.9109 21.2016ZM25.2375 17.8125L23.1469 18.2578V19.9547L25.2375 19.5094V17.8125ZM11.1047 22.7016C11.1047 22.3781 11.3766 22.2516 11.8125 22.2469C12.4453 22.2469 13.2516 22.4391 13.8844 22.7812V20.8219C13.1953 20.55 12.5063 20.4422 11.8172 20.4422C10.1297 20.4422 9.0047 21.3234 9.0047 22.7953C9.0047 25.1016 12.1688 24.7266 12.1688 25.7203C12.1688 26.1047 11.8359 26.2312 11.3719 26.2312C10.6828 26.2312 9.7922 25.9453 9.09376 25.5656V27.4406C9.8672 27.7734 10.65 27.9141 11.3672 27.9141C13.0969 27.9141 14.2875 27.1734 14.2875 25.6734C14.2875 23.1938 11.1047 23.6391 11.1047 22.7016ZM39 24.2625C39 22.1297 37.9688 20.4469 35.9906 20.4469Cnan nan 32.8078 22.1297 32.8078 24.2484C32.8078 26.7563 34.2281 27.9141 36.2531 27.9141C37.2469 27.9141 37.9922 27.6891 38.5594 27.375V25.8094C37.9922 26.0953 37.3406 26.2688 36.5156 26.2688C35.7047 26.2688 34.9922 25.9828 34.8984 25.0078H38.9719C38.9813 24.9 39 24.4641 39 24.2625ZM34.8797 23.475C34.8797 22.5375 35.4563 22.1438 35.9766 22.1438C36.4875 22.1438 37.0313 22.5375 37.0313 23.475H34.8797ZM29.5875 20.4469C28.7719 20.4469 28.2469 20.8312 27.9563 21.0984L27.8484 20.5828H26.0156V30.1828L28.0969 29.7422L28.1016 27.3891C28.4016 27.6094 28.8469 27.9141 29.5735 27.9141C31.0641 27.9141 32.4235 26.8266 32.4235 24.1828C32.4281 21.7641 31.05 20.4469 29.5875 20.4469ZM29.0906 26.1891C28.6031 26.1891 28.3125 26.0109 28.111 25.7953L28.0969 22.7016C28.3125 22.4625 28.6125 22.2891 29.0906 22.2891C29.85 22.2891 30.375 23.1422 30.375 24.2297C30.3797 25.35 29.8641 26.1891 29.0906 26.1891ZM23.1516 27.7688H25.2422V20.5875H23.1516V27.7688Z" fill="#9333EA"/>
</svg>
