<svg width="48" height="48" viewBox="0 0 48 48" fill="none" xmlns="http://www.w3.org/2000/svg">
<rect width="48" height="48" rx="8" fill="#DBEAFE"/>
<path d="M20.6667 23.5144H19.4316C19.4639 23.2725 19.5872 22.8525 20.0709 22.8525C20.3873 22.8525 20.632 23.0316 20.6667 23.5144ZM27.0727 22.8638C27.0506 22.8638 26.4112 22.7808 26.4112 23.8013Cnan nan 27.0502 24.7388 27.0727 24.7388C27.682 24.7388 27.7341 24.1041 27.7341 23.8013C27.7341 22.7812 27.0937 22.8638 27.0727 22.8638ZM15.6717 23.9775C15.5674 24.0593 15.5098 24.1869 15.5175 24.3192C15.5175 24.5433 15.615 24.6028 15.6717 24.6497C15.892 24.8231 16.3781 24.7491 16.6528 24.6942V23.9002C16.4034 23.85 15.8686 23.8083 15.6717 23.9775ZM39 22.875C39 26.9803 35.25 30.112 31.2487 29.2702C30.3877 30.817 27.9333 32.5866 25.0519 31.2216C23.1225 35.7239 16.7133 35.5425 15.0295 30.9792C9.41765 32.0991 6.64734 24.4931 11.5012 21.638C9.87234 17.9147 12.5625 13.5 16.8595 13.5C18.6707 13.5011 20.3783 14.3449 21.4795 15.7828C22.4498 14.7797 23.7952 14.1511 25.2834 14.1511C27.2681 14.1511 28.9866 15.2536 29.9147 16.8966C34.2656 14.9897 39 18.2198 39 22.875ZM14.6461 24.3656C14.6461 23.8144 14.0981 23.6545 13.8084 23.5608C13.5614 23.4619 13.1798 23.3962 13.1798 23.1417C13.1798 22.6983 13.9767 22.8295 14.3597 23.0423C14.3597 23.0423 14.4145 23.0756 14.4366 23.0203C14.4478 22.9875 14.5472 22.7119 14.558 22.6786C14.5667 22.6513 14.5522 22.622 14.5252 22.6125C13.9472 22.2548 12.6173 22.2136 12.6173 23.2078C12.6173 23.7919 13.1559 23.9316 13.4555 24.0127C13.6767 24.0867 14.0728 24.1533 14.0728 24.4205C14.0728 24.608 13.9073 24.7514 13.643 24.7514C13.3218 24.7509 13.0093 24.6465 12.7523 24.4537C12.7303 24.443 12.6858 24.4205 12.675 24.487L12.5625 24.8372C12.5405 24.8813 12.5733 24.8925 12.5733 24.9033C12.6553 24.9689 13.0561 25.2122 13.643 25.2122C14.2603 25.2122 14.6461 24.8813 14.6461 24.3633V24.3656ZM16.1461 22.3697C15.6712 22.3697 15.2714 22.5183 15.143 22.6125C15.1326 22.6197 15.1255 22.6307 15.1234 22.6432C15.1213 22.6556 15.1243 22.6684 15.1317 22.6786L15.2531 23.0095C15.26 23.0334 15.2842 23.0478 15.3084 23.0423C15.3389 23.0423 15.6272 22.8548 16.102 22.8548C16.2895 22.8548 16.433 22.8881 16.5323 22.9655C16.7011 23.0967 16.6758 23.3541 16.6758 23.4614C16.4512 23.4473 15.78 23.3002 15.2972 23.6377C15.0735 23.7911 14.9437 24.0481 14.9531 24.3192C14.9531 24.5958 15.0239 24.8067 15.262 24.9919C15.8358 25.3744 16.9627 25.0856 17.048 25.058C17.122 25.043 17.2134 25.027 17.2134 24.9698V23.3817C17.2153 23.1656 17.2284 22.3673 16.1456 22.3673L16.1461 22.3697ZM18.3281 21.3863C18.3291 21.3713 18.3236 21.3567 18.313 21.3461C18.3024 21.3355 18.2878 21.33 18.2728 21.3309H17.8125C17.7976 21.3301 17.7831 21.3357 17.7726 21.3463C17.7621 21.3568 17.7567 21.3714 17.7577 21.3863V25.0894C17.7567 25.1042 17.7621 25.1188 17.7726 25.1294C17.7831 25.1399 17.7976 25.1455 17.8125 25.1447H18.2756C18.2906 25.1457 18.3052 25.1402 18.3158 25.1296C18.3264 25.119 18.3319 25.1043 18.3309 25.0894L18.3281 21.3863ZM20.9414 22.7423C20.843 22.6341 20.6231 22.3894 20.1141 22.3894C19.9495 22.3894 19.4503 22.4002 19.1437 22.8084C18.8461 23.1661 18.8353 23.6573 18.8353 23.812C18.8353 23.9583 18.8423 24.4805 19.1662 24.8044C19.29 24.9408 19.5909 25.1902 20.2355 25.1902C20.7427 25.1902 21.0075 25.08 21.1064 25.0139C21.1284 25.0027 21.1397 24.9806 21.1177 24.9258L21.0075 24.6056C20.9958 24.5806 20.9684 24.5669 20.9414 24.5728C20.82 24.6169 20.6437 24.705 20.2247 24.705C19.4081 24.705 19.4348 24.0141 19.4306 23.9222H21.173C21.1991 23.9216 21.2216 23.9036 21.2278 23.8781C21.2142 23.8781 21.3248 23.1891 20.9423 22.7423H20.9414ZM22.6612 25.2122C23.2786 25.2122 23.6648 24.8813 23.6648 24.3633C23.6648 23.812 23.1164 23.6522 22.8267 23.5584C22.6327 23.4806 22.1981 23.4 22.1981 23.1394C22.1981 22.9631 22.3523 22.8417 22.5952 22.8417C22.8678 22.8472 23.1356 22.915 23.378 23.04C23.4333 23.062 23.4333 23.0733 23.4553 23.018C23.4661 22.9852 23.5655 22.7095 23.5762 22.6763C23.585 22.649 23.5704 22.6197 23.5434 22.6102C23.1727 22.3805 22.7587 22.3786 22.5952 22.3786C22.0327 22.3786 21.6361 22.7203 21.6361 23.2055C21.6361 23.7895 22.1742 23.9292 22.4737 24.0103C22.7602 24.1041 23.0911 24.1631 23.0911 24.4181C23.0911 24.6056 22.9261 24.7491 22.6612 24.7491C22.3401 24.7484 22.0277 24.644 21.7706 24.4514C21.757 24.4398 21.738 24.4368 21.7216 24.4439C21.7051 24.451 21.6942 24.4668 21.6933 24.4847L21.5831 24.8372C21.5611 24.8813 21.5939 24.8925 21.5939 24.9033C21.6745 24.9689 22.0781 25.2122 22.6622 25.2122H22.6612ZM25.7386 22.5C25.7386 22.4667 25.7273 22.4447 25.6833 22.4447H25.132C25.132 22.4381 25.1761 22.0256 25.3416 21.8602C25.5366 21.6656 25.8928 21.7833 25.9041 21.7833C25.9589 21.8053 25.9702 21.7833 25.9809 21.7612L26.1136 21.397C26.1464 21.353 26.1136 21.3422 26.1023 21.3309C25.8637 21.2372 25.2891 21.1964 24.9558 21.5297C24.6989 21.7866 24.6277 22.1822 24.5808 22.4447H24.1837C24.1544 22.4471 24.1311 22.4706 24.1289 22.5L24.0623 22.8638C24.0623 22.8966 24.0736 22.9186 24.1177 22.9186H24.5034C24.1045 25.1639 24.0933 25.2722 24.0183 25.5211C23.9677 25.6908 23.8641 25.8445 23.7427 25.8848C23.7384 25.8848 23.5608 25.9636 23.2908 25.8736C23.2908 25.8736 23.2467 25.8516 23.2247 25.9069C23.2134 25.9402 23.1033 26.2266 23.092 26.2598Cnan nan 23.092 26.3259 23.1141 26.3259C23.3536 26.4197 23.7234 26.4089 23.9522 26.3259C24.2466 26.2191 24.4078 25.9561 24.4927 25.7194C24.6216 25.358 24.6244 25.2605 25.0439 22.9191H25.6172C25.6467 22.9166 25.6701 22.8932 25.6725 22.8638L25.7386 22.5ZM28.2412 23.25C28.215 23.1713 28.0022 22.4011 27.0614 22.4011C26.3466 22.4011 25.9833 22.8698 25.882 23.25C25.8352 23.3906 25.733 23.9062 25.882 24.3525C25.8862 24.3666 26.0887 25.2019 27.0614 25.2019C27.7622 25.2019 28.1348 24.7514 28.2412 24.3525C28.3917 23.902 28.2886 23.3906 28.2412 23.25ZM30.3694 22.4672C30.135 22.3898 29.5903 22.3781 29.333 22.7208V22.5112C29.3338 22.4964 29.3282 22.4819 29.3176 22.4714C29.3071 22.4609 29.2925 22.4554 29.2777 22.4564H28.837C28.8222 22.4554 28.8076 22.4609 28.797 22.4714C28.7865 22.4819 28.7809 22.4964 28.7817 22.5112V25.1025C28.7809 25.1174 28.7865 25.132 28.797 25.1425C28.8076 25.1531 28.8221 25.1586 28.837 25.1578H29.2889C29.3038 25.1586 29.3184 25.1531 29.3289 25.1425C29.3395 25.132 29.345 25.1174 29.3442 25.1025V23.8008C29.3442 23.6644 29.3466 23.2678 29.5533 23.0953C29.783 22.8656 30.1158 22.9378 30.1819 22.9519C30.2106 22.9514 30.2364 22.9341 30.248 22.9078C30.303 22.7857 30.3509 22.6605 30.3914 22.5328C30.401 22.5084 30.3917 22.4805 30.3694 22.4667V22.4672ZM32.5636 25.0031L32.4642 24.6614C32.4422 24.6061 32.3981 24.6281 32.3981 24.6281C32.1998 24.7134 31.9223 24.7167 31.8689 24.7167C31.6514 24.7167 31.0641 24.6638 31.0641 23.7905C31.0641 23.4984 31.1508 22.8642 31.8361 22.8642C32.0192 22.8596 32.2017 22.8857 32.3761 22.9416C32.4314 22.9528 32.4202 22.9636 32.4314 22.9083C32.4755 22.7869 32.5083 22.6987 32.5528 22.5553C32.5636 22.5112 32.5308 22.5005 32.5195 22.5005C31.9762 22.3191 31.4723 22.3819 31.2183 22.5005C31.1437 22.5352 30.4575 22.8047 30.4575 23.7905C30.4575 23.9264 30.4303 25.2019 31.8141 25.2019C32.0625 25.2014 32.3089 25.1565 32.5416 25.0692C32.5622 25.0539 32.571 25.0273 32.5636 25.0027V25.0031ZM35.0887 23.1506C35.0512 23.01 34.837 22.3898 34.0411 22.3898C33.2911 22.3898 32.9386 22.8637 32.8392 23.2612C32.7851 23.4399 32.759 23.6259 32.7619 23.8125C32.7619 25.0252 33.645 25.1906 34.1625 25.1906C34.6697 25.1906 34.9341 25.0805 35.0334 25.0144C35.0555 25.0031 35.0667 24.9811 35.0447 24.9263L34.9341 24.6061C34.9224 24.581 34.895 24.5674 34.868 24.5733C34.7466 24.6173 34.5703 24.7055 34.1512 24.7055C33.3347 24.7055 33.3614 24.0145 33.3577 23.9227H35.0995C35.1257 23.922 35.1483 23.904 35.1548 23.8786C35.1436 23.8781 35.1989 23.5472 35.0887 23.1502V23.1506ZM33.997 22.853C33.5128 22.853 33.3877 23.2748 33.3577 23.5148H34.5937C34.5525 22.9561 34.2366 22.8525 33.997 22.8525V22.853Z" fill="#2563EB"/>
</svg>
