<svg width="56" height="56" viewBox="0 0 56 56" fill="none" xmlns="http://www.w3.org/2000/svg">
<rect width="56" height="56" rx="12" fill="url(#paint0_linear_15_239)"/>
<path d="M23.5 16C24.3297 16 25 16.6703 25 17.5V19H31V17.5C31 16.6703 31.6703 16 32.5 16C33.3297 16 34 16.6703 34 17.5V19H36.25C37.4922 19 38.5 20.0078 38.5 21.25V23.5H17.5V21.25C17.5 20.0078 18.5078 19 19.75 19H22V17.5C22 16.6703 22.6703 16 23.5 16ZM17.5 25H38.5V37.75C38.5 38.9922 37.4922 40 36.25 40H19.75C18.5078 40 17.5 38.9922 17.5 37.75V25ZM20.5 28.75V30.25C20.5 30.6625 20.8375 31 21.25 31H22.75C23.1625 31 23.5 30.6625 23.5 30.25V28.75C23.5 28.3375 23.1625 28 22.75 28H21.25C20.8375 28 20.5 28.3375 20.5 28.75ZM26.5 28.75V30.25C26.5 30.6625 26.8375 31 27.25 31H28.75C29.1625 31 29.5 30.6625 29.5 30.25V28.75C29.5 28.3375 29.1625 28 28.75 28H27.25C26.8375 28 26.5 28.3375 26.5 28.75ZM33.25 28C32.8375 28 32.5 28.3375 32.5 28.75V30.25C32.5 30.6625 32.8375 31 33.25 31H34.75C35.1625 31 35.5 30.6625 35.5 30.25V28.75C35.5 28.3375 35.1625 28 34.75 28H33.25ZM20.5 34.75V36.25C20.5 36.6625 20.8375 37 21.25 37H22.75C23.1625 37 23.5 36.6625 23.5 36.25V34.75C23.5 34.3375 23.1625 34 22.75 34H21.25C20.8375 34 20.5 34.3375 20.5 34.75ZM27.25 34C26.8375 34 26.5 34.3375 26.5 34.75V36.25C26.5 36.6625 26.8375 37 27.25 37H28.75C29.1625 37 29.5 36.6625 29.5 36.25V34.75C29.5 34.3375 29.1625 34 28.75 34H27.25ZM32.5 34.75V36.25C32.5 36.6625 32.8375 37 33.25 37H34.75C35.1625 37 35.5 36.6625 35.5 36.25V34.75C35.5 34.3375 35.1625 34 34.75 34H33.25C32.8375 34 32.5 34.3375 32.5 34.75Z" fill="white"/>
<defs>
<linearGradient id="paint0_linear_15_239" x1="0" y1="0" x2="56" y2="56" gradientUnits="userSpaceOnUse">
<stop stop-color="#F59E0B"/>
<stop offset="1" stop-color="#EA580C"/>
</linearGradient>
</defs>
</svg>
