<svg width="48" height="48" viewBox="0 0 48 48" fill="none" xmlns="http://www.w3.org/2000/svg">
<rect width="48" height="48" rx="8" fill="#E0E7FF"/>
<path d="M35.4375 24.2719C35.4375 30.9047 30.8953 35.625 24.1875 35.625C17.7562 35.625 12.5625 30.4312 12.5625 24C12.5625 17.5687 17.7562 12.375 24.1875 12.375C27.3188 12.375 29.9531 13.5234 31.9828 15.4172L28.8188 18.4594C24.6797 14.4656 16.9828 17.4656 16.9828 24C16.9828 28.0547 20.2219 31.3406 24.1875 31.3406C28.7906 31.3406 30.5156 28.0406 30.7875 26.3297H24.1875V22.3313H35.2547C35.3625 22.9266 35.4375 23.4984 35.4375 24.2719Z" fill="#4F46E5"/>
</svg>
