<svg width="56" height="56" viewBox="0 0 56 56" fill="none" xmlns="http://www.w3.org/2000/svg">
<rect width="56" height="56" rx="12" fill="url(#paint0_linear_15_187)"/>
<path d="M17.5 22C17.5 18.6885 20.1885 16 23.5 16C26.8115 16 29.5 18.6885 29.5 22C29.5 25.3115 26.8115 28 23.5 28C20.1885 28 17.5 25.3115 17.5 22ZM13 38.6078C13 33.9906 16.7406 30.25 21.3578 30.25H25.6422C30.2594 30.25 34 33.9906 34 38.6078C34 39.3766 33.3766 40 32.6078 40H14.3922C13.6234 40 13 39.3766 13 38.6078ZM42.2969 24.2969L36.2969 30.2969C35.8563 30.7375 35.1438 30.7375 34.7078 30.2969L31.7078 27.2969C31.2672 26.8562 31.2672 26.1438 31.7078 25.7078Cnan nan 32.8609 25.2672 33.2969 25.7078L35.5 27.9109L40.7031 22.7031C41.1437 22.2625 41.8562 22.2625 42.2922 22.7031Cnan nan 42.7328 23.8563 42.2922 24.2922L42.2969 24.2969Z" fill="white"/>
<defs>
<linearGradient id="paint0_linear_15_187" x1="0" y1="0" x2="56" y2="56" gradientUnits="userSpaceOnUse">
<stop stop-color="#3B82F6"/>
<stop offset="1" stop-color="#2563EB"/>
</linearGradient>
</defs>
</svg>
