<svg width="48" height="48" viewBox="0 0 48 48" fill="none" xmlns="http://www.w3.org/2000/svg">
<rect width="48" height="48" rx="8" fill="#FFEDD5"/>
<path d="M24.5344 21.9187C23.3578 23.0297 22.6219 24.6047 22.6219 26.3531C22.6219 27.7266 23.0766 28.9922 23.8406 30.0094L21.5203 32.3438C21.3141 32.2687 21.0937 32.2266 20.8641 32.2266C20.3578 32.2266 19.8844 32.4234 19.5281 32.7797C19.1719 33.1359 18.975 33.6141 18.975 34.1203C18.975 34.6266 19.1719 35.1 19.5281 35.4562C19.8844 35.8125 20.3625 36 20.8641 36C21.3703 36 21.8437 35.8172 22.2047 35.4562C22.5609 35.1 22.7578 34.6219 22.7578 34.1203C22.7578 33.9234 22.7297 33.7359 22.6687 33.5531L25.0125 31.2C26.0437 31.9922 27.3281 32.4609 28.7297 32.4609C32.1 32.4609 34.8234 29.7281 34.8234 26.3578C34.8234 23.3016 32.5875 20.7703 29.6578 20.325V17.4375C30.4781 17.0906 30.9797 16.3219 30.9797 15.4266C30.9797 14.2031 30 13.1812 28.7766 13.1812C27.5531 13.1812 26.5875 14.2031 26.5875 15.4266C26.5875 16.3219 27.0891 17.0906 27.9094 17.4375V20.3062C27.1969 20.4047 26.5219 20.6203 25.9078 20.9438C24.6141 19.9641 20.4 16.9266 17.9906 15.0938C18.0469 14.8875 18.0844 14.6719 18.0844 14.4469C18.0844 13.0969 16.9828 12 15.6281 12C14.2781 12 13.1812 13.0969 13.1812 14.4469C13.1812 15.8016 14.2781 16.8984 15.6281 16.8984C16.0875 16.8984 16.5141 16.7625 16.8844 16.5422L24.5344 21.9187ZM28.7297 29.5875C26.9437 29.5875 25.4953 28.1391 25.4953 26.3531Cnan nan 26.9437 23.1187 28.7297 23.1187Cnan nan 31.9641 24.5672 31.9641 26.3531Cnan nan 30.5156 29.5875 28.7297 29.5875Z" fill="#EA580C"/>
</svg>
