<svg width="56" height="56" viewBox="0 0 56 56" fill="none" xmlns="http://www.w3.org/2000/svg">
<rect width="56" height="56" rx="12" fill="url(#paint0_linear_15_291)"/>
<path d="M18.2641 18.0625C17.7719 19.2766 17.5 20.6032 17.5 22C17.5 23.3969 17.7719 24.7235 18.2641 25.9375C18.5734 26.7063 18.2031 27.5782 17.4344 27.8922C16.6656 28.2063 15.7938 27.8313 15.4797 27.0625C14.8469 25.4969 14.5 23.786 14.5 22C14.5 20.2141 14.8469 18.5032 15.4797 16.9375C15.7938 16.1688 16.6656 15.7985 17.4344 16.1078C18.2031 16.4172 18.5734 17.2938 18.2641 18.0625ZM40.5203 16.9375C41.1531 18.5032 41.5 20.2141 41.5 22C41.5 23.786 41.1531 25.4969 40.5203 27.0625C40.2109 27.8313 39.3344 28.2016 38.5656 27.8922Cnan nan 37.4266 26.7063 37.7359 25.9375C38.2281 24.7235 38.5 23.3969 38.5 22Cnan nan 38.2281 19.2766 37.7359 18.0625C37.4266 17.2938 37.7969 16.4219 38.5656 16.1078C39.3344 15.7938 40.2063 16.1688 40.5203 16.9375ZM31 22C31 23.111 30.3953 24.0813 29.5 24.5969V38.5C29.5 39.3297 28.8297 40 28 40Cnan nan 26.5 39.3297 26.5 38.5V24.5969C25.6047 24.0766 25 23.111 25 22C25 20.3453 26.3453 19 28 19Cnan nan 31 20.3453 31 22ZM22.4969 19.6C22.1781 20.3313 22 21.1422 22 22C22 22.8578 22.1781 23.6688 22.4969 24.4C22.8297 25.1594 22.4828 26.0453 21.7234 26.3735Cnan nan 20.0781 26.3594 19.75 25.6C19.2672 24.4938 19 23.275 19 22Cnan nan 19.2672 19.5063 19.75 18.4C20.0828 17.6407 20.9641 17.2938 21.7234 17.6266Cnan nan 22.8297 18.8407 22.4969 19.6ZM36.25 18.4C36.7328 19.5063 37 20.725 37 22Cnan nan 36.7328 24.4938 36.25 25.6C35.9172 26.3594 35.0359 26.7063 34.2766 26.3735Cnan nan 33.1703 25.1594 33.5031 24.4C33.8219 23.6688 34 22.8578 34 22Cnan nan 33.8219 20.3313 33.5031 19.6C33.1703 18.8407 33.5172 17.9547 34.2766 17.6266Cnan nan 35.9219 17.6407 36.25 18.4Z" fill="white"/>
<defs>
<linearGradient id="paint0_linear_15_291" x1="0" y1="0" x2="56" y2="56" gradientUnits="userSpaceOnUse">
<stop stop-color="#EC4899"/>
<stop offset="1" stop-color="#E11D48"/>
</linearGradient>
</defs>
</svg>
