<svg width="48" height="48" viewBox="0 0 48 48" fill="none" xmlns="http://www.w3.org/2000/svg">
<rect width="48" height="48" rx="8" fill="#DCFCE7"/>
<path d="M17.9119 26.7703C17.9119 27.9844 16.92 28.9762 15.7059 28.9762C14.4919 28.9762 13.5 27.9844 13.5 26.7703C13.5 25.5562 14.4919 24.5644 15.7059 24.5644H17.9119V26.7703ZM19.0237 26.7703C19.0237 25.5562 20.0156 24.5644 21.2297 24.5644Cnan nan 23.4356 25.5562 23.4356 26.7703V32.2941C23.4356 33.5081 22.4438 34.5 21.2297 34.5Cnan nan 19.0237 33.5081 19.0237 32.2941V26.7703ZM21.2297 17.9119C20.0156 17.9119 19.0237 16.92 19.0237 15.7059Cnan nan 20.0156 13.5 21.2297 13.5C21.2297 13.5 23.4356 14.4919 23.4356 15.7059V17.9119H21.2297ZM21.2297 19.0237C22.4438 19.0237 23.4356 20.0156 23.4356 21.2297Cnan nan 22.4438 23.4356 21.2297 23.4356H15.7059C14.4919 23.4356 13.5 22.4438 13.5 21.2297C13.5 20.0156 14.4919 19.0237 15.7059 19.0237H21.2297ZM30.0881 21.2297C30.0881 20.0156 31.08 19.0237 32.2941 19.0237C33.5081 19.0237 34.5 20.0156 34.5 21.2297Cnan nan 33.5081 23.4356 32.2941 23.4356H30.0881V21.2297ZM28.9762 21.2297C28.9762 22.4438 27.9844 23.4356 26.7703 23.4356C25.5562 23.4356 24.5644 22.4438 24.5644 21.2297V15.7059C24.5644 14.4919 25.5562 13.5 26.7703 13.5C27.9844 13.5 28.9762 14.4919 28.9762 15.7059V21.2297ZM26.7703 30.0881C27.9844 30.0881 28.9762 31.08 28.9762 32.2941C28.9762 33.5081 27.9844 34.5 26.7703 34.5C25.5562 34.5 24.5644 33.5081 24.5644 32.2941V30.0881H26.7703ZM26.7703 28.9762C25.5562 28.9762 24.5644 27.9844 24.5644 26.7703C24.5644 25.5562 25.5562 24.5644 26.7703 24.5644H32.2941C33.5081 24.5644 34.5 25.5562 34.5 26.7703C34.5 27.9844 33.5081 28.9762 32.2941 28.9762H26.7703Z" fill="#16A34A"/>
</svg>
