<svg width="56" height="56" viewBox="0 0 56 56" fill="none" xmlns="http://www.w3.org/2000/svg">
<rect width="56" height="56" rx="12" fill="url(#paint0_linear_15_213)"/>
<path d="M17.5 19.75C17.5 18.5078 18.5078 17.5 19.75 17.5H24.25C25.4922 17.5 26.5 18.5078 26.5 19.75V24.25C26.5 25.4922 25.4922 26.5 24.25 26.5H19.75C18.5078 26.5 17.5 25.4922 17.5 24.25V19.75ZM20.5 20.5V23.5H23.5V20.5H20.5ZM17.5 31.75C17.5 30.5078 18.5078 29.5 19.75 29.5H24.25C25.4922 29.5 26.5 30.5078 26.5 31.75V36.25C26.5 37.4922 25.4922 38.5 24.25 38.5H19.75C18.5078 38.5 17.5 37.4922 17.5 36.25V31.75ZM20.5 32.5V35.5H23.5V32.5H20.5ZM31.75 17.5H36.25C37.4922 17.5 38.5 18.5078 38.5 19.75V24.25C38.5 25.4922 37.4922 26.5 36.25 26.5H31.75C30.5078 26.5 29.5 25.4922 29.5 24.25V19.75C29.5 18.5078 30.5078 17.5 31.75 17.5ZM35.5 20.5H32.5V23.5H35.5V20.5ZM29.5 30.25C29.5 29.8375 29.8375 29.5 30.25 29.5H33.25C33.6625 29.5 34 29.8375 34 30.25Cnan nan 34.3375 31 34.75 31H36.25C36.6625 31 37 30.6625 37 30.25Cnan nan 37.3375 29.5 37.75 29.5Cnan nan 38.5 29.8375 38.5 30.25V34.75C38.5 35.1625 38.1625 35.5 37.75 35.5H34.75C34.3375 35.5 34 35.1625 34 34.75Cnan nan 33.6625 34 33.25 34Cnan nan 32.5 34.3375 32.5 34.75V37.75C32.5 38.1625 32.1625 38.5 31.75 38.5H30.25C29.8375 38.5 29.5 38.1625 29.5 37.75V30.25ZM34.75 38.5C34.3361 38.5 34 38.1639 34 37.75C34 37.3361 34.3361 37 34.75 37C35.1639 37 35.5 37.3361 35.5 37.75C35.5 38.1639 35.1639 38.5 34.75 38.5ZM37.75 38.5C37.3361 38.5 37 38.1639 37 37.75C37 37.3361 37.3361 37 37.75 37C38.1639 37 38.5 37.3361 38.5 37.75C38.5 38.1639 38.1639 38.5 37.75 38.5Z" fill="white"/>
<defs>
<linearGradient id="paint0_linear_15_213" x1="0" y1="0" x2="56" y2="56" gradientUnits="userSpaceOnUse">
<stop stop-color="#10B981"/>
<stop offset="1" stop-color="#16A34A"/>
</linearGradient>
</defs>
</svg>
