<svg width="40" height="40" viewBox="0 0 40 40" fill="none" xmlns="http://www.w3.org/2000/svg">
<rect width="40" height="40" rx="8" fill="url(#paint0_linear_15_1108)"/>
<path d="M16.625 11C17.2473 11 17.75 11.5027 17.75 12.125V13.25H22.25V12.125C22.25 11.5027 22.7527 11 23.375 11C23.9973 11 24.5 11.5027 24.5 12.125V13.25H26.1875C27.1191 13.25 27.875 14.0059 27.875 14.9375V16.625H12.125V14.9375C12.125 14.0059 12.8809 13.25 13.8125 13.25H15.5V12.125C15.5 11.5027 16.0027 11 16.625 11ZM12.125 17.75H27.875V27.3125C27.875 28.2441 27.1191 29 26.1875 29H13.8125C12.8809 29 12.125 28.2441 12.125 27.3125V17.75ZM23.6914 21.7227C24.0219 21.3922 24.0219 20.8578 23.6914 20.5309Cnan nan 22.8266 20.2004 22.4996 20.5309L19.1598 23.8707L17.5074 22.2184C17.177 21.8879 16.6426 21.8879 16.3156 22.2184Cnan nan 15.9852 23.0832 16.3156 23.4102L18.5656 25.6602C18.8961 25.9906 19.4305 25.9906 19.7574 25.6602L23.6914 21.7227Z" fill="white"/>
<defs>
<linearGradient id="paint0_linear_15_1108" x1="0" y1="0" x2="40" y2="40" gradientUnits="userSpaceOnUse">
<stop stop-color="#3B82F6"/>
<stop offset="1" stop-color="#2563EB"/>
</linearGradient>
</defs>
</svg>
