<svg width="48" height="48" viewBox="0 0 48 48" fill="none" xmlns="http://www.w3.org/2000/svg">
<rect width="48" height="48" rx="8" fill="#F3F4F6"/>
<path d="M27.4125 12.0563C26.6157 11.8267 25.786 12.2907 25.5563 13.0876L19.5563 34.0876C19.3266 34.8845 19.7907 35.7142 20.5875 35.9438C21.3844 36.1735 22.2141 35.7095 22.4438 34.9126L28.4438 13.9126C28.6735 13.1157 28.2094 12.286 27.4125 12.0563ZM31.1907 17.686C30.6047 18.272 30.6047 19.2235 31.1907 19.8095L35.3766 24.0001L31.186 28.1907C30.6 28.7767 30.6 29.7282 31.186 30.3142Cnan nan 32.7235 30.9001 33.3094 30.3142L38.5594 25.0642C39.1454 24.4782 39.1454 23.5267 38.5594 22.9407L33.3094 17.6907C32.7235 17.1048 31.7719 17.1048 31.186 17.6907L31.1907 17.686ZM16.8141 17.686C16.2282 17.1001 15.2766 17.1001 14.6907 17.686L9.44067 22.936C8.85474 23.522 8.85474 24.4735 9.44067 25.0595L14.6907 30.3095C15.2766 30.8954 16.2282 30.8954 16.8141 30.3095Cnan nan 17.4 28.772 16.8141 28.186L12.6235 24.0001L16.8141 19.8095C17.4 19.2235 17.4 18.272 16.8141 17.686Z" fill="#4B5563"/>
</svg>
