<svg width="48" height="48" viewBox="0 0 48 48" fill="none" xmlns="http://www.w3.org/2000/svg">
<rect width="48" height="48" rx="8" fill="#FEE2E2"/>
<path d="M28.9974 23.415C29.1421 23.3962 29.2886 23.3962 29.4333 23.415C29.5111 23.2354 29.5247 22.9261 29.4544 22.5895C29.3499 22.0893 29.2083 21.7861 28.9163 21.8334C28.6242 21.8807 28.613 22.2431 28.7175 22.7437C28.7766 23.025 28.8811 23.2659 28.9988 23.415H28.9974ZM26.4867 23.8125C26.6963 23.9062 26.8242 23.9653 26.8749 23.9123C26.9635 23.8214 26.7117 23.4721 26.3067 23.2987C25.8312 23.1017 25.2872 23.1671 24.8719 23.4712C24.7313 23.5734 24.5996 23.7159 24.6183 23.8021C24.6581 23.9775 25.0871 23.6751 25.6777 23.639C26.0058 23.6184 26.2777 23.7211 26.4867 23.8129V23.8125ZM26.0649 24.0529C25.6397 24.1195 25.3617 24.359 25.4335 24.5264C25.4756 24.5423 25.4883 24.5643 25.6777 24.4884C25.9574 24.3828 26.2597 24.3513 26.5552 24.397C26.6921 24.4129 26.7572 24.4214 26.7867 24.374C26.8552 24.27 26.5191 23.999 26.0653 24.0529H26.0649ZM28.6041 24.8545C28.7625 24.5325 28.0931 24.2015 27.9338 24.5264Cnan nan 28.4456 25.177 28.605 24.8531L28.6041 24.8545ZM29.3381 23.895C28.9791 23.8889 28.9655 24.6356 29.326 24.6417Cnan nan 29.7 23.9006 29.3391 23.8936L29.3381 23.895ZM19.0824 27.5934C19.0205 27.6079 18.8011 27.6614 18.6853 27.4832C18.4416 27.1082 19.2061 26.5279 18.826 25.8065C18.3994 24.9876 17.5219 25.1718 17.183 25.5468C16.7747 25.9968 16.7742 26.6503 16.9486 26.6756C17.1488 26.7023 17.1399 26.3723 17.2946 26.1304C17.3819 25.9957 17.5194 25.9015 17.6765 25.8687C17.8337 25.836 17.9974 25.8674 18.1313 25.9561C18.6746 26.3118 18.1955 26.7886 18.2381 27.2976C18.3033 28.0795 19.1016 28.065 19.2497 27.7195C19.2693 27.6846 19.2656 27.6413 19.2403 27.6103C19.2417 27.652 19.2722 27.5493 19.0833 27.592L19.0824 27.5934ZM33.1317 26.7932C32.9747 26.2434 33.0113 26.3611 32.8139 25.8314C32.9288 25.6593 33.5306 24.7064 32.67 23.804C32.1825 23.2921 31.081 23.0287 30.7435 22.935C30.6731 22.4011 30.9614 20.1834 29.7347 19.0443C30.7092 18.0342 31.3172 16.9214 31.3158 15.967C31.313 14.1314 29.0588 13.5764 26.2805 14.7262L25.6922 14.9761C25.6894 14.9737 24.6277 13.9321 24.6117 13.9181C21.4453 11.1562 11.5421 22.1629 14.7085 24.8367L15.4003 25.4231C15.2136 25.9241 15.1478 26.4621 15.2081 26.9934C15.3656 28.559 16.8956 29.8256 18.3736 29.8237C21.0797 36.0609 30.9314 36.0712 33.481 29.9643C33.5625 29.7548 33.908 28.8107 33.908 27.9778Cnan nan 33.435 26.7932 33.1331 26.7932H33.1317ZM18.3192 29.0507C17.2496 29.0221 16.0946 28.0593 15.9797 26.9175C15.6905 24.0436 19.4606 23.3892 19.9172 26.3395C20.13 27.7289 19.6983 29.0812 18.3178 29.0493L18.3192 29.0507ZM17.4516 23.6976C16.741 23.8359 16.1147 24.2386 15.7313 24.7968C15.5025 24.6061 15.075 24.2343 15.0005 24.0937C14.3906 22.9289 15.668 20.6718 16.5614 19.3964C18.7697 16.245 22.2277 13.86 23.8294 14.2926C24.0896 14.3662 24.9516 15.3656 24.9516 15.3656Cnan nan 23.3508 16.2534 21.8672 17.4914C19.8675 19.0312 18.3567 21.269 17.4516 23.6976ZM28.6491 28.439C29.2289 26.8561 26.9738 28.6875 25.3908 28.1076C25.6819 27.1626 26.6564 28.3936 29.9096 27.4603C30.6263 27.255 31.5675 26.8509 32.3002 26.272C32.4578 26.6362 32.5699 27.0185 32.6339 27.4101C32.8055 27.3792 33.3019 27.3857 33.1702 28.2586C33.016 29.19 32.6203 29.9461 31.9547 30.6417C31.539 31.0922 31.044 31.4625 30.4946 31.7343C30.1885 31.8947 29.8696 32.0292 29.5411 32.1365C27.0328 32.9559 24.4646 32.055 23.6349 30.1209C23.5676 29.9733 23.5119 29.8206 23.4685 29.6643C23.1155 28.3893 23.415 26.8598 24.3516 25.897C24.4092 25.8356 24.4678 25.7634 24.4678 25.6725C24.4597 25.5942 24.4283 25.5201 24.3778 25.4596C24.0497 24.9848 22.9158 24.1753 23.1436 22.6082C23.3077 21.4832 24.2916 20.6906 25.2094 20.7375L25.4438 20.7511C25.8413 20.7745 26.1886 20.8256 26.5163 20.8392C27.0642 20.8626 27.5569 20.7834 28.14 20.2973C28.3369 20.1332 28.4949 19.9907 28.7616 19.9453C28.9795 19.8913 29.21 19.9293 29.3991 20.0503C29.8678 20.3615 29.9335 21.1157 29.9578 21.667C29.9714 21.982 30.0094 22.7451 30.0225 22.9621C30.0521 23.4623 30.1833 23.5326 30.4496 23.6184C30.5991 23.6676 30.7378 23.7042 30.9422 23.7618C31.5614 23.9357 31.9266 24.1125 32.161 24.3389C32.2805 24.4559 32.3585 24.6088 32.3831 24.7743C32.4563 25.3073 31.9697 25.965 30.6811 26.5631C28.4916 27.5793 26.2899 27.2404 25.9711 27.2043C25.0266 27.0773 24.4885 28.2975 25.0547 29.1332C26.116 30.6993 30.7922 30.0707 32.1502 28.1325C32.1825 28.0856 32.1558 28.0579 32.116 28.0856C30.158 29.4253 27.5663 29.8767 26.0944 29.3043C25.8708 29.2176 25.4039 29.0025 25.3472 28.5229C27.391 29.1553 28.6753 28.5576 28.6753 28.5576Cnan nan 28.7705 28.4268 28.6491 28.439ZM21.5302 19.3828C22.3149 18.4757 23.2814 17.6868 24.1472 17.2439C24.1607 17.2359 24.1778 17.2381 24.1888 17.2491C24.1999 17.2602 24.202 17.2773 24.1941 17.2907C24.1256 17.4154 23.993 17.6817 23.9508 17.8837C23.9474 17.8979 23.9531 17.9128 23.9652 17.921C23.9773 17.9293 23.9932 17.9292 24.0052 17.9207C24.5438 17.5537 25.4808 17.1604 26.3021 17.1098C26.3179 17.1087 26.3327 17.1182 26.3383 17.1331C26.3439 17.148 26.3391 17.1648 26.3264 17.1745C26.1906 17.2791 26.0691 17.4011 25.965 17.5373C25.9574 17.5479 25.9562 17.5618 25.962 17.5736C25.9678 17.5853 25.9796 17.5928 25.9927 17.5931C26.5697 17.5973 27.383 17.7993 27.9146 18.0965C27.9502 18.1167 27.9249 18.1861 27.8846 18.1771C24.6244 17.43 22.1152 19.0457 21.5799 19.4348C21.5651 19.4443 21.5457 19.4417 21.534 19.4286C21.5223 19.4155 21.5219 19.3959 21.533 19.3823L21.5302 19.3828Z" fill="#DC2626"/>
</svg>
