<svg width="494" height="96" viewBox="0 0 494 96" fill="none" xmlns="http://www.w3.org/2000/svg">
<path d="M0 56.81C0 54.6009 1.79086 52.81 4 52.81H54.25C56.4591 52.81 58.25 54.6009 58.25 56.81V96H0V56.81Z" fill="#3B82F6"/>
<path d="M62.25 42.41C62.25 40.2009 64.0409 38.41 66.25 38.41H116.5C118.709 38.41 120.5 40.2009 120.5 42.41V96H62.25V42.41Z" fill="#3B82F6"/>
<path d="M124.5 28C124.5 25.7909 126.291 24 128.5 24H178.75C180.959 24 182.75 25.7909 182.75 28V96H124.5V28Z" fill="#3B82F6"/>
<path d="M186.75 13.61C186.75 11.4009 188.541 9.60999 190.75 9.60999H241C243.209 9.60999 245 11.4008 245 13.61V96H186.75V13.61Z" fill="#3B82F6"/>
<path d="M249 4C249 1.79086 250.791 0 253 0H303.25C305.459 0 307.25 1.79086 307.25 4V96H249V4Z" fill="#3B82F6"/>
<path d="M311.25 18.41C311.25 16.2009 313.041 14.41 315.25 14.41H365.5C367.709 14.41 369.5 16.2009 369.5 18.41V96H311.25V18.41Z" fill="#3B82F6"/>
<path d="M373.5 32.81C373.5 30.6009 375.291 28.81 377.5 28.81H427.75C429.959 28.81 431.75 30.6009 431.75 32.81V96H373.5V32.81Z" fill="#3B82F6"/>
<path d="M435.75 47.2C435.75 44.9909 437.541 43.2 439.75 43.2H490C492.209 43.2 494 44.9909 494 47.2V96H435.75V47.2Z" fill="#3B82F6"/>
</svg>
