<svg width="458" height="40" viewBox="0 0 458 40" fill="none" xmlns="http://www.w3.org/2000/svg">
<rect width="40" height="40" rx="8" fill="#1E293B"/>
<path d="M26.3553 16.7415C26.3655 16.8836 26.3655 17.0258 26.3655 17.1679C26.3655 21.5029 23.066 26.4978 17.0355 26.4978C15.1777 26.4978 13.4518 25.9597 12 25.0258C12.264 25.0562 12.5178 25.0664 12.7919 25.0664C14.3248 25.0664 15.736 24.5486 16.8629 23.6654C15.4213 23.6349 14.2132 22.6907 13.7969 21.3912C14 21.4217 14.203 21.442 14.4162 21.442C14.7107 21.442 15.0051 21.4014 15.2792 21.3303C13.7767 21.0257 12.6497 19.706 12.6497 18.1121V18.0715C13.0863 18.3151 13.5939 18.4674 14.1319 18.4877C13.2487 17.8988 12.67 16.8938 12.67 15.7567C12.67 15.1476 12.8324 14.5892 13.1167 14.1019C14.7309 16.0917 17.1573 17.3912 19.8781 17.5334C19.8274 17.2897 19.7969 17.0359 19.7969 16.7821C19.7969 14.975 21.2588 13.5029 23.0761 13.5029C24.0203 13.5029 24.873 13.8989 25.472 14.5385C26.2131 14.3963 26.9238 14.1222 27.5533 13.7466C27.3096 14.508 26.7918 15.1476 26.1116 15.5537C26.7715 15.4826 27.4111 15.2999 27.9999 15.0461C27.5533 15.6958 26.9949 16.2745 26.3553 16.7415Z" fill="#D1D5DB"/>
<rect x="56" width="40" height="40" rx="8" fill="#1E293B"/>
<path d="M82 13H69.9969C69.4469 13 69 13.4531 69 14.0094V25.9906C69 26.5469 69.4469 27 69.9969 27H82C82.55 27 83 26.5469 83 25.9906V14.0094C83 13.4531 82.55 13 82 13ZM73.2312 25H71.1562V18.3187H73.2344V25H73.2312ZM72.1937 17.4062C71.5281 17.4062 70.9906 16.8656 70.9906 16.2031Cnan nan 71.5281 15 72.1937 15C72.8562 15 73.3969 15.5406 73.3969 16.2031C73.3969 16.8688 72.8594 17.4062 72.1937 17.4062ZM81.0094 25H78.9344V21.75C78.9344 20.975 78.9187 19.9781 77.8562 19.9781C76.775 19.9781 76.6094 20.8219 76.6094 21.6938V25H74.5344V18.3187H76.525V19.2312H76.5531C76.8312 18.7062 77.5094 18.1531 78.5188 18.1531C80.6187 18.1531 81.0094 19.5375 81.0094 21.3375V25Z" fill="#D1D5DB"/>
<rect x="112" width="40" height="40" rx="8" fill="#1E293B"/>
<path d="M139.75 20C139.75 15.7188 136.281 12.25 132 12.25C127.719 12.25 124.25 15.7188 124.25 20C124.25 23.8681 127.084 27.0744 130.789 27.6562V22.2403H128.82V20H130.789V18.2925C130.789 16.3503 131.945 15.2775 133.716 15.2775C134.564 15.2775 135.451 15.4288 135.451 15.4288V17.335H134.474C133.511 17.335 133.211 17.9325 133.211 18.5453V20H135.36L135.017 22.2403H133.211V27.6562C136.916 27.0744 139.75 23.8681 139.75 20Z" fill="#D1D5DB"/>
<rect x="168" width="40" height="40" rx="8" fill="#1E293B"/>
<path d="M188.003 16.4059C186.016 16.4059 184.412 18.009 184.412 19.9965C184.412 21.984 186.016 23.5871 188.003 23.5871C188.003 23.5871 191.594 21.984 191.594 19.9965C191.594 19.9965 189.991 16.4059 188.003 16.4059ZM188.003 22.3309C186.719 22.3309 185.669 21.284 185.669 19.9965Cnan nan 186.716 17.6621 188.003 17.6621Cnan nan 190.337 18.709 190.337 19.9965Cnan nan 189.287 22.3309 188.003 22.3309ZM192.578 16.259C192.578 16.7246 192.203 17.0965 191.741 17.0965C191.275 17.0965 190.903 16.7215 190.903 16.259Cnan nan 191.278 15.4215 191.741 15.4215Cnan nan 192.578 15.7965 192.578 16.259ZM194.956 17.109C194.903 15.9871 194.647 14.9934 193.825 14.1746C193.006 13.3559 192.012 13.0996 190.891 13.0434C189.734 12.9777 186.269 12.9777 185.112 13.0434C183.994 13.0965 183 13.3527 182.178 14.1715Cnan nan 181.103 15.984 181.047 17.1059C180.981 18.2621 180.981 21.7277 181.047 22.884C181.1 24.0059 181.356 24.9996 182.178 25.8184Cnan nan 183.991 26.8934 185.112 26.9496C186.269 27.0152 189.734 27.0152 190.891 26.9496C192.012 26.8965 193.006 26.6402 193.825 25.8184C194.644 24.9996 194.9 24.0059 194.956 22.884C195.022 21.7277 195.022 18.2652 194.956 17.109ZM193.462 24.1246C193.219 24.7371 192.747 25.209 192.131 25.4559C191.209 25.8215 189.022 25.7371 188.003 25.7371Cnan nan 184.794 25.8184 183.875 25.4559C183.262 25.2121 182.791 24.7402 182.544 24.1246C182.178 23.2027 182.262 21.0152 182.262 19.9965Cnan nan 182.181 16.7871 182.544 15.8684C182.787 15.2559 183.259 14.784 183.875 14.5371C184.797 14.1715 186.984 14.2559 188.003 14.2559Cnan nan 191.212 14.1746 192.131 14.5371C192.744 14.7809 193.216 15.2527 193.462 15.8684C193.828 16.7902 193.744 18.9777 193.744 19.9965Cnan nan 193.828 23.2059 193.462 24.1246Z" fill="#D1D5DB"/>
</svg>
