<svg width="1216" height="36" viewBox="0 0 1216 36" fill="none" xmlns="http://www.w3.org/2000/svg">
<g opacity="0.6">
<path d="M83.0001 17.2716H81.1473C81.1959 16.9088 81.3808 16.2788 82.1064 16.2788C82.581 16.2788 82.948 16.5473 83.0001 17.2716ZM92.609 16.2956C92.5759 16.2956 91.6169 16.1712 91.6169 17.7019Cnan nan 92.5752 19.1081 92.609 19.1081C93.523 19.1081 93.6011 18.1561 93.6011 17.7019C93.6011 16.1719 92.6406 16.2956 92.609 16.2956ZM75.5076 17.9663C75.3512 18.0889 75.2647 18.2804 75.2762 18.4788C75.2762 18.8149 75.4225 18.9042 75.5076 18.9745C75.838 19.2347 76.5672 19.1236 76.9792 19.0413V17.8502C76.6052 17.775 75.8029 17.7124 75.5076 17.9663ZM110.5 16.3125C110.5 22.4705 104.875 27.168 98.8731 25.9052C97.5815 28.2255 93.8999 30.8798 89.5778 28.8323C86.6837 35.5859 77.0699 35.3138 74.5443 28.4688C66.1265 30.1486 61.971 18.7397 69.2519 14.457C66.8085 8.87203 70.8437 2.25 77.2893 2.25C80.0061 2.25169 82.5674 3.51729 84.2193 5.67422C85.6748 4.16953 87.6927 3.22664 89.9251 3.22664C92.9022 3.22664 95.4798 4.88039 96.872 7.34484C103.398 4.48453 110.5 9.32977 110.5 16.3125ZM73.9691 18.5484C73.9691 17.7216 73.1472 17.4818 72.7127 17.3412C72.3421 17.1928 71.7698 17.0944 71.7698 16.7126C71.7698 16.0474 72.9651 16.2443 73.5395 16.5635C73.5395 16.5635 73.6218 16.6134 73.6548 16.5305C73.6717 16.4812 73.8208 16.0678 73.8369 16.0179C73.85 15.977 73.8282 15.9331 73.7877 15.9187C72.9208 15.3823 70.926 15.3204 70.926 16.8117C70.926 17.6878 71.7339 17.8973 72.1832 18.019C72.5151 18.1301 73.1092 18.2299 73.1092 18.6307C73.1092 18.912 72.861 19.1271 72.4644 19.1271C71.9826 19.1263 71.514 18.9697 71.1285 18.6806C71.0955 18.6645 71.0287 18.6307 71.0125 18.7305L70.8437 19.2558C70.8107 19.3219 70.8599 19.3387 70.8599 19.3549C70.983 19.4534 71.5841 19.8183 72.4644 19.8183C73.3905 19.8183 73.9691 19.3219 73.9691 18.5449V18.5484ZM76.2191 15.5545C75.5069 15.5545 74.9071 15.7774 74.7144 15.9187C74.6989 15.9295 74.6883 15.9461 74.6851 15.9648C74.682 15.9834 74.6864 16.0026 74.6976 16.0179L74.8797 16.5143C74.8899 16.5501 74.9263 16.5717 74.9627 16.5635C75.0084 16.5635 75.4408 16.2823 76.153 16.2823C76.4343 16.2823 76.6494 16.3322 76.7985 16.4482C77.0516 16.6451 77.0137 17.0311 77.0137 17.1921C76.6769 17.171 75.67 16.9502 74.9458 17.4565C74.6102 17.6866 74.4156 18.0722 74.4297 18.4788C74.4297 18.8937 74.5359 19.2101 74.893 19.4878C75.7537 20.0616 77.444 19.6284 77.5719 19.587C77.683 19.5645 77.8202 19.5405 77.8202 19.4548V17.0726C77.823 16.7484 77.8427 15.551 76.2184 15.551L76.2191 15.5545ZM79.4922 14.0794C79.4936 14.057 79.4854 14.035 79.4695 14.0191C79.4536 14.0032 79.4316 13.9949 79.4092 13.9964H78.7187C78.6964 13.9952 78.6747 14.0035 78.6589 14.0194C78.6432 14.0352 78.635 14.0571 78.6365 14.0794V19.6341C78.635 19.6564 78.6432 19.6782 78.6589 19.6941C78.6747 19.7099 78.6964 19.7183 78.7187 19.717H79.4134C79.4359 19.7185 79.4578 19.7102 79.4737 19.6943C79.4896 19.6784 79.4979 19.6565 79.4964 19.6341L79.4922 14.0794ZM83.4121 16.1135C83.2644 15.9511 82.9347 15.5841 82.1711 15.5841C81.9243 15.5841 81.1755 15.6002 80.7156 16.2127C80.2691 16.7491 80.253 17.486 80.253 17.718C80.253 17.9374 80.2635 18.7207 80.7494 19.2066C80.935 19.4112 81.3864 19.7852 82.3532 19.7852C83.114 19.7852 83.5112 19.62 83.6596 19.5209C83.6926 19.504 83.7095 19.4709 83.6765 19.3887L83.5112 18.9084C83.4938 18.8709 83.4526 18.8504 83.4121 18.8592C83.23 18.9253 82.9656 19.0575 82.337 19.0575C81.1122 19.0575 81.1523 18.0211 81.1459 17.8833H83.7594C83.7987 17.8825 83.8325 17.8553 83.8417 17.8172C83.8213 17.8172 83.9873 16.7836 83.4135 16.1135H83.4121ZM85.9919 19.8183C86.9179 19.8183 87.4973 19.3219 87.4973 18.5449C87.4973 17.718 86.6746 17.4783 86.2401 17.3377C85.949 17.2209 85.2972 17.1 85.2972 16.7091C85.2972 16.4447 85.5285 16.2626 85.8927 16.2626C86.3017 16.2708 86.7034 16.3725 87.0669 16.56C87.1499 16.593 87.1499 16.6099 87.183 16.527C87.1991 16.4777 87.3482 16.0643 87.3644 16.0144C87.3775 15.9735 87.3557 15.9295 87.3151 15.9152C86.759 15.5707 86.1381 15.5679 85.8927 15.5679C85.049 15.5679 84.4541 16.0805 84.4541 16.8082C84.4541 17.6843 85.2613 17.8938 85.7106 18.0155C86.1402 18.1561 86.6366 18.2447 86.6366 18.6272C86.6366 18.9084 86.3891 19.1236 85.9919 19.1236C85.5101 19.1226 85.0415 18.966 84.6559 18.6771C84.6356 18.6596 84.607 18.6553 84.5824 18.6659C84.5577 18.6765 84.5412 18.7002 84.5399 18.727L84.3747 19.2558C84.3416 19.3219 84.3909 19.3387 84.3909 19.3549C84.5118 19.4534 85.1172 19.8183 85.9933 19.8183H85.9919ZM90.6079 15.75C90.6079 15.7001 90.591 15.667 90.5249 15.667H89.698C89.698 15.6572 89.7641 15.0384 90.0123 14.7902C90.3048 14.4984 90.8392 14.6749 90.8561 14.6749C90.9384 14.708 90.9552 14.6749 90.9714 14.6419L91.1704 14.0955C91.2196 14.0295 91.1704 14.0133 91.1535 13.9964C90.7956 13.8558 89.9336 13.7946 89.4337 14.2945C89.0484 14.6798 88.9415 15.2733 88.8712 15.667H88.2756C88.2315 15.6707 88.1967 15.7059 88.1934 15.75L88.0935 16.2956C88.0935 16.3448 88.1104 16.3779 88.1765 16.3779H88.7551C88.1568 19.7459 88.1399 19.9083 88.0274 20.2816C87.9515 20.5362 87.7961 20.7668 87.614 20.8273C87.6076 20.8273 87.3412 20.9454 86.9362 20.8104C86.9362 20.8104 86.8701 20.7773 86.837 20.8603C86.8202 20.9102 86.6549 21.3398 86.638 21.3898Cnan nan 86.638 21.4889 86.6711 21.4889C87.0304 21.6295 87.5852 21.6134 87.9283 21.4889C88.3698 21.3286 88.6117 20.9341 88.739 20.5791C88.9323 20.037 88.9366 19.8907 89.5659 16.3786H90.4258C90.47 16.375 90.5051 16.3399 90.5087 16.2956L90.6079 15.75ZM94.3619 16.875C94.3225 16.7569 94.0033 15.6016 92.5921 15.6016C91.5198 15.6016 90.9749 16.3048 90.823 16.875C90.7527 17.0859 90.5994 17.8594 90.823 18.5287C90.8294 18.5498 91.1331 19.8028 92.5921 19.8028C93.6433 19.8028 94.2023 19.1271 94.3619 18.5287C94.5876 17.853 94.4329 17.0859 94.3619 16.875ZM97.5541 15.7008C97.2025 15.5848 96.3855 15.5672 95.9994 16.0812V15.7669C96.0007 15.7446 95.9923 15.7228 95.9765 15.7071C95.9606 15.6913 95.9388 15.6832 95.9165 15.6846H95.2555C95.2332 15.6832 95.2114 15.6913 95.1955 15.7071C95.1797 15.7228 95.1713 15.7446 95.1726 15.7669V19.6537C95.1713 19.6761 95.1797 19.6979 95.1955 19.7138C95.2114 19.7296 95.2332 19.738 95.2555 19.7367H95.9334C95.9557 19.738 95.9775 19.7296 95.9934 19.7138C96.0092 19.6979 96.0176 19.6761 96.0163 19.6537V17.7012C96.0163 17.4966 96.0198 16.9017 96.3299 16.643C96.6744 16.2984 97.1737 16.4067 97.2728 16.4278C97.3159 16.427 97.3546 16.4012 97.3719 16.3617C97.4545 16.1785 97.5263 15.9907 97.5871 15.7992C97.6015 15.7625 97.5876 15.7208 97.5541 15.7001V15.7008ZM100.845 19.5047L100.696 18.9921C100.663 18.9091 100.597 18.9422 100.597 18.9422C100.3 19.0702 99.8835 19.0751 99.8034 19.0751C99.4771 19.0751 98.5961 18.9956 98.5961 17.6857C98.5961 17.2477 98.7262 16.2963 99.7541 16.2963C100.029 16.2893 100.303 16.3285 100.564 16.4123C100.647 16.4292 100.63 16.4454 100.647 16.3624C100.713 16.1803 100.762 16.0481 100.829 15.833C100.845 15.7669 100.796 15.7507 100.779 15.7507C99.9644 15.4786 99.2085 15.5728 98.8274 15.7507C98.7156 15.8027 97.6862 16.207 97.6862 17.6857C97.6862 17.8896 97.6455 19.8028 99.7211 19.8028C100.094 19.8021 100.463 19.7347 100.812 19.6038C100.843 19.5809 100.857 19.5409 100.845 19.504V19.5047ZM104.633 16.7259C104.577 16.515 104.256 15.5848 103.062 15.5848C101.937 15.5848 101.408 16.2956 101.259 16.8919C101.178 17.1599 101.139 17.4388 101.143 17.7188C101.143 19.5377 102.467 19.7859 103.244 19.7859C104.005 19.7859 104.401 19.6207 104.55 19.5216C104.583 19.5047 104.6 19.4716 104.567 19.3894L104.401 18.9091C104.384 18.8716 104.342 18.8511 104.302 18.8599C104.12 18.926 103.855 19.0582 103.227 19.0582C102.002 19.0582 102.042 18.0218 102.036 17.884H104.649C104.689 17.883 104.723 17.856 104.732 17.8179C104.715 17.8172 104.798 17.3208 104.633 16.7252V16.7259ZM102.996 16.2795C102.269 16.2795 102.081 16.9123 102.036 17.2723H103.891C103.829 16.4341 103.355 16.2788 102.996 16.2788V16.2795Z" fill="#9CA3AF"/>
<path d="M296.802 14.8781C295.037 16.5445 293.933 18.907 293.933 21.5297C293.933 23.5898 294.615 25.4883 295.761 27.0141L292.28 30.5156C291.971 30.4031 291.641 30.3398 291.296 30.3398C290.537 30.3398 289.827 30.6352 289.292 31.1695C288.758 31.7039 288.463 32.4211 288.463 33.1805C288.463 33.9398 288.758 34.65 289.292 35.1844C289.827 35.7188 290.544 36 291.296 36C292.055 36 292.766 35.7258 293.307 35.1844C293.841 34.65 294.137 33.9328 294.137 33.1805C294.137 32.8852 294.095 32.6039 294.003 32.3297L297.519 28.8C299.066 29.9883 300.992 30.6914 303.095 30.6914C308.15 30.6914 312.235 26.5922 312.235 21.5367C312.235 16.9523 308.881 13.1555 304.487 12.4875V8.15625C305.717 7.63594 306.47 6.48281 306.47 5.13984C306.47 3.30469 305 1.77188 303.165 1.77188C301.33 1.77188 299.881 3.30469 299.881 5.13984C299.881 6.48281 300.634 7.63594 301.864 8.15625V12.4594C300.795 12.607 299.783 12.9305 298.862 13.4156C296.921 11.9461 290.6 7.38984 286.986 4.64062C287.07 4.33125 287.127 4.00781 287.127 3.67031C287.127 1.64531 285.474 0 283.442 0C281.417 0 279.772 1.64531 279.772 3.67031C279.772 5.70234 281.417 7.34766 283.442 7.34766C284.131 7.34766 284.771 7.14375 285.327 6.81328L296.802 14.8781ZM303.095 26.3813C300.416 26.3813 298.243 24.2086 298.243 21.5297Cnan nan 300.416 16.6781 303.095 16.6781Cnan nan 307.946 18.8508 307.946 21.5297Cnan nan 305.773 26.3813 303.095 26.3813Z" fill="#9CA3AF"/>
<path d="M493.102 10.1742L490.057 10.8211L490.043 20.8336C490.043 22.6828 491.435 23.8781 493.284 23.8781C494.311 23.8781 495.063 23.6883 495.478 23.4633V21.0867C495.077 21.2484 493.109 21.825 493.109 19.9828V15.5391H495.478V12.8812H493.109L493.102 10.1742ZM499.366 13.8023L499.177 12.8812H496.477V23.6531H499.591V16.4039C500.33 15.4336 501.574 15.6234 501.975 15.75V12.8812C501.553 12.7336 500.098 12.4594 499.366 13.8023ZM505.856 8.71875L502.72 9.38672V11.932L505.856 11.2641V8.71875ZM484.657 16.0523C484.657 15.5672 485.065 15.3773 485.719 15.3703C486.668 15.3703 487.877 15.6586 488.827 16.1719V13.2328C487.793 12.825 486.759 12.6633 485.726 12.6633C483.195 12.6633 481.507 13.9852 481.507 16.193C481.507 19.6523 486.253 19.0898 486.253 20.5805C486.253 21.157 485.754 21.3469 485.058 21.3469C484.024 21.3469 482.688 20.918 481.641 20.3484V23.1609C482.801 23.6602 483.975 23.8711 485.051 23.8711C487.645 23.8711 489.431 22.7602 489.431 20.5102C489.431 16.7906 484.657 17.4586 484.657 16.0523ZM526.5 18.3938C526.5 15.1945 524.953 12.6703 521.986 12.6703Cnan nan 517.212 15.1945 517.212 18.3727C517.212 22.1344 519.342 23.8711 522.38 23.8711C523.87 23.8711 524.988 23.5336 525.839 23.0625V20.7141C524.988 21.143 524.011 21.4031 522.773 21.4031C521.557 21.4031 520.488 20.9742 520.348 19.5117H526.458C526.472 19.35 526.5 18.6961 526.5 18.3938ZM520.32 17.2125C520.32 15.8062 521.184 15.2156 521.965 15.2156C522.731 15.2156 523.547 15.8062 523.547 17.2125H520.32ZM512.381 12.6703C511.158 12.6703 510.37 13.2469 509.934 13.6477L509.773 12.8742H507.023V27.2742L510.145 26.6133L510.152 23.0836C510.602 23.4141 511.27 23.8711 512.36 23.8711C514.596 23.8711 516.635 22.2398 516.635 18.2742C516.642 14.6461 514.575 12.6703 512.381 12.6703ZM511.636 21.2836C510.905 21.2836 510.469 21.0164 510.166 20.693L510.145 16.0523C510.469 15.6937 510.919 15.4336 511.636 15.4336C512.775 15.4336 513.562 16.7133 513.562 18.3445C513.57 20.025 512.796 21.2836 511.636 21.2836ZM502.727 23.6531H505.863V12.8812H502.727V23.6531Z" fill="#9CA3AF"/>
<path d="M702.868 22.1555C702.868 23.9766 701.38 25.4644 699.559 25.4644C697.738 25.4644 696.25 23.9766 696.25 22.1555C696.25 20.3344 697.738 18.8466 699.559 18.8466H702.868V22.1555ZM704.536 22.1555C704.536 20.3344 706.023 18.8466 707.845 18.8466Cnan nan 711.153 20.3344 711.153 22.1555V30.4411C711.153 32.2622 709.666 33.75 707.845 33.75Cnan nan 704.536 32.2622 704.536 30.4411V22.1555ZM707.845 8.86781C706.023 8.86781 704.536 7.38 704.536 5.55891Cnan nan 706.023 2.25 707.845 2.25C707.845 2.25 711.153 3.73781 711.153 5.55891V8.86781H707.845ZM707.845 10.5356C709.666 10.5356 711.153 12.0234 711.153 13.8445Cnan nan 709.666 17.1534 707.845 17.1534H699.559C697.738 17.1534 696.25 15.6656 696.25 13.8445C696.25 12.0234 697.738 10.5356 699.559 10.5356H707.845ZM721.132 13.8445C721.132 12.0234 722.62 10.5356 724.441 10.5356C726.262 10.5356 727.75 12.0234 727.75 13.8445Cnan nan 726.262 17.1534 724.441 17.1534H721.132V13.8445ZM719.464 13.8445C719.464 15.6656 717.977 17.1534 716.155 17.1534C714.334 17.1534 712.847 15.6656 712.847 13.8445V5.55891C712.847 3.73781 714.334 2.25 716.155 2.25C717.977 2.25 719.464 3.73781 719.464 5.55891V13.8445ZM716.155 27.1322C717.977 27.1322 719.464 28.62 719.464 30.4411C719.464 32.2622 717.977 33.75 716.155 33.75C714.334 33.75 712.847 32.2622 712.847 30.4411V27.1322H716.155ZM716.155 25.4644C714.334 25.4644 712.847 23.9766 712.847 22.1555C712.847 20.3344 714.334 18.8466 716.155 18.8466H724.441C726.262 18.8466 727.75 20.3344 727.75 22.1555C727.75 23.9766 726.262 25.4644 724.441 25.4644H716.155Z" fill="#9CA3AF"/>
<path d="M937.155 18.4078C937.155 28.3563 930.342 35.4362 920.281 35.4362C910.635 35.4362 902.845 27.6462 902.845 18C902.845 8.35384 910.635 0.563782 920.281 0.563782C924.978 0.563782 928.929 2.28631 931.973 5.12673L927.228 9.68968C921.019 3.69949 909.475 8.19916 909.475 18C909.475 24.0816 914.333 29.0101 920.281 29.0101C927.185 29.0101 929.773 24.0605 930.18 21.4943H920.281V15.4971H936.881C937.042 16.39 937.155 17.2477 937.155 18.4078Z" fill="#9CA3AF"/>
<path d="M1112.25 2.25H1127.34V17.3391H1112.25V2.25ZM1128.66 2.25H1143.75V17.3391H1128.66V2.25ZM1112.25 18.6609H1127.34V33.75H1112.25V18.6609ZM1128.66 18.6609H1143.75V33.75H1128.66V18.6609Z" fill="#9CA3AF"/>
</g>
</svg>
