<svg preserveAspectRatio="none" width="100%" height="100%" overflow="visible" style="display: block;" viewBox="0 0 31.5 36" fill="none" xmlns="http://www.w3.org/2000/svg">
<g id="SVG">
<path id="Vector" d="M6.61781 22.1555C6.61781 23.9766 5.13 25.4644 3.30891 25.4644C1.48781 25.4644 0 23.9766 0 22.1555C0 20.3344 1.48781 18.8466 3.30891 18.8466H6.61781V22.1555V22.1555M8.28563 22.1555C8.28563 20.3344 9.77344 18.8466 11.5945 18.8466Cnan nan 14.9034 20.3344 14.9034 22.1555V30.4411C14.9034 32.2622 13.4156 33.75 11.5945 33.75Cnan nan 8.28563 32.2622 8.28563 30.4411V22.1555V22.1555M11.5945 8.86781C9.77344 8.86781 8.28563 7.38 8.28563 5.55891Cnan nan 9.77344 2.25 11.5945 2.25C11.5945 2.25 14.9034 3.73781 14.9034 5.55891V8.86781H11.5945V8.86781M11.5945 10.5356C13.4156 10.5356 14.9034 12.0234 14.9034 13.8445Cnan nan 13.4156 17.1534 11.5945 17.1534H3.30891C1.48781 17.1534 0 15.6656 0 13.8445C0 12.0234 1.48781 10.5356 3.30891 10.5356H11.5945V10.5356M24.8822 13.8445C24.8822 12.0234 26.37 10.5356 28.1911 10.5356C30.0122 10.5356 31.5 12.0234 31.5 13.8445Cnan nan 30.0122 17.1534 28.1911 17.1534H24.8822V13.8445V13.8445M23.2144 13.8445C23.2144 15.6656 21.7266 17.1534 19.9055 17.1534C18.0844 17.1534 16.5966 15.6656 16.5966 13.8445V5.55891C16.5966 3.73781 18.0844 2.25 19.9055 2.25C21.7266 2.25 23.2144 3.73781 23.2144 5.55891V13.8445V13.8445M19.9055 27.1322C21.7266 27.1322 23.2144 28.62 23.2144 30.4411C23.2144 32.2622 21.7266 33.75 19.9055 33.75C18.0844 33.75 16.5966 32.2622 16.5966 30.4411V27.1322H19.9055V27.1322M19.9055 25.4644C18.0844 25.4644 16.5966 23.9766 16.5966 22.1555C16.5966 20.3344 18.0844 18.8466 19.9055 18.8466H28.1911C30.0122 18.8466 31.5 20.3344 31.5 22.1555C31.5 23.9766 30.0122 25.4644 28.1911 25.4644H19.9055V25.4644" fill="var(--fill-0, #9CA3AF)"/>
</g>
</svg>
