<svg preserveAspectRatio="none" width="100%" height="100%" overflow="visible" style="display: block;" viewBox="0 0 36 36" fill="none" xmlns="http://www.w3.org/2000/svg">
<g id="SVG">
<path id="Vector" d="M18.8016 14.8781C17.0367 16.5445 15.9328 18.907 15.9328 21.5297C15.9328 23.5898 16.6148 25.4883 17.7609 27.0141L14.2805 30.5156C13.9711 30.4031 13.6406 30.3398 13.2961 30.3398C12.5367 30.3398 11.8266 30.6352 11.2922 31.1695C10.7578 31.7039 10.4625 32.4211 10.4625 33.1805C10.4625 33.9398 10.7578 34.65 11.2922 35.1844C11.8266 35.7188 12.5437 36 13.2961 36C14.0555 36 14.7656 35.7258 15.307 35.1844C15.8414 34.65 16.1367 33.9328 16.1367 33.1805C16.1367 32.8852 16.0945 32.6039 16.0031 32.3297L19.5188 28.8C21.0656 29.9883 22.9922 30.6914 25.0945 30.6914C30.15 30.6914 34.2352 26.5922 34.2352 21.5367C34.2352 16.9523 30.8813 13.1555 26.4867 12.4875V8.15625C27.7172 7.63594 28.4695 6.48281 28.4695 5.13984C28.4695 3.30469 27 1.77188 25.1648 1.77188C23.3297 1.77188 21.8813 3.30469 21.8813 5.13984C21.8813 6.48281 22.6336 7.63594 23.8641 8.15625V12.4594C22.7953 12.607 21.7828 12.9305 20.8617 13.4156C18.9211 11.9461 12.6 7.38984 8.98594 4.64062C9.07031 4.33125 9.12656 4.00781 9.12656 3.67031C9.12656 1.64531 7.47422 0 5.44219 0C3.41719 0 1.77188 1.64531 1.77188 3.67031C1.77188 5.70234 3.41719 7.34766 5.44219 7.34766C6.13125 7.34766 6.77109 7.14375 7.32656 6.81328L18.8016 14.8781V14.8781M25.0945 26.3813C22.4156 26.3813 20.243 24.2086 20.243 21.5297Cnan nan 22.4156 16.6781 25.0945 16.6781Cnan nan 29.9461 18.8508 29.9461 21.5297Cnan nan 27.7734 26.3813 25.0945 26.3813V26.3813" fill="var(--fill-0, #9CA3AF)"/>
</g>
</svg>
