<svg preserveAspectRatio="none" width="100%" height="100%" overflow="visible" style="display: block;" viewBox="0 0 45 36" fill="none" xmlns="http://www.w3.org/2000/svg">
<g id="SVG">
<path id="Vector" d="M17.5001 17.2716H15.6473C15.6959 16.9088 15.8808 16.2788 16.6064 16.2788C17.081 16.2788 17.448 16.5473 17.5001 17.2716V17.2716M27.109 16.2956C27.0759 16.2956 26.1169 16.1712 26.1169 17.7019Cnan nan 27.0752 19.1081 27.109 19.1081C28.023 19.1081 28.1011 18.1561 28.1011 17.7019C28.1011 16.1719 27.1406 16.2956 27.109 16.2956V16.2956M10.0076 17.9663C9.85117 18.0889 9.76475 18.2804 9.77625 18.4788C9.77625 18.8149 9.9225 18.9042 10.0076 18.9745C10.338 19.2347 11.0672 19.1236 11.4792 19.0413V17.8502C11.1052 17.775 10.3029 17.7124 10.0076 17.9663V17.9663M45 16.3125C45 22.4705 39.375 27.168 33.3731 25.9052C32.0815 28.2255 28.3999 30.8798 24.0778 28.8323C21.1837 35.5859 11.5699 35.3138 9.0443 28.4688C0.626484 30.1486 -3.52898 18.7397 3.75187 14.457C1.30852 8.87203 5.34375 2.25 11.7893 2.25C14.5061 2.25169 17.0674 3.51729 18.7193 5.67422C20.1748 4.16953 22.1927 3.22664 24.4252 3.22664C27.4022 3.22664 29.9798 4.88039 31.372 7.34484C37.8984 4.48453 45 9.32977 45 16.3125V16.3125M8.46914 18.5484C8.46914 17.7216 7.64719 17.4818 7.21266 17.3412C6.84211 17.1928 6.26977 17.0944 6.26977 16.7126C6.26977 16.0474 7.46508 16.2443 8.03953 16.5635C8.03953 16.5635 8.1218 16.6134 8.15484 16.5305C8.17172 16.4813 8.32078 16.0678 8.33695 16.0179C8.35005 15.977 8.32825 15.9331 8.28773 15.9187C7.42078 15.3823 5.42602 15.3204 5.42602 16.8117C5.42602 17.6878 6.23391 17.8973 6.6832 18.019C7.01508 18.1301 7.60922 18.2299 7.60922 18.6307C7.60922 18.912 7.36102 19.1271 6.96445 19.1271C6.48263 19.1263 6.014 18.9697 5.62852 18.6806C5.59547 18.6645 5.52867 18.6307 5.5125 18.7305L5.34375 19.2558C5.3107 19.3219 5.35992 19.3387 5.35992 19.3549C5.48297 19.4534 6.08414 19.8183 6.96445 19.8183C7.89047 19.8183 8.46914 19.3219 8.46914 18.5449V18.5484M10.7191 15.5545C10.0069 15.5545 9.40711 15.7774 9.21445 15.9187C9.19889 15.9295 9.18833 15.9461 9.18515 15.9648C9.18197 15.9834 9.18645 16.0026 9.19758 16.0179L9.37969 16.5143C9.38995 16.5501 9.42633 16.5717 9.46266 16.5635C9.50836 16.5635 9.94078 16.2823 10.653 16.2823C10.9343 16.2823 11.1495 16.3322 11.2985 16.4482C11.5516 16.6451 11.5137 17.0311 11.5137 17.1921C11.1769 17.171 10.17 16.9502 9.44578 17.4565C9.11025 17.6866 8.91559 18.0722 8.92969 18.4788C8.92969 18.8937 9.03586 19.2101 9.39305 19.4878C10.2537 20.0616 11.944 19.6284 12.072 19.587C12.183 19.5645 12.3202 19.5405 12.3202 19.4548V17.0726C12.323 16.7484 12.3427 15.551 10.7184 15.551L10.7191 15.5545M13.9922 14.0794C13.9937 14.057 13.9854 14.035 13.9695 14.0191C13.9536 14.0032 13.9316 13.9949 13.9092 13.9964H13.2188C13.1964 13.9952 13.1747 14.0035 13.1589 14.0194C13.1432 14.0352 13.135 14.0571 13.1365 14.0794V19.6341C13.135 19.6564 13.1432 19.6782 13.1589 19.6941C13.1747 19.7099 13.1964 19.7183 13.2188 19.717H13.9134C13.9359 19.7185 13.9578 19.7102 13.9737 19.6943C13.9896 19.6784 13.9979 19.6565 13.9964 19.6341L13.9922 14.0794M17.9121 16.1135C17.7645 15.9511 17.4347 15.5841 16.6711 15.5841C16.4243 15.5841 15.6755 15.6002 15.2156 16.2127C14.7691 16.7491 14.753 17.486 14.753 17.718C14.753 17.9374 14.7635 18.7207 15.2494 19.2066C15.435 19.4112 15.8864 19.7852 16.8532 19.7852C17.614 19.7852 18.0112 19.62 18.1596 19.5209C18.1927 19.504 18.2095 19.4709 18.1765 19.3887L18.0112 18.9084C17.9938 18.8709 17.9526 18.8504 17.9121 18.8592C17.73 18.9253 17.4656 19.0575 16.837 19.0575C15.6122 19.0575 15.6523 18.0211 15.6459 17.8833H18.2595C18.2987 17.8825 18.3325 17.8553 18.3417 17.8172C18.3213 17.8172 18.4873 16.7836 17.9135 16.1135H17.9121M20.4919 19.8183C21.4179 19.8183 21.9973 19.3219 21.9973 18.5449C21.9973 17.718 21.1746 17.4783 20.7401 17.3377C20.449 17.2209 19.7972 17.1 19.7972 16.7091C19.7972 16.4447 20.0285 16.2626 20.3927 16.2626C20.8017 16.2708 21.2034 16.3725 21.567 16.56C21.6499 16.593 21.6499 16.6099 21.683 16.527C21.6991 16.4777 21.8482 16.0643 21.8644 16.0144C21.8775 15.9735 21.8557 15.9295 21.8152 15.9152C21.259 15.5707 20.6381 15.5679 20.3927 15.5679C19.549 15.5679 18.9541 16.0805 18.9541 16.8082C18.9541 17.6843 19.7613 17.8938 20.2106 18.0155C20.6402 18.1561 21.1366 18.2447 21.1366 18.6272C21.1366 18.9084 20.8891 19.1236 20.4919 19.1236C20.0101 19.1226 19.5415 18.966 19.1559 18.6771C19.1356 18.6596 19.107 18.6553 19.0824 18.6659C19.0577 18.6765 19.0412 18.7002 19.0399 18.727L18.8747 19.2558C18.8416 19.3219 18.8909 19.3387 18.8909 19.3549C19.0118 19.4534 19.6172 19.8183 20.4933 19.8183H20.4919M25.1079 15.75C25.1079 15.7001 25.091 15.667 25.0249 15.667H24.198C24.198 15.6572 24.2641 15.0384 24.5123 14.7902C24.8048 14.4984 25.3392 14.6749 25.3561 14.6749C25.4384 14.708 25.4552 14.6749 25.4714 14.6419L25.6704 14.0955C25.7196 14.0295 25.6704 14.0133 25.6535 13.9964C25.2956 13.8558 24.4336 13.7946 23.9337 14.2945C23.5484 14.6798 23.4415 15.2733 23.3712 15.667H22.7756C22.7315 15.6707 22.6967 15.7059 22.6934 15.75L22.5935 16.2956C22.5935 16.3448 22.6104 16.3779 22.6765 16.3779H23.2552C22.6568 19.7459 22.6399 19.9083 22.5274 20.2816C22.4515 20.5362 22.2961 20.7668 22.114 20.8273C22.1077 20.8273 21.8412 20.9454 21.4362 20.8104C21.4362 20.8104 21.3701 20.7773 21.337 20.8603C21.3202 20.9102 21.1549 21.3398 21.138 21.3898Cnan nan 21.138 21.4889 21.1711 21.4889C21.5304 21.6295 22.0852 21.6134 22.4283 21.4889C22.8698 21.3286 23.1117 20.9341 23.239 20.5791C23.4323 20.037 23.4366 19.8907 24.0659 16.3786H24.9258C24.97 16.375 25.0051 16.3399 25.0087 16.2956L25.1079 15.75M28.8619 16.875C28.8225 16.7569 28.5033 15.6016 27.0921 15.6016C26.0198 15.6016 25.4749 16.3048 25.323 16.875C25.2527 17.0859 25.0995 17.8594 25.323 18.5287C25.3294 18.5498 25.6331 19.8028 27.0921 19.8028C28.1433 19.8028 28.7023 19.1271 28.8619 18.5287C29.0876 17.853 28.9329 17.0859 28.8619 16.875V16.875M32.0541 15.7008C31.7025 15.5848 30.8855 15.5672 30.4995 16.0812V15.7669C30.5007 15.7446 30.4923 15.7228 30.4765 15.7071C30.4606 15.6913 30.4388 15.6832 30.4165 15.6846H29.7555C29.7333 15.6832 29.7114 15.6913 29.6955 15.7071C29.6797 15.7228 29.6713 15.7446 29.6726 15.7669V19.6537C29.6713 19.6761 29.6797 19.6979 29.6955 19.7138C29.7114 19.7296 29.7332 19.738 29.7555 19.7367H30.4334C30.4557 19.738 30.4775 19.7296 30.4934 19.7138C30.5092 19.6979 30.5176 19.6761 30.5163 19.6537V17.7012C30.5163 17.4966 30.5198 16.9017 30.8299 16.643C31.1745 16.2984 31.6737 16.4067 31.7728 16.4278C31.8159 16.427 31.8547 16.4012 31.872 16.3617C31.9545 16.1785 32.0263 15.9907 32.0871 15.7992C32.1015 15.7625 32.0876 15.7208 32.0541 15.7001V15.7008M35.3454 19.5047L35.1963 18.9921C35.1633 18.9091 35.0972 18.9422 35.0972 18.9422C34.7998 19.0702 34.3835 19.0751 34.3034 19.0751C33.9771 19.0751 33.0961 18.9956 33.0961 17.6857C33.0961 17.2477 33.2262 16.2963 34.2541 16.2963C34.5287 16.2893 34.8026 16.3285 35.0641 16.4123C35.1471 16.4292 35.1302 16.4454 35.1471 16.3624C35.2132 16.1803 35.2624 16.0481 35.3292 15.833C35.3454 15.7669 35.2962 15.7507 35.2793 15.7507C34.4644 15.4786 33.7085 15.5728 33.3274 15.7507C33.2156 15.8027 32.1863 16.207 32.1863 17.6857C32.1863 17.8896 32.1455 19.8028 34.2211 19.8028C34.5938 19.8021 34.9634 19.7347 35.3123 19.6038C35.3433 19.5809 35.3565 19.5409 35.3454 19.504V19.5047M39.1331 16.7259C39.0769 16.515 38.7555 15.5848 37.5616 15.5848C36.4366 15.5848 35.9079 16.2956 35.7588 16.8919C35.6777 17.1599 35.6386 17.4388 35.6428 17.7188C35.6428 19.5377 36.9675 19.7859 37.7437 19.7859C38.5045 19.7859 38.9011 19.6207 39.0502 19.5216C39.0832 19.5047 39.1001 19.4716 39.067 19.3894L38.9011 18.9091C38.8836 18.8716 38.8424 18.8511 38.802 18.8599C38.6198 18.926 38.3555 19.0582 37.7269 19.0582C36.502 19.0582 36.5421 18.0218 36.5365 17.884H39.1493C39.1886 17.883 39.2225 17.856 39.2323 17.8179C39.2154 17.8172 39.2984 17.3208 39.1331 16.7252V16.7259M37.4955 16.2795C36.7692 16.2795 36.5815 16.9123 36.5365 17.2723H38.3906C38.3287 16.4341 37.8548 16.2788 37.4955 16.2788V16.2795" fill="var(--fill-0, #9CA3AF)"/>
</g>
</svg>
