<svg width="26" height="17" viewBox="0 0 26 17" fill="none" xmlns="http://www.w3.org/2000/svg">
<path d="M9.90309 0.5625C9.73747 0.21875 9.38747 0 9.00309 0C8.61872 0 8.27184 0.21875 8.10309 0.5625L6.09372 4.69688L1.60622 5.35938C1.23122 5.41563 0.918719 5.67812 0.803094 6.0375C0.687469 6.39687 0.781219 6.79375 1.04997 7.05937L4.30622 10.2812L3.53747 14.8344C3.47497 15.2094 3.63122 15.5906 3.94059 15.8125C4.24997 16.0344 4.65934 16.0625 4.99684 15.8844L9.00622 13.7437L13.0156 15.8844C13.3531 16.0625 13.7625 16.0375 14.0718 15.8125C14.3812 15.5875 14.5375 15.2094 14.475 14.8344L13.7031 10.2812L16.9593 7.05937C17.2281 6.79375 17.325 6.39687 17.2062 6.0375C17.0875 5.67812 16.7781 5.41563 16.4031 5.35938L11.9125 4.69688L9.90309 0.5625Z" fill="#3B82F6"/>
</svg>
