<svg width="19" height="14" viewBox="0 0 19 14" fill="none" xmlns="http://www.w3.org/2000/svg">
<path d="M0.4375 1.75C0.4375 0.784766 1.22227 0 2.1875 0H8.3125C9.27773 0 10.0625 0.784766 10.0625 1.75V12.25C10.0625 13.2152 9.27773 14 8.3125 14H2.1875C1.22227 14 0.4375 13.2152 0.4375 12.25V1.75ZM3.9375 12.25C3.9375 12.4906 4.13438 12.6875 4.375 12.6875H6.125C6.36562 12.6875 6.5625 12.4906 6.5625 12.25Cnan nan 6.36562 11.8125 6.125 11.8125H4.375C4.13438 11.8125 3.9375 12.0094 3.9375 12.25ZM8.3125 1.75H2.1875V10.5H8.3125V1.75Z" fill="#3B82F6"/>
</svg>
