<svg width="64" height="48" viewBox="0 0 64 48" fill="none" xmlns="http://www.w3.org/2000/svg">
<rect width="48" height="48" rx="8" fill="#F3E8FF"/>
<path d="M16.5 16.5C16.5 15.8086 17.0586 15.25 17.75 15.25H24C24.6914 15.25 25.25 15.8086 25.25 16.5V30.25H29V24C29 23.3086 29.5586 22.75 30.25 22.75H35.25C35.9414 22.75 36.5 23.3086 36.5 24C36.5 24.6914 35.9414 25.25 35.25 25.25H31.5V31.5C31.5 32.1914 30.9414 32.75 30.25 32.75H24C23.3086 32.75 22.75 32.1914 22.75 31.5V17.75H19V24C19 24.6914 18.4414 25.25 17.75 25.25H12.75C12.0586 25.25 11.5 24.6914 11.5 24C11.5 23.3086 12.0586 22.75 12.75 22.75H16.5V16.5Z" fill="#9333EA"/>
</svg>
