<svg width="64" height="48" viewBox="0 0 64 48" fill="none" xmlns="http://www.w3.org/2000/svg">
<rect width="48" height="48" rx="8" fill="#F3E8FF"/>
<path d="M24 15.25C24.5547 15.25 25.0664 15.543 25.3477 16.0234L33.7852 30.3984C34.0703 30.8828 34.0703 31.4805 33.793 31.9648C33.5156 32.4492 32.9961 32.75 32.4375 32.75H15.5625C15.0039 32.75 14.4844 32.4492 14.207 31.9648C13.9297 31.4805 13.9336 30.8789 14.2148 30.3984L22.6523 16.0234C22.9336 15.543 23.4453 15.25 24 15.25ZM24 20.25C23.4805 20.25 23.0625 20.668 23.0625 21.1875V25.5625C23.0625 26.082 23.4805 26.5 24 26.5Cnan nan 24.9375 26.082 24.9375 25.5625V21.1875C24.9375 20.668 24.5195 20.25 24 20.25ZM25.25 29C25.25 28.3101 24.6899 27.75 24 27.75C23.3101 27.75 22.75 28.3101 22.75 29C22.75 29.6899 23.3101 30.25 24 30.25C24.6899 30.25 25.25 29.6899 25.25 29Z" fill="#9333EA"/>
</svg>
