<svg width="16" height="12" viewBox="0 0 16 12" fill="none" xmlns="http://www.w3.org/2000/svg">
<path d="M5.99999 0.75C6.3328 0.75 6.63983 0.925781 6.80858 1.21406L11.8711 9.83906C12.0422 10.1297 12.0422 10.4883 11.8758 10.7789C11.7094 11.0695 11.3976 11.25 11.0625 11.25H0.937489C0.602333 11.25 0.290614 11.0695 0.124208 10.7789C-0.0421981 10.4883 -0.0398543 10.1273 0.128896 9.83906L5.1914 1.21406C5.36015 0.925781 5.66718 0.75 5.99999 0.75ZM5.99999 3.75C5.68827 3.75 5.43749 4.00078 5.43749 4.3125V6.9375C5.43749 7.24922 5.68827 7.5 5.99999 7.5Cnan nan 6.56249 7.24922 6.56249 6.9375V4.3125C6.56249 4.00078 6.31171 3.75 5.99999 3.75ZM6.74999 9C6.74999 8.58606 6.41393 8.25 5.99999 8.25C5.58605 8.25 5.24999 8.58606 5.24999 9C5.24999 9.41394 5.58605 9.75 5.99999 9.75C6.41393 9.75 6.74999 9.41394 6.74999 9Z" fill="#F59E0B"/>
</svg>
