<svg width="24" height="20" viewBox="0 0 24 20" fill="none" xmlns="http://www.w3.org/2000/svg">
<path d="M10.7062 8.70615C11.0969 8.31553 11.0969 7.68115 10.7062 7.29053C10.3156 6.8999 9.68124 6.8999 9.29062 7.29053L5.99999 10.5843L2.70624 7.29365C2.31562 6.90303 1.68124 6.90303 1.29062 7.29365C0.899994 7.68428 0.899994 8.31865 1.29062 8.70928L4.58437 11.9999L1.29374 15.2937C0.903119 15.6843 0.903119 16.3187 1.29374 16.7093C1.68437 17.0999 2.31874 17.0999 2.70937 16.7093L5.99999 13.4155L9.29374 16.7062C9.68437 17.0968 10.3187 17.0968 10.7094 16.7062C11.1 16.3155 11.1 15.6812 10.7094 15.2905L7.41562 11.9999L10.7062 8.70615Z" fill="#9CA3AF"/>
</svg>
