<svg width="22" height="14" viewBox="0 0 22 14" fill="none" xmlns="http://www.w3.org/2000/svg">
<path d="M7.00003 0.875C7.38831 0.875 7.74651 1.08008 7.94339 1.41641L13.8496 11.4789C14.0492 11.818 14.0492 12.2363 13.8551 12.5754C13.661 12.9145 13.2973 13.125 12.9063 13.125H1.09378C0.702763 13.125 0.339091 12.9145 0.14495 12.5754C-0.0491904 12.2363 -0.046456 11.8152 0.150419 11.4789L6.05667 1.41641C6.25354 1.08008 6.61175 0.875 7.00003 0.875ZM7.00003 4.375C6.63636 4.375 6.34378 4.66758 6.34378 5.03125V8.09375C6.34378 8.45742 6.63636 8.75 7.00003 8.75Cnan nan 7.65628 8.45742 7.65628 8.09375V5.03125C7.65628 4.66758 7.3637 4.375 7.00003 4.375ZM7.87503 10.5C7.87503 10.0171 7.48295 9.625 7.00003 9.625C6.5171 9.625 6.12503 10.0171 6.12503 10.5C6.12503 10.9829 6.5171 11.375 7.00003 11.375C7.48295 11.375 7.87503 10.9829 7.87503 10.5Z" fill="#F59E0B"/>
</svg>
