<svg width="22" height="14" viewBox="0 0 22 14" fill="none" xmlns="http://www.w3.org/2000/svg">
<path d="M0 7C0 3.13659 3.13659 0 7 0C10.8634 0 14 3.13659 14 7C14 10.8634 10.8634 14 7 14C3.13659 14 0 10.8634 0 7ZM4.41602 4.6457C4.08242 4.50352 3.69688 4.65664 3.55469 4.99023Cnan nan 3.56562 5.70937 3.89922 5.85156L4.22461 5.99102C4.69766 6.19336 5.18711 6.34375 5.69023 6.43672V7.80664C5.69023 7.92422 5.67109 8.0418 5.63281 8.15117L4.84805 10.5055C4.7332 10.85 4.91914 11.2219 5.26367 11.3367Cnan nan 5.98008 11.2656 6.09492 10.9211L6.76211 8.91953C6.79766 8.81562 6.89336 8.74453 7.00273 8.74453Cnan nan 7.21055 8.81562 7.24336 8.91953L7.91055 10.9211C8.02539 11.2656 8.39727 11.4516 8.7418 11.3367Cnan nan 9.27227 10.85 9.15742 10.5055L8.37266 8.15117C8.33437 8.03906 8.31523 7.92422 8.31523 7.80664V6.43945C8.81836 6.34375 9.30781 6.19609 9.78086 5.99375L10.1062 5.8543C10.4398 5.71211 10.593 5.32656 10.4508 4.99297Cnan nan 9.92305 4.50625 9.58945 4.64844L9.26133 4.78516C8.54766 5.09141 7.7793 5.25 7 5.25Cnan nan 5.45508 5.09141 4.73867 4.78516L4.41328 4.6457H4.41602ZM7 4.375C7.60366 4.375 8.09375 3.88491 8.09375 3.28125C8.09375 2.67759 7.60366 2.1875 7 2.1875C6.39634 2.1875 5.90625 2.67759 5.90625 3.28125C5.90625 3.88491 6.39634 4.375 7 4.375Z" fill="#3B82F6"/>
</svg>
