<svg width="22" height="16" viewBox="0 0 22 16" fill="none" xmlns="http://www.w3.org/2000/svg">
<path d="M0 2.49982V7.17169C0 7.70294 0.209375 8.21232 0.584375 8.58732L6.08437 14.0873C6.86562 14.8686 8.13125 14.8686 8.9125 14.0873L13.0844 9.91544C13.8656 9.13419 13.8656 7.86857 13.0844 7.08732L7.58437 1.58732C7.20937 1.21232 6.7 1.00294 6.16875 1.00294H1.5C0.671875 0.999816 0 1.67169 0 2.49982ZM3.5 3.49982C3.85727 3.49982 4.18739 3.69041 4.36603 3.99982C4.54466 4.30922 4.54466 4.69041 4.36603 4.99982C4.18739 5.30922 3.85727 5.49982 3.5 5.49982C2.94808 5.49982 2.5 5.05173 2.5 4.49982C2.5 3.9479 2.94808 3.49982 3.5 3.49982Z" fill="#3B82F6"/>
</svg>
