<svg width="64" height="48" viewBox="0 0 64 48" fill="none" xmlns="http://www.w3.org/2000/svg">
<rect width="48" height="48" rx="8" fill="#F3E8FF"/>
<path d="M14 30.25C14 30.9414 14.5586 31.5 15.25 31.5H17.3867C17.8672 32.6055 18.9688 33.375 20.25 33.375C21.5312 33.375 22.6328 32.6055 23.1133 31.5H32.75C33.4414 31.5 34 30.9414 34 30.25C34 29.5586 33.4414 29 32.75 29H23.1133C22.6328 27.8945 21.5312 27.125 20.25 27.125C18.9688 27.125 17.8672 27.8945 17.3867 29H15.25C14.5586 29 14 29.5586 14 30.25ZM19 30.25C19 29.5601 19.5601 29 20.25 29C20.9399 29 21.5 29.5601 21.5 30.25C21.5 30.9399 20.9399 31.5 20.25 31.5C19.5601 31.5 19 30.9399 19 30.25ZM26.5 24C26.5 23.3101 27.0601 22.75 27.75 22.75C28.4399 22.75 29 23.3101 29 24C29 24.6899 28.4399 25.25 27.75 25.25C27.0601 25.25 26.5 24.6899 26.5 24ZM27.75 20.875C26.4688 20.875 25.3672 21.6445 24.8867 22.75H15.25C14.5586 22.75 14 23.3086 14 24Cnan nan 14.5586 25.25 15.25 25.25H24.8867C25.3672 26.3555 26.4688 27.125 27.75 27.125Cnan nan 30.1328 26.3555 30.6133 25.25H32.75C33.4414 25.25 34 24.6914 34 24Cnan nan 33.4414 22.75 32.75 22.75H30.6133C30.1328 21.6445 29.0312 20.875 27.75 20.875ZM21.5 19C20.8101 19 20.25 18.4399 20.25 17.75C20.25 17.0601 20.8101 16.5 21.5 16.5C22.1899 16.5 22.75 17.0601 22.75 17.75C22.75 18.4399 22.1899 19 21.5 19ZM24.3633 16.5C23.8828 15.3945 22.7812 14.625 21.5 14.625C20.2188 14.625 19.1172 15.3945 18.6367 16.5H15.25C14.5586 16.5 14 17.0586 14 17.75C14 18.4414 14.5586 19 15.25 19H18.6367C19.1172 20.1055 20.2188 20.875 21.5 20.875Cnan nan 23.8828 20.1055 24.3633 19H32.75C33.4414 19 34 18.4414 34 17.75Cnan nan 33.4414 16.5 32.75 16.5H24.3633Z" fill="#9333EA"/>
</svg>
