<svg width="22" height="16" viewBox="0 0 22 16" fill="none" xmlns="http://www.w3.org/2000/svg">
<path d="M0 6.75C0 4.67812 1.67812 3 3.75 3H4C4.55312 3 5 3.44687 5 4C5 4.55313 4.55312 5 4 5H3.75C2.78437 5 2 5.78437 2 6.75V7H4C5.10313 7 6 7.89687 6 9V11C6 12.1031 5.10313 13 4 13H2C0.896875 13 0 12.1031 0 11V10V9V6.75ZM8 6.75C8 4.67812 9.67813 3 11.75 3H12C12.5531 3 13 3.44687 13 4Cnan nan 12.5531 5 12 5H11.75C10.7844 5 10 5.78437 10 6.75V7H12C13.1031 7 14 7.89687 14 9V11C14 12.1031 13.1031 13 12 13H10C8.89688 13 8 12.1031 8 11V10V9V6.75Z" fill="#3B82F6"/>
</svg>
